<svg width="32" height="32" viewBox="0 0 32 32" fill="none" xmlns="http://www.w3.org/2000/svg">
<g clip-path="url(#clip0_936_126)">
<path d="M19.7468 0.00805664H20.462L20.9918 0.0875262L21.707 0.272955L22.1044 0.458384L22.5812 0.723283L23.005 1.06765L23.2699 1.30606L23.4818 1.51798L23.7467 1.86235L23.9851 2.20672L24.1706 2.57757L24.3825 3.10737L24.5149 3.58419L24.5414 3.87558L24.8328 3.95505L25.4156 4.21995L25.8924 4.48484L25.9719 4.53782V4.5908L26.0778 4.64378L26.3692 4.8557L26.6871 5.14709L27.058 5.51795L27.3758 5.94179L27.5613 6.20669L27.7997 6.63052L28.0381 7.18681L28.2235 7.76959L28.2765 8.008L28.3295 8.5113L28.356 9.17355L28.303 9.8358L28.25 10.2331L28.0911 10.7894L27.8791 11.3192L27.5613 11.9285L27.4553 12.1139L27.7467 12.3258L28.0646 12.6172L28.356 12.9881L28.6209 13.4119L28.7533 13.7033L28.9123 14.1801L28.9917 14.551L29.0182 14.7894V15.3987L28.9387 15.902L28.8063 16.3258L28.6474 16.7232L28.4089 17.1205L28.1705 17.4384L28.0381 17.5973L27.9321 17.6768H27.8791L27.8262 17.7828L27.6142 17.9682L27.1904 18.2331L26.6341 18.498L25.9189 18.6569L25.601 18.6834H25.2302L25.2037 18.8159L24.9918 19.2132L24.8063 19.4516L24.5944 19.7165L24.356 19.9814L24.1441 20.1933L23.7997 20.4582L23.4553 20.6966L23.0315 20.9086L22.4752 21.1205L22.0779 21.2264L21.5481 21.2794H20.7799L20.1441 21.2L19.5613 21.0145L19.1375 20.8026L19.3229 20.4847L19.4554 20.2198L19.4819 19.9814L19.4289 19.5046L19.3229 19.2397V18.8953L19.4024 18.3126L19.5613 17.6768L19.7203 17.253L20.1176 16.5377L20.356 16.2199L20.6474 15.902L20.9653 15.5841L21.3097 15.3192L21.7865 15.0278L22.0514 14.8689L22.8461 14.551L23.111 14.4715H22.8461L22.3693 14.551L21.76 14.7364L21.4421 14.8689L20.8858 15.1603L20.6739 15.3192L20.515 15.4252L20.1176 15.7695L19.7997 16.0874L19.5348 16.4318L19.4024 16.6437H19.3494L19.2964 16.7761L19.0845 17.2265L18.9256 17.6238L18.7931 18.1536L18.7401 18.551V19.1602L18.7931 19.3986L18.8991 19.69V20.1404L18.6607 20.5112L18.2633 21.3059L17.919 21.9152L17.7865 22.2331V22.392L17.866 22.4715L18.2898 22.5774L18.5282 22.6569L18.5812 22.7893V23.3191L18.7137 23.584V24.1403L18.8461 24.3522L19.1375 24.5377L19.058 24.8026L18.9521 25.1469V25.4383L19.0845 25.5708L19.3494 25.7032L19.5348 25.7562L19.9322 25.8092H20.5415L20.8328 25.7827H23.1375L23.9322 25.8887L24.4355 25.9681L26.7666 26.2065L27.9056 26.286L30.2103 26.339L30.1308 26.392L29.0712 26.4449V26.8953H28.5149V26.4714L26.1838 26.6039L24.7004 26.6834L24.4355 26.7098L24.9123 27.0542L25.1507 27.2132V27.2661L24.7004 27.3191H24.5149V27.8224H23.7467V27.3986L23.6673 27.4251H23.4553V26.9483H22.7401V27.4781L22.6606 27.531L22.4222 27.5575L22.6606 27.69L23.2434 28.0608L23.3759 28.1668L23.5613 28.3787L23.6937 28.5112L24.3825 28.6171L24.9388 28.7231L25.601 28.7761L26.0249 28.8025L26.1838 28.829V28.8555L24.8858 28.9615L24.356 29.0145L24.1176 29.0674L24.1706 29.4383V29.7032L24.1176 30.0211L24.1706 30.18L24.303 30.3125L24.5944 30.5509V30.6039L24.462 30.5509L23.7997 30.2065L23.4818 29.9946L23.5083 29.8092L23.5613 29.6237V29.4913L23.2169 29.0674L22.9785 28.7496L22.8726 28.6171V28.5641L22.7666 28.5112L22.3163 28.1403L21.9984 27.9019L21.9719 28.1933H21.2037V27.5045H20.9653L20.7269 27.4781L20.8064 28.3787L20.8858 28.829L21.0183 28.9615L21.3891 29.0674L21.4156 29.7562L21.4951 30.18L21.8924 30.5244L21.9984 30.6303L22.2898 31.1866L22.5282 31.6899L22.5547 31.7429L22.4222 31.6899L22.1308 31.3721L21.9984 31.2396L21.7335 30.9482L21.3626 30.5774L21.3097 30.4449L21.2037 30.3919L21.0712 30.2595V31.1072L21.0183 31.0542L20.9123 30.6833L20.6474 29.8886H20.2766V29.4913L20.1176 29.3853V28.6701H19.8792L19.8527 28.2198L19.8262 28.0873L19.6673 28.0343L19.4819 27.9019L19.4554 28.2727H18.6607V27.5045L18.7401 27.4781L18.6077 27.1867L18.4752 26.8423L18.3693 26.6304V26.5774L18.2898 26.6569L18.1309 26.9483L18.1574 27.2132L17.9719 27.584L18.0249 27.69L18.1839 27.8754L18.4223 28.1668L18.7931 28.7231L18.7401 28.8555L18.6342 29.0145L18.6077 29.7827L19.005 30.18L19.1905 30.3919L19.4289 30.6303L19.6143 30.8423L19.6673 30.8952L20.1441 30.9217V31.5045H19.5613L19.5348 30.9747L19.111 30.6303L18.8726 30.4184L18.7931 30.3919L18.6342 30.4449V30.7893L18.6077 30.8158H18.0249V30.5774L17.1507 30.7893L17.0448 30.7628L17.1507 30.6833H17.2037V30.6303L17.6011 30.3654L18.0249 30.0741V28.6966L17.9719 28.6436L17.4951 28.5641L17.2037 28.5376V28.6436H16.409V27.8754H16.6739L16.6474 27.7694L16.515 27.7429V27.69H16.621V26.7893H15.7203V27.7429L15.4819 27.8489L14.8991 28.0608L14.6872 28.2727L14.9256 28.2992L14.9521 28.3257V29.0674H14.2898L14.3163 30.1005L14.5812 30.4184L14.7402 30.6303V30.6568L14.5018 30.6303L14.2104 30.5509V30.9217H13.6806L13.6541 30.4184L13.4951 30.3919L13.1508 30.6833L12.8064 30.9482L12.5415 31.1866L12.3031 31.3456V31.2661L12.7005 30.8688L12.8859 30.6568L13.1243 30.4184L13.3097 30.2065L13.5481 29.9681L13.5746 29.8621L13.4951 29.6237V28.7761L13.1773 28.6436L13.3627 28.2727L13.4687 28.1138L13.76 27.9814L14.0514 27.9549L14.2634 27.7429L14.3428 27.637L14.3163 27.5045L14.1574 27.1602L14.2104 26.9483L14.0249 26.6569L13.9985 26.5774L13.8395 26.8953H12.9654V27.8489L12.5945 28.0608L12.4885 28.1668L12.462 28.4847L12.515 29.1999L12.1177 29.4383L12.0382 29.4648L12.1971 29.5178V30.0211H11.6673L11.6409 29.9946L11.4024 30.7098V30.7628L11.5349 30.7893V31.2926H11.0051V30.7893L11.2435 30.7628L11.27 30.2595L11.0581 30.4449L10.8727 30.6303L10.6872 30.8423L10.4753 31.0542L10.2899 31.2661L10.078 31.478L10.0515 31.9019H9.52167V31.3721L9.972 31.3456L10.3164 30.6568L10.3958 30.5244L10.6872 30.286L10.8197 30.18L10.9256 29.5708V29.0674L11.3495 28.935L11.4554 28.8025L11.5349 28.2992L11.5879 27.6105L11.6144 27.4781H11.376V27.1602H10.6607V27.6105L10.3164 27.9019L10.2634 27.9549L10.8197 27.9814V28.988H9.78657L9.76008 28.3522L9.4422 28.6171L9.20379 28.935L9.01836 29.1469L8.85942 29.3853L8.75346 29.4913L8.85942 29.9946L8.46207 30.233L8.06473 30.4449V30.9217H7.53493V30.3919L7.95877 30.3654L8.19717 30.127V29.8886L8.11771 29.6502L8.14419 29.4118L8.22366 29.041L7.95877 29.0145L7.45546 28.9615L6.74023 28.9085L6.63427 28.882V29.1469H6.10448V28.6171H6.60778L6.63427 28.6436V28.8025L6.71374 28.7761L7.40248 28.7231L7.95877 28.6171L8.06473 28.6436L8.03824 28.7231H8.77995V28.3787L8.9124 28.2463L8.96538 28.1403L9.41571 27.8489L9.68061 27.6635L9.83955 27.584H9.89253V27.531H9.65412L9.15081 27.4781L9.04485 27.4516V27.0807H8.32962V27.3721L7.8793 27.3456L7.6144 27.3191L7.56142 27.2926V27.5045L7.53493 27.531H7.03162V27.0012L7.53493 26.9747L7.72036 26.8158L7.8793 26.7098L7.13758 26.6569L6.15745 26.6039L6.13097 26.8953H5.60117V26.5509H5.15084L2.68728 26.4185L2.39589 26.392V26.6569H1.8661V26.1271H2.39589V26.339L3.1641 26.3125L4.43561 26.286L5.57468 26.2065L9.60114 25.7827L10.2634 25.7297L11.2965 25.6238L11.323 26.1536L12.0382 26.18V25.8092H12.7269L13.2832 25.7297L13.5216 25.6238L13.866 25.4383L13.9985 25.3324L14.0249 25.2794V25.041L13.919 24.6966L13.866 24.5377L14.1839 24.3258L14.2898 24.1403V23.584L14.3693 23.4251H14.4223L14.4488 23.1602V22.7893L14.5018 22.6569L14.5812 22.6039L15.0581 22.498L15.217 22.392V22.2066L15.0051 21.7562L14.7402 21.2794L14.4753 20.7761L14.2634 20.3523L14.1044 20.1404V19.69L14.1839 19.4516L14.2369 19.3457L14.2634 19.1602V18.5245L14.1839 18.0212L13.9985 17.3589L13.7865 16.9351L13.5481 16.5112L13.3362 16.2199L13.2038 16.0874L12.9389 15.796L12.6475 15.5576V15.5046L12.5415 15.4517L12.0647 15.1338L11.5614 14.8689L11.0051 14.657L10.5018 14.5245L10.1839 14.4715L9.62763 14.445L9.07134 14.498L8.77995 14.5775L9.52167 14.7099L10.2634 14.8689L10.7667 15.0278L11.1111 15.1868L11.5349 15.3722L12.1177 15.7695L12.4356 16.0609L12.7005 16.3258L13.0713 16.8291L13.3097 17.3324L13.4951 17.8357L13.5746 18.2066L13.6541 18.7099L13.6806 18.9483V19.2397L13.5746 19.5576L13.5481 20.1933L13.3097 20.3258L12.674 20.5377L12.2236 20.6702L11.6938 20.7761L11.27 20.8026H10.1309L9.57465 20.7496L8.9124 20.5907L8.43558 20.4317L7.90579 20.2198L7.50844 20.0079L7.13758 19.796L6.76672 19.5311L6.42235 19.2662L6.07799 18.9483L5.76011 18.6304L5.46872 18.2596L5.2568 17.9682L4.96541 17.5179L4.75349 17.094L4.56806 16.6702L4.43561 16.3523L4.30316 15.849L4.17071 15.2132L4.11774 14.7894V13.6768L4.17071 13.2L3.93231 12.8556L3.64092 12.3258L3.429 11.8225L3.24357 11.0808L3.1641 10.498V9.75633L3.21708 9.306L3.32304 8.82918L3.45549 8.32588L3.58794 8.03449L3.85284 7.50469L4.11774 7.08085L4.25018 6.9484L4.4621 6.6835L4.96541 6.1802L5.2568 5.96828L5.36276 5.86232L5.70713 5.6504L6.15745 5.41199L6.52831 5.25305L7.19056 5.06762L7.6144 4.98815H7.74685L7.82632 4.72325L8.01175 4.24644L8.11771 3.98154L8.48856 3.34578L8.67399 3.05439L8.75346 2.94843H8.80644L8.85942 2.84247L9.04485 2.60406L9.33624 2.28619L9.68061 1.94182L9.91902 1.75639L10.0515 1.62394L10.2899 1.465L10.5548 1.27957L10.8462 1.12063L11.27 0.882222L11.7203 0.696793L12.4091 0.484874L13.0183 0.352425L13.7071 0.272955H14.4488L15.164 0.352425L15.8527 0.511364L16.6474 0.776263L17.1772 1.04116L17.3097 0.961692L17.6805 0.696793L18.3163 0.352425L18.5812 0.246465L19.1905 0.0875262L19.7468 0.00805664ZM16.3031 4.11399L16.0117 4.27293L15.8527 4.45835L15.7468 4.72325V5.01464L15.8527 5.27954L16.0382 5.49146L16.3031 5.62391L16.5945 5.6504L16.8859 5.54444L17.1243 5.33252L17.2567 5.06762V4.64378L17.1507 4.43186L16.9123 4.21995L16.7004 4.11399H16.3031ZM13.8925 5.54444L13.6276 5.62391L13.4157 5.78285L13.2567 6.04775L13.2302 6.12722V6.49807L13.3627 6.76297L13.5481 6.9484L13.813 7.08085H14.1574L14.3958 6.97489L14.5283 6.84244L14.6607 6.6835L14.7402 6.52456L14.7667 6.39212V6.20669L14.6607 5.94179L14.5018 5.72987L14.2898 5.59742L14.1044 5.54444H13.8925ZM19.0845 5.54444L18.8196 5.6504L18.6077 5.83583L18.4752 6.10073L18.4488 6.1802V6.44509L18.5547 6.70999L18.6872 6.89542L18.8991 7.02787L19.058 7.08085H19.3494L19.6143 6.97489L19.8262 6.78946L19.9852 6.47158V6.15371L19.8792 5.9153L19.6938 5.70338L19.4289 5.57093L19.3229 5.54444H19.0845ZM10.1044 7.2133L9.86604 7.26628L9.65412 7.39873L9.46869 7.58416L9.38922 7.79608L9.36273 7.90204V8.08747L9.4422 8.35237L9.60114 8.56428L9.86604 8.72322L10.0515 8.7762L10.3164 8.74971L10.5813 8.61726L10.7137 8.5113L10.8197 8.32588L10.8991 8.06098L10.8727 7.79608L10.7402 7.53118L10.5018 7.31926L10.3164 7.23979L10.1044 7.2133ZM23.058 7.2133L22.7931 7.26628L22.5017 7.4782L22.3428 7.71661L22.2898 7.90204V8.08747L22.3693 8.35237L22.5812 8.59077L22.8726 8.74971L23.1639 8.7762L23.4553 8.67024L23.6673 8.48481L23.7732 8.32588L23.8262 8.16694V7.82257L23.7202 7.58416L23.5348 7.37224L23.3229 7.26628L23.058 7.2133ZM7.37599 10.604L7.13758 10.71L6.92566 10.8954L6.79321 11.1603L6.76672 11.2398V11.4782L6.87268 11.7431L7.0846 11.9815L7.3495 12.1139H7.77334L7.93228 12.0345L8.11771 11.8755L8.27664 11.6371L8.30313 11.5311V11.1868L8.14419 10.8689L7.95877 10.71L7.69387 10.604H7.37599ZM25.4686 10.604L25.1772 10.7629L24.9918 10.9749L24.9123 11.1603L24.8858 11.3987L24.9388 11.6371L25.0712 11.8755L25.3096 12.0609L25.4421 12.1139H25.8659L26.0778 12.008L26.2633 11.849L26.4222 11.5311L26.4487 11.3192L26.3957 11.0808L26.2368 10.8424L26.0778 10.71L25.8394 10.604H25.4686ZM6.95215 13.5444L6.71374 13.6503L6.58129 13.7828L6.42235 13.9682L6.34288 14.2066V14.3921L6.42235 14.657L6.58129 14.8689L6.8197 15.0278L7.00513 15.0808H7.24354L7.50844 14.9748L7.69387 14.8424L7.85281 14.5775L7.8793 14.4715V14.1272L7.77334 13.8887H7.72036L7.66738 13.7828L7.48195 13.6238L7.27003 13.5444H6.95215ZM25.9189 13.5444L25.601 13.7033L25.4156 13.9152L25.3361 14.1007L25.3096 14.3921L25.3891 14.657L25.5745 14.8954L25.7864 15.0278L25.9719 15.0808H26.2103L26.5017 14.9748L26.6871 14.8159L26.846 14.498L26.8725 14.2596L26.7931 13.9947L26.6341 13.7828L26.4752 13.6503L26.3427 13.5709L26.2368 13.5444H25.9189ZM16.1706 25.6238V26.339H16.8859V25.6238H16.1706ZM14.3428 25.8092V26.5509H15.0581V25.8092H14.3428ZM9.91902 26.0211V26.7363H10.6607V26.0211H9.91902ZM21.8659 26.0211V26.7363H22.6077V26.0211H21.8659ZM20.1441 26.2065V26.9218H20.8858V26.2065H20.1441Z" fill="#22353B"/>
<path d="M19.7468 0.00805664H20.462L20.9918 0.0875263L21.707 0.272955L22.1044 0.458384L22.5812 0.723283L23.005 1.06765L23.2699 1.30606L23.4818 1.51798L23.7467 1.86235L23.9851 2.20672L24.1706 2.57757L24.3825 3.10737L24.5149 3.58419L24.5414 3.87558L24.8328 3.95505L25.4156 4.21995L25.8924 4.48484L25.9719 4.53782V4.5908L26.0778 4.64378L26.3692 4.8557L26.6871 5.14709L27.058 5.51795L27.3758 5.94179L27.5613 6.20669L27.7997 6.63052L28.0381 7.18681L28.2235 7.76959L28.2765 8.008L28.3295 8.51131L28.356 9.17355L28.303 9.8358L28.25 10.2331L28.0911 10.7894L27.8791 11.3192L27.5613 11.9285L27.4553 12.1139H27.3758L27.005 11.902L26.9255 11.849L26.9785 11.6106V11.1073L26.8725 10.7629L26.7136 10.5245L26.5547 10.3391L26.2633 10.1537L25.9454 10.0477L25.7864 10.0212H25.5215L25.1772 10.1007L24.8328 10.2861L24.5944 10.5245L24.4355 10.7894L24.3295 11.0278L23.5613 11.3192L22.7666 11.6901L22.2898 11.955L21.654 12.3523L21.2302 12.6702L20.8593 12.9616L20.5679 13.2265L20.356 13.4119L19.9587 13.8093L19.7203 14.1007L19.5613 14.2861L19.5348 14.2066L19.7997 13.5974L20.0646 13.0411L20.3825 12.4583L20.7004 11.9285L21.0713 11.3722L21.4156 10.8954L21.707 10.5245L21.9984 10.1802L22.2368 9.88878L22.4222 9.70335L22.6077 9.49143L22.7666 9.33249H23.1904L23.5613 9.25302L23.8262 9.12057L24.1176 8.85567L24.3295 8.48482L24.409 8.16694V7.82257L24.3295 7.50469L24.1706 7.2133L23.9586 6.97489L23.6673 6.78946L23.3759 6.6835H22.7931L22.4752 6.78946L22.2368 6.9484L22.0514 7.10734L21.8659 7.39873L21.76 7.71661L21.7335 8.08747L21.4951 8.32588L21.3362 8.51131H21.2832L21.2302 8.61726L21.0448 8.80269L20.8064 9.09408L20.5679 9.35898L20.303 9.70335L19.9587 10.1537L19.8527 10.3126H19.8262L19.8527 9.14706V7.50469L20.0911 7.34575L20.2766 7.16032L20.4355 6.89542L20.5415 6.55105V6.07424L20.4355 5.72987L20.2501 5.43848L20.0381 5.22656L19.6673 5.04113L19.5083 4.98815L19.111 4.96166L18.7401 5.04113L18.4752 5.17358L18.2103 5.3855L17.9984 5.70338L17.8925 6.02126L17.866 6.1802V6.41861L17.9454 6.78946L18.1309 7.13383L18.2103 7.23979V7.7431L17.5216 7.84906L17.3097 7.87555V5.96828L17.6011 5.67689L17.7865 5.30603L17.8395 5.06762V4.67027L17.76 4.3524L17.6011 4.06101L17.4421 3.87558L17.1772 3.69015L16.8329 3.5577L16.7004 3.53121H16.3031L16.0117 3.61068L15.7468 3.74313L15.4819 3.98154L15.2965 4.24644L15.1905 4.56431L15.164 4.69676V5.01464L15.2435 5.35901L15.3759 5.62391L15.6143 5.88881L15.7203 5.96828L15.6938 8.53779L15.27 8.85567L15.0051 9.06759L14.7932 9.22653L14.7667 9.20004V8.008L14.7932 7.39873L15.0581 7.16032L15.217 6.89542L15.323 6.55105V6.04775L15.217 5.72987L15.0316 5.43848L14.8461 5.25305L14.5283 5.06762L14.2634 4.98815L13.919 4.96166L13.6011 5.01464L13.1773 5.22656L12.9654 5.41199L12.7799 5.70338L12.674 5.99477L12.6475 6.12722V6.49807L12.7269 6.81595L12.9124 7.13383L13.0448 7.29277L13.1508 7.37224L13.1773 10.3126L13.0713 10.1802L12.7269 9.72984L12.4356 9.35898L12.1177 8.98812L11.7998 8.64375L11.6144 8.43184L11.4819 8.29939V7.95502L11.4289 7.63714L11.2965 7.29277L11.0846 7.02787L10.7932 6.81595L10.4753 6.6835L10.3164 6.65701H9.94551L9.62763 6.73648L9.33624 6.89542L9.09783 7.10734L8.9124 7.39873L8.80644 7.71661L8.77995 8.08747L8.85942 8.45833L9.01836 8.7762L9.25677 9.0411L9.52167 9.20004L9.76008 9.306L9.89253 9.33249L10.2634 9.35898L10.5283 9.62388L10.7137 9.8358L10.9521 10.1007L11.1905 10.3921L11.5349 10.8159L11.8793 11.2927L12.2501 11.849L12.5415 12.3258L12.8064 12.8027L13.0978 13.359V13.3854H12.8594L12.568 13.306L12.3031 13.0941L12.0382 12.8556L11.6144 12.5378L10.8991 12.0609L10.3429 11.7431L9.76008 11.4517L9.20379 11.2133L8.99187 11.1073L8.83293 10.8954L8.62101 10.5245L8.46207 10.3391V10.2861H8.40909L8.06473 9.65037L7.79983 8.96163L7.64089 8.40535L7.29652 8.59077L6.97864 8.80269L6.5548 9.12057L6.28991 9.35898L6.07799 9.54441L5.86607 9.75633L5.68064 9.96825L5.46872 10.2331L5.04488 10.8689L4.727 11.4782L4.4621 12.1404L4.27668 12.8292L4.2237 13.1205H4.11774L3.93231 12.8556L3.64092 12.3258L3.429 11.8225L3.24357 11.0808L3.1641 10.498V9.75633L3.21708 9.306L3.32304 8.82918L3.45549 8.32588L3.58794 8.03449L3.85284 7.50469L4.11774 7.08085L4.25019 6.9484L4.4621 6.6835L4.96541 6.1802L5.2568 5.96828L5.36276 5.86232L5.70713 5.6504L6.15746 5.41199L6.52831 5.25305L7.19056 5.06762L7.6144 4.98815H7.74685L7.82632 4.72325L8.01175 4.24644L8.11771 3.98154L8.48856 3.34578L8.67399 3.05439L8.75346 2.94843H8.80644L8.85942 2.84247L9.04485 2.60406L9.33624 2.28619L9.68061 1.94182L9.91902 1.75639L10.0515 1.62394L10.2899 1.465L10.5548 1.27957L10.8462 1.12063L11.27 0.882222L11.7203 0.696793L12.4091 0.484874L13.0183 0.352425L13.7071 0.272955H14.4488L15.164 0.352425L15.8527 0.511364L16.6474 0.776263L17.1772 1.04116L17.3097 0.961692L17.6805 0.696793L18.3163 0.352425L18.5812 0.246465L19.1905 0.0875263L19.7468 0.00805664Z" fill="#E2154E"/>
<path d="M19.7468 0.00805664H20.462L20.9918 0.0875263L21.707 0.272955L22.1044 0.458384L22.5812 0.723283L23.005 1.06765L23.2699 1.30606L23.4818 1.51798L23.7467 1.86235L23.9851 2.20672L24.1706 2.57757L24.3825 3.10737L24.5149 3.58419L24.5414 3.87558L24.8328 3.95505L25.4156 4.21995L25.8924 4.48484L25.9719 4.53782V4.5908L26.0778 4.64378L26.3692 4.8557L26.6871 5.14709L27.058 5.51795L27.3758 5.94179L27.5613 6.20669L27.7997 6.63052L28.0381 7.18681L28.2235 7.76959L28.2765 8.008L28.3295 8.51131L28.356 9.17355L28.303 9.8358L28.25 10.2331L28.0911 10.7894L27.8791 11.3192L27.5613 11.9285L27.4553 12.1139H27.3758L27.005 11.902L26.9255 11.849L26.9785 11.6106V11.1073L26.8725 10.7629L26.7136 10.5245L26.5547 10.3391L26.2633 10.1537L25.9454 10.0477L25.7864 10.0212H25.5215L25.1772 10.1007L24.8328 10.2861L24.5944 10.5245L24.4355 10.7894L24.3295 11.0278L23.5613 11.3192L22.7666 11.6901L22.2898 11.955L21.654 12.3523L21.2302 12.6702L20.8593 12.9616L20.5679 13.2265L20.356 13.4119L19.9587 13.8093L19.7203 14.1007L19.5613 14.2861L19.5348 14.2066L19.7997 13.5974L20.0646 13.0411L20.3825 12.4583L20.7004 11.9285L21.0713 11.3722L21.4156 10.8954L21.707 10.5245L21.9984 10.1802L22.2368 9.88878L22.4222 9.70335L22.6077 9.49143L22.7666 9.33249H23.1904L23.5613 9.25302L23.8262 9.12057L24.1176 8.85567L24.3295 8.48482L24.409 8.16694V7.82257L24.3295 7.50469L24.1706 7.2133L23.9586 6.97489L23.6673 6.78946L23.3759 6.6835H22.7931L22.4752 6.78946L22.2368 6.9484L22.0514 7.10734L21.8659 7.39873L21.76 7.71661L21.7335 8.08747L21.4951 8.32588L21.3361 8.51131H21.2832L21.2302 8.61726L21.0448 8.80269L20.8064 9.09408L20.5679 9.35898L20.303 9.70335L19.9587 10.1537L19.8527 10.3126H19.8262L19.8527 9.14706V7.90204L20.2766 8.008L20.5679 8.11396L20.5944 7.84906L20.6474 7.18681V6.57754L20.5944 5.94179L20.4355 5.17358L20.303 4.74974L20.0911 4.21995L19.8527 3.71664L19.5083 3.16035L19.2434 2.81598L19.005 2.52459L18.6872 2.18023L18.3693 1.88884L17.919 1.54447L17.5216 1.27957L17.2302 1.12063L17.2037 1.04116L17.6805 0.696793L18.3163 0.352425L18.5812 0.246465L19.1905 0.0875263L19.7468 0.00805664Z" fill="#F28D21"/>
<path d="M7.61441 8.37866L7.66739 8.40515L7.85282 9.04091L8.11771 9.70316L8.43559 10.2859H8.35612L8.09122 10.127L7.85282 10.0475L7.66739 10.021H7.40249L7.05812 10.1005L6.71375 10.2859L6.47534 10.5243L6.3164 10.8157L6.23693 11.0276L6.21044 11.2131V11.5045L6.3164 11.9283L6.50183 12.2197L6.68726 12.4051L6.95216 12.5641L7.27004 12.67L7.42898 12.6965H7.6409L8.01175 12.617L8.1442 12.5641L8.38261 12.617L8.88592 12.829L8.91241 12.8819L8.32963 12.9879L7.85282 13.1203L7.69388 13.0939L7.34951 12.9879H6.89918L6.55481 13.0939L6.28991 13.2528L6.10448 13.4117L5.91906 13.7031L5.8131 13.9945L5.78661 14.127V14.4978L5.86608 14.8157L6.02501 15.1071L6.21044 15.319L6.50183 15.5044L6.76673 15.6104L6.87269 15.6369H7.376L7.69388 15.5309L7.98526 15.3455L8.19718 15.1336L8.4091 14.7097L8.43559 14.6303L8.70049 14.5508L9.25678 14.6568L10.2634 14.8687L10.7667 15.0276L11.1111 15.1866L11.5349 15.372L12.1177 15.7693L12.4356 16.0607L12.7005 16.3256L13.0713 16.8289L13.3097 17.3322L13.4952 17.8355L13.5746 18.2064L13.6541 18.7097L13.6806 18.9481V19.2395L13.5746 19.5574L13.5481 20.1931L13.3097 20.3256L12.674 20.5375L12.2236 20.67L11.6938 20.7759L11.27 20.8024H10.1309L9.57466 20.7494L8.91241 20.5905L8.43559 20.4316L7.9058 20.2196L7.50845 20.0077L7.13759 19.7958L6.76673 19.5309L6.42236 19.266L6.07799 18.9481L5.76012 18.6302L5.46873 18.2594L5.25681 17.968L4.96542 17.5177L4.7535 17.0938L4.56807 16.67L4.43562 16.3521L4.30317 15.8488L4.17072 15.213L4.11774 14.7892V13.6766L4.17072 13.1468L4.2237 12.9614L4.40913 12.2197L4.62105 11.6634L4.93893 11.0012L5.20383 10.5773L5.46873 10.2065L5.70714 9.91507L6.07799 9.51773L6.44885 9.17336L6.89918 8.82899L7.29653 8.56409L7.61441 8.37866Z" fill="#017AC7"/>
<path d="M26.9255 11.8489L27.2964 12.0343L27.4023 12.1138L27.5878 12.1932L27.8527 12.4317L28.0646 12.6171L28.356 12.9879L28.6209 13.4118L28.7533 13.7032L28.9123 14.18L28.9917 14.5508L29.0182 14.7893V15.3985L28.9387 15.9018L28.8063 16.3257L28.6474 16.723L28.4089 17.1204L28.1705 17.4382L28.0381 17.5972L27.9321 17.6766H27.8791L27.8262 17.7826L27.6143 17.968L27.1904 18.2329L26.6341 18.4978L25.9189 18.6568L25.601 18.6833H25.2302L25.2037 18.8157L24.9918 19.2131L24.8063 19.4515L24.5944 19.7164L24.356 19.9813L24.1441 20.1932L23.7997 20.4581L23.4553 20.6965L23.0315 20.9084L22.4752 21.1203L22.0779 21.2263L21.5481 21.2793H20.7799L20.1441 21.1998L19.5613 21.0144L19.1375 20.8025L19.3229 20.4846L19.4554 20.2197L19.4819 19.9813L19.4289 19.5044L19.3229 19.2395V18.8952L19.4024 18.3124L19.5613 17.6766L19.7203 17.2528L20.1176 16.5376L20.356 16.2197L20.6474 15.9018L20.9653 15.5839L21.3097 15.319L21.7865 15.0277L22.0514 14.8687L22.8461 14.5508L23.111 14.4714L22.952 14.4449V14.4184H23.3759L23.9851 14.4714L24.4355 14.5773L24.7533 14.6833L24.8328 14.8157L24.9918 15.1071L25.1507 15.2926L25.4156 15.478L25.7335 15.6104L25.8394 15.6369H26.3427L26.7136 15.5045L26.9785 15.319L27.2169 15.0542L27.3494 14.7628L27.4023 14.5773V14.074L27.2964 13.7297L27.1109 13.4383L26.9255 13.2528L26.6606 13.0939L26.4222 13.0144L26.2898 12.9879H25.8659L25.5216 13.0939L25.3626 13.1734L25.0712 13.0939L24.4355 12.935L24.0911 12.882L24.1706 12.8025L24.9123 12.5111L25.3891 12.6701L25.548 12.6966H25.76L26.0249 12.6436L26.3162 12.5376L26.6076 12.3257L26.7931 12.0873L26.9255 11.8489Z" fill="#723285"/>
<path d="M21.8395 15.0012H21.8659L21.8924 15.5045L21.9719 15.9549L22.1573 16.5111L22.4222 17.0145L22.6606 17.3323L22.952 17.6502L23.2434 17.9151L23.6938 18.2065L24.1441 18.4184L24.7004 18.5774L25.0447 18.6303L25.601 18.6568V18.6833H25.2302L25.2037 18.8158L24.9918 19.2131L24.8063 19.4515L24.5944 19.7164L24.356 19.9813L24.1441 20.1932L23.7997 20.4581L23.4553 20.6965L23.0315 20.9085L22.4752 21.1204L22.0779 21.2263L21.5481 21.2793H20.7799L20.1441 21.1998L19.5613 21.0144L19.1375 20.8025L19.3229 20.4846L19.4554 20.2197L19.4819 19.9813L19.4289 19.5045L19.3229 19.2396V18.8952L19.4024 18.3125L19.5613 17.6767L19.7203 17.2529L20.1176 16.5376L20.356 16.2198L20.6474 15.9019L20.9653 15.584L21.3097 15.3191L21.7865 15.0277L21.8395 15.0012Z" fill="#5CC3CC"/>
<path d="M7.6144 4.98804H7.74685L7.72036 5.19996L7.6144 5.67677L7.53493 6.23306L7.50844 6.63041V7.13372L7.56142 7.74298L7.66738 8.40523L7.53493 8.45821L7.16407 8.67013L6.68725 9.0145L6.34289 9.30589L6.02501 9.59727L5.65415 9.99462L5.46872 10.233L5.04488 10.8688L4.727 11.4781L4.4621 12.1403L4.27668 12.829L4.2237 13.1204H4.11774L3.93231 12.8555L3.64092 12.3257L3.429 11.8224L3.24357 11.0807L3.1641 10.4979V9.75621L3.21708 9.30589L3.32304 8.82907L3.45549 8.32576L3.58794 8.03437L3.85284 7.50457L4.11774 7.08074L4.25019 6.94829L4.4621 6.68339L4.96541 6.18008L5.2568 5.96816L5.36276 5.8622L5.70713 5.65028L6.15746 5.41188L6.52831 5.25294L7.19056 5.06751L7.6144 4.98804Z" fill="#723386"/>
<path d="M19.7468 0.00805664H20.462L20.9918 0.0875263L21.707 0.272955L22.1044 0.458384L22.5812 0.723283L23.005 1.06765L23.2699 1.30606L23.4818 1.51798L23.7467 1.86235L23.9851 2.20672L24.1706 2.57757L24.3825 3.10737L24.5149 3.58419V3.87558L23.7202 3.71664L23.0845 3.66366H22.7666L22.3163 3.69015L21.813 3.76962L21.2302 3.92856L20.7269 4.11399L20.2236 4.37889H20.1706L19.8527 3.71664L19.5083 3.16035L19.2434 2.81598L19.005 2.52459L18.6872 2.18023L18.3693 1.88884L17.919 1.54447L17.5216 1.27957L17.2302 1.12063L17.2037 1.04116L17.6805 0.696793L18.3163 0.352425L18.5812 0.246465L19.1905 0.0875263L19.7468 0.00805664Z" fill="#889D2F"/>
<path d="M18.0514 7.7428H18.2103L18.2368 7.76929V9.46464L18.1574 10.9746L18.0779 11.8487L17.919 13.0408L17.7865 13.8355L17.5481 15.001L17.3362 15.7427L17.2832 15.7957L17.2037 14.1533V11.6633L17.2832 9.22623L17.3097 7.87525L17.813 7.76929L18.0514 7.7428Z" fill="#879C2D"/>
<path d="M22.5547 9.54431H22.6077L22.899 9.91517L23.111 10.2066L23.3759 10.6834L23.6143 11.1867V11.2926L22.7136 11.7165L22.1573 12.0344L21.6275 12.3787L21.2567 12.6436L20.8328 12.988L20.5679 13.2264L20.356 13.4118L19.9587 13.8092L19.7203 14.1006L19.5613 14.286L19.5348 14.2065L19.7997 13.5973L20.0646 13.041L20.3825 12.4582L20.7004 11.9284L21.0712 11.3721L21.4156 10.8953L21.707 10.5244L21.9984 10.1801L22.2368 9.88868L22.4222 9.70325L22.5547 9.54431Z" fill="#879D2E"/>
<path d="M15.6673 8.53772L15.7203 8.5907L15.7468 9.94168L15.7998 11.2662V14.4979L15.7203 15.8224L15.6673 15.7165L15.4554 14.9748L15.217 13.8092L15.0581 12.8291L14.9521 12.0344L14.8196 10.5509L14.7932 9.99466V9.22646L15.0845 8.96156L15.5878 8.5907L15.6673 8.53772Z" fill="#879C2D"/>
<path d="M19.8527 7.90173L20.2766 8.00769L20.6209 8.14014L21.2302 8.43153L21.3362 8.511H21.2832L21.2302 8.61696L21.0448 8.80239L20.8064 9.09378L20.5679 9.35868L20.3031 9.70304L19.9587 10.1534L19.8527 10.3123H19.8262L19.8527 9.14676V7.90173Z" fill="#879C2D"/>
<path d="M5.76011 27.2925H6.74023V28.3256H5.76011L5.73362 28.2991V27.319L5.76011 27.2925Z" fill="#243941"/>
<path d="M20.8858 12.3522H21.4421L21.601 12.3787L21.4686 12.4846L21.1242 12.7495L20.8328 12.9879L20.5679 13.2263L20.356 13.4118L19.9587 13.8091L19.7203 14.1005L19.5613 14.2859L19.5348 14.2065L19.7997 13.5972L20.0646 13.0409L20.3825 12.4581L20.4355 12.4052L20.8858 12.3522Z" fill="#5BC3CC"/>
<path d="M16.3561 29.0671H17.2832V30.0208H16.3296V29.0936L16.3561 29.0671Z" fill="#1F373F"/>
<path d="M21.8924 28.6172H22.6342V29.3854H21.8924L21.8659 29.3589V28.6437L21.8924 28.6172Z" fill="#2F424C"/>
<path d="M26.1573 27.9282H26.899V28.6964H26.1573V27.9282Z" fill="#21363C"/>
<path d="M25.654 26.8687H26.4222V27.6104H25.654V26.8687Z" fill="#2B3E46"/>
<path d="M17.919 31.4517H18.5282V32.0609H17.919V31.4517Z" fill="#314D53"/>
<path d="M1.8661 26.127H2.39589V26.3389L3.1641 26.3124H4.14422V26.3389L3.48198 26.3654H2.97867V26.4183H2.68728L2.39589 26.3919V26.6568H1.8661V26.127Z" fill="#243D44"/>
<path d="M17.707 13.9945L17.7335 14.1005L17.5481 15.0011L17.3362 15.7428L17.2832 15.7958L17.2302 14.7097L17.4421 14.3389L17.707 13.9945Z" fill="#5BC3CC"/>
<path d="M20.2236 30.6301H20.8064V31.2129L20.7799 31.2394H20.2236V30.6301Z" fill="#34434B"/>
<path d="M16.3561 30.9214H16.9123V31.5042H16.3296V30.9479L16.3561 30.9214Z" fill="#1D353E"/>
<path d="M25.654 29.491H26.1838V30.0208H25.654V29.491Z" fill="#38454E"/>
<path d="M27.5348 27.0012H28.0646V27.531H27.5348V27.0012Z" fill="#30434C"/>
<path d="M27.2964 29.0671H27.7997L27.8262 29.0936V29.5969H27.2964V29.0671Z" fill="#334953"/>
<path d="M2.55485 26.7363H3.05816V27.2661H2.52836V26.7628L2.55485 26.7363Z" fill="#284A53"/>
<path d="M22.9255 29.9148H23.2699V30.3121H22.8991V29.9413L22.9255 29.9148Z" fill="#355660"/>
<path d="M12.568 13.3059L13.1243 13.4119L13.1773 13.9417L12.9918 13.7827L12.8064 13.5708L12.568 13.3324V13.3059Z" fill="#007AC7"/>
<path d="M14.7932 29.5708H15.164V29.9417H14.7932V29.5708Z" fill="#3D4E54"/>
<path d="M28.1176 27.769H28.4619V28.0869H28.1176V27.769Z" fill="#3A575C"/>
<path d="M29.9983 26.7625H30.3162V27.1068H29.9983V26.7625Z" fill="#2B3E4B"/>
<path d="M1.8661 26.127H2.39589V26.3389L3.1641 26.3124H4.14422V26.3389L3.48198 26.3654H2.97867V26.4183H2.68728L2.39589 26.3919L2.3694 26.3654V26.1534H1.8661V26.127Z" fill="#749ABA"/>
<path d="M13.1243 13.4912L13.1773 13.5177L13.4952 14.2329L13.4687 14.3124L13.1773 13.968L13.1243 13.6502V13.4912Z" fill="#879D2E"/>
</g>
<defs>
<clipPath id="clip0_936_126">
<rect width="28.6897" height="32" fill="white" transform="translate(1.65517)"/>
</clipPath>
</defs>
</svg>
