<svg width="137" height="100" viewBox="0 0 137 100" fill="none" xmlns="http://www.w3.org/2000/svg">
<g clip-path="url(#clip0_607_2828)">
<path d="M77.4875 0.0205078H79.288L80.6217 0.220562L82.4222 0.687353L83.4224 1.15415L84.6228 1.82099L85.6897 2.68789L86.3566 3.28805L86.89 3.82153L87.5569 4.68843L88.157 5.55533L88.6238 6.48891L89.1573 7.8226L89.4907 9.02292L89.5574 9.75645L90.2909 9.95651L91.758 10.6234L92.9583 11.2902L93.1584 11.4236V11.5569L93.4251 11.6903L94.1586 12.2238L94.9589 12.9573L95.8924 13.8909L96.6927 14.9579L97.1595 15.6247L97.7596 16.6916L98.3598 18.092L98.8266 19.5591L98.9599 20.1592L99.0933 21.4263L99.16 23.0934L99.0266 24.7605L98.8933 25.7607L98.4931 27.1611L97.9597 28.4948L97.1595 30.0286L96.8927 30.4954L97.6262 31.0288L98.4265 31.7624L99.16 32.6959L99.8268 33.7629L100.16 34.4964L100.56 35.6968L100.76 36.6303L100.827 37.2305V38.7642L100.627 40.0312L100.294 41.0982L99.8935 42.0985L99.2934 43.0987L98.6932 43.899L98.3598 44.2991L98.093 44.4991H97.9597L97.8263 44.7659L97.2928 45.2326L96.2259 45.8995L94.8255 46.5663L93.025 46.9664L92.2248 47.0331H91.2912L91.2245 47.3666L90.691 48.3668L90.2243 48.967L89.6908 49.6338L89.0906 50.3007L88.5571 50.8341L87.6902 51.501L86.8233 52.1012L85.7564 52.6346L84.356 53.1681L83.3557 53.4348L82.0221 53.5682H80.0882L78.4878 53.3682L77.0207 52.9014L75.9538 52.3679L76.4206 51.5677L76.754 50.9008L76.8207 50.3007L76.6873 49.1003L76.4206 48.4335V47.5666L76.6206 46.0995L77.0207 44.4991L77.4208 43.4322L78.4211 41.6317L79.0212 40.8315L79.7548 40.0312L80.555 39.231L81.4219 38.5642L82.6222 37.8307L83.2891 37.4305L85.2896 36.6303L85.9564 36.4303H85.2896L84.0893 36.6303L82.5555 37.0971L81.7553 37.4305L80.3549 38.1641L79.8215 38.5642L79.4214 38.8309L78.4211 39.6978L77.6209 40.498L76.954 41.3649L76.6206 41.8984H76.4872L76.3539 42.2318L75.8204 43.3655L75.4203 44.3657L75.0869 45.6994L74.9535 46.6997V48.2334L75.0869 48.8336L75.3536 49.5671V50.7008L74.7534 51.6344L73.7532 53.6349L72.8863 55.1686L72.5528 55.9689V56.369L72.7529 56.569L73.8199 56.8358L74.42 57.0358L74.5534 57.3692V58.7029L74.8868 59.3698V60.7701L75.2202 61.3036L75.9538 61.7704L75.7537 62.4373L75.487 63.3042V64.0377L75.8204 64.3711L76.4872 64.7045L76.954 64.8379L77.9543 64.9713H79.488L80.2216 64.9046H86.0231L88.0237 65.1713L89.2907 65.3714L95.1589 65.9715L98.0263 66.1716L103.828 66.305L103.628 66.4383L100.96 66.5717V67.7053H99.5601V66.6384L93.6919 66.9718L89.9575 67.1719L89.2907 67.2385L90.491 68.1055L91.0912 68.5056V68.6389L89.9575 68.7723H89.4907V70.0393H87.5569V68.9724L87.3568 69.039H86.8233V67.8387H85.0229V69.1724L84.8228 69.3058L84.2226 69.3725L84.8228 69.7059L86.2899 70.6395L86.6233 70.9062L87.0901 71.4397L87.4235 71.7731L89.1573 72.0398L90.5577 72.3066L92.2248 72.4399L93.2917 72.5066L93.6919 72.5733V72.64L90.4243 72.9067L89.0906 73.0401L88.4905 73.1735L88.6238 74.1071V74.7739L88.4905 75.5741L88.6238 75.9742L88.9572 76.3077L89.6908 76.9078V77.0412L89.3574 76.9078L87.6902 76.0409L86.89 75.5074L86.9567 75.0406L87.0901 74.5739V74.2404L86.2232 73.1735L85.623 72.3733L85.3563 72.0398V71.9065L85.0895 71.7731L83.9559 70.8395L83.1557 70.2394L83.089 70.9729H81.1552V69.2391H80.555L79.9548 69.1724L80.1549 71.4397L80.3549 72.5733L80.6884 72.9067L81.6219 73.1735L81.6886 74.9073L81.8887 75.9742L82.889 76.8411L83.1557 77.1079L83.8892 78.5082L84.4894 79.7752L84.5561 79.9086L84.2226 79.7752L83.4891 78.975L83.1557 78.6416L82.4888 77.9081L81.5553 76.9745L81.4219 76.6411L81.1552 76.5077L80.8217 76.1743V78.3082L80.6884 78.1748L80.4216 77.2412L79.7548 75.2407H78.8212V74.2404L78.4211 73.9737V72.1732H77.8209L77.7542 71.0396L77.6876 70.7061L77.2874 70.5728L76.8207 70.2394L76.754 71.1729H74.7534V69.2391L74.9535 69.1724L74.6201 68.4389L74.2866 67.572L74.0199 67.0385V66.9051L73.8199 67.1052L73.4197 67.8387L73.4864 68.5056L73.0196 69.4391L73.153 69.7059L73.5531 70.1727L74.1533 70.9062L75.0869 72.3066L74.9535 72.64L74.6868 73.0401L74.6201 74.974L75.6203 75.9742L76.0871 76.5077L76.6873 77.1079L77.1541 77.6413L77.2874 77.7747L78.4878 77.8414V79.3085H77.0207L76.954 77.9748L75.8871 77.1079L75.2869 76.5744L75.0869 76.5077L74.6868 76.6411V77.508L74.6201 77.5747H73.153V76.9745L70.9524 77.508L70.6857 77.4413L70.9524 77.2412H71.0858V77.1079L72.0861 76.441L73.153 75.7075V72.2399L73.0196 72.1065L71.8193 71.9065L71.0858 71.8398V72.1065H69.0852V70.1727H69.7521L69.6854 69.9059L69.352 69.8392V69.7059H69.6187V67.4386H67.3515V69.8392L66.7513 70.106L65.2842 70.6395L64.7508 71.1729L65.3509 71.2396L65.4176 71.3063V73.1735H63.7505L63.8172 75.7742L64.484 76.5744L64.8841 77.1079V77.1746L64.284 77.1079L63.5504 76.9078V77.8414H62.2167L62.1501 76.5744L61.7499 76.5077L60.883 77.2412L60.0161 77.9081L59.3493 78.5082L58.7491 78.9083V78.7083L59.7494 77.708L60.2162 77.1746L60.8164 76.5744L61.2832 76.0409L61.8833 75.4408L61.95 75.174L61.7499 74.5739V72.4399L60.9497 72.1065L61.4165 71.1729L61.6833 70.7728L62.4168 70.4394L63.1503 70.3727L63.6838 69.8392L63.8839 69.5725L63.8172 69.2391L63.4171 68.3722L63.5504 67.8387L63.0836 67.1052L63.017 66.9051L62.6168 67.7053H60.4163V70.106L59.4827 70.6395L59.2159 70.9062L59.1492 71.7064L59.2826 73.5069L58.2823 74.1071L58.0823 74.1737L58.4824 74.3071V75.5741H57.1487L57.082 75.5074L56.4819 77.3079V77.4413L56.8153 77.508V78.775H55.4816V77.508L56.0818 77.4413L56.1484 76.1743L55.615 76.6411L55.1482 77.1079L54.6814 77.6413L54.1479 78.1748L53.6811 78.7083L53.1476 79.2418L53.081 80.3087H51.7473V78.975L52.8809 78.9083L53.7478 77.1746L53.9479 76.8411L54.6814 76.241L55.0148 75.9742L55.2815 74.4405V73.1735L56.3485 72.8401L56.6152 72.5066L56.8153 71.2396L56.9487 69.5058L57.0153 69.1724H56.4152V68.3722H54.6147V69.5058L53.7478 70.2394L53.6144 70.3727L55.0148 70.4394V72.9734H52.4141L52.3474 71.373L51.5472 72.0398L50.947 72.8401L50.4803 73.3735L50.0801 73.9737L49.8134 74.2404L50.0801 75.5074L49.0799 76.1076L48.0796 76.6411V77.8414H46.7459V76.5077L47.8129 76.441L48.413 75.8409V75.2407L48.213 74.6405L48.2797 74.0404L48.4797 73.1068L47.8129 73.0401L46.5459 72.9067L44.7454 72.7734L44.4786 72.7067V73.3735H43.145V72.0398H44.412L44.4786 72.1065V72.5066L44.6787 72.4399L46.4125 72.3066L47.8129 72.0398L48.0796 72.1065L48.0129 72.3066H49.8801V71.4397L50.2135 71.1063L50.3469 70.8395L51.4805 70.106L52.1474 69.6392L52.5475 69.4391H52.6808V69.3058H52.0807L50.8137 69.1724L50.5469 69.1057V68.1721H48.7465V68.9057L47.6128 68.839L46.946 68.7723L46.8126 68.7056V69.2391L46.7459 69.3058H45.4789V67.9721L46.7459 67.9054L47.2127 67.5053L47.6128 67.2385L45.7457 67.1052L43.2783 66.9718L43.2116 67.7053H41.8779V66.8384H40.7443L34.5426 66.505L33.8091 66.4383V67.1052H32.4754V65.7715H33.8091V66.305L35.743 66.2383L38.9438 66.1716L41.8113 65.9715L51.9473 64.9046L53.6144 64.7712L56.2151 64.5045L56.2818 65.8382L58.0823 65.9049V64.9713H59.8161L61.2165 64.7712L61.8166 64.5045L62.6835 64.0377L63.017 63.771L63.0836 63.6376V63.0374L62.8169 62.1705L62.6835 61.7704L63.4837 61.2369L63.7505 60.7701V59.3698L63.9505 58.9697H64.0839L64.1506 58.3028V57.3692L64.284 57.0358L64.484 56.9024L65.6843 56.6357L66.0844 56.369V55.9022L65.551 54.7685L64.8841 53.5682L64.2173 52.3012L63.6838 51.2343L63.2837 50.7008V49.5671L63.4837 48.967L63.6171 48.7002L63.6838 48.2334V46.633L63.4837 45.366L63.017 43.6989L62.4835 42.6319L61.8833 41.565L61.3498 40.8315L61.0164 40.498L60.3496 39.7645L59.616 39.1643V39.031L59.3493 38.8976L58.149 38.0974L56.882 37.4305L55.4816 36.8971L54.2146 36.5637L53.4144 36.4303L52.014 36.3636L50.6136 36.497L49.8801 36.697L51.7473 37.0304L53.6144 37.4305L54.8814 37.8307L55.7483 38.2308L56.8153 38.6976L58.2823 39.6978L59.0826 40.4314L59.7494 41.0982L60.683 42.3652L61.2832 43.6322L61.7499 44.8992L61.95 45.8328L62.1501 47.0998L62.2167 47.7V48.4335L61.95 49.2337L61.8833 50.8341L61.2832 51.1676L59.6827 51.701L58.5491 52.0345L57.2154 52.3012L56.1484 52.3679H53.281L51.8806 52.2345L50.2135 51.8344L49.0132 51.4343L47.6795 50.9008L46.6792 50.3674L45.7457 49.8339L44.8121 49.167L43.9452 48.5002L43.0783 47.7L42.2781 46.8998L41.5445 45.9662L41.011 45.2326L40.2775 44.099L39.744 43.0321L39.2772 41.9651L38.9438 41.1649L38.6104 39.8979L38.277 38.2974L38.1436 37.2305V34.4297L38.277 33.2294L37.6768 32.3625L36.9433 31.0288L36.4098 29.7618L35.943 27.8947L35.743 26.4276V24.5604L35.8763 23.4268L36.1431 22.2265L36.4765 20.9595L36.8099 20.2259L37.4768 18.8922L38.1436 17.8253L38.477 17.4919L39.0105 16.825L40.2775 15.558L41.011 15.0245L41.2778 14.7578L42.1447 14.2243L43.2783 13.6242L44.2119 13.2241L45.879 12.7573L46.946 12.5572H47.2794L47.4794 11.8904L47.9462 10.69L48.213 10.0232L49.1466 8.42276L49.6134 7.68923L49.8134 7.42249H49.9468L50.0801 7.15576L50.5469 6.5556L51.2805 5.75538L52.1474 4.88848L52.7475 4.42169L53.081 4.08827L53.6811 3.68816L54.348 3.22137L55.0815 2.82126L56.1484 2.2211L57.2821 1.75431L59.0159 1.22083L60.5496 0.887407L62.2834 0.687353H64.1506L65.9511 0.887407L67.6849 1.28751L69.6854 1.95436L71.0191 2.62121L71.3525 2.42115L72.2861 1.75431L73.8865 0.887407L74.5534 0.620669L76.0871 0.220562L77.4875 0.0205078ZM68.8185 10.3566L68.085 10.7567L67.6849 11.2235L67.4181 11.8904V12.6239L67.6849 13.2907L68.1517 13.8242L68.8185 14.1576L69.552 14.2243L70.2856 13.9576L70.8857 13.4241L71.2192 12.7573V11.6903L70.9524 11.1568L70.3523 10.6234L69.8188 10.3566H68.8185ZM62.7502 13.9576L62.0834 14.1576L61.5499 14.5577L61.1498 15.2246L61.0831 15.4246V16.3582L61.4165 17.0251L61.8833 17.4919L62.5502 17.8253H63.4171L64.0172 17.5585L64.3506 17.2251L64.6841 16.825L64.8841 16.4249L64.9508 16.0915V15.6247L64.6841 14.9579L64.284 14.4244L63.7505 14.091L63.2837 13.9576H62.7502ZM75.8204 13.9576L75.1535 14.2243L74.6201 14.6911L74.2866 15.358L74.22 15.558V16.2249L74.4867 16.8917L74.8201 17.3585L75.3536 17.6919L75.7537 17.8253H76.4872L77.1541 17.5585L77.6876 17.0918L78.0877 16.2915V15.4913L77.8209 14.8912L77.3541 14.3577L76.6873 14.0243L76.4206 13.9576H75.8204ZM53.2143 18.1587L52.6142 18.2921L52.0807 18.6255L51.6139 19.0923L51.4138 19.6258L51.3472 19.8925V20.3593L51.5472 21.0261L51.9473 21.5596L52.6142 21.9597L53.081 22.0931L53.7478 22.0264L54.4146 21.693L54.7481 21.4263L55.0148 20.9595L55.2149 20.2926L55.1482 19.6258L54.8148 18.9589L54.2146 18.4254L53.7478 18.2254L53.2143 18.1587ZM85.8231 18.1587L85.1562 18.2921L84.4227 18.8256L84.0226 19.4257L83.8892 19.8925V20.3593L84.0893 21.0261L84.6228 21.6263L85.3563 22.0264L86.0898 22.0931L86.8233 21.8264L87.3568 21.3596L87.6236 20.9595L87.7569 20.5594V19.6925L87.4902 19.0923L87.0234 18.5588L86.4899 18.2921L85.8231 18.1587ZM46.3458 26.6943L45.7457 26.9611L45.2122 27.4279L44.8788 28.0947L44.8121 28.2948V28.8949L45.0788 29.5618L45.6123 30.1619L46.2791 30.4954H47.3461L47.7462 30.2953L48.213 29.8952L48.6131 29.295L48.6798 29.0283V28.1614L48.2797 27.3612L47.8129 26.9611L47.146 26.6943H46.3458ZM91.8914 26.6943L91.1578 27.0944L90.691 27.6279L90.491 28.0947L90.4243 28.6949L90.5577 29.295L90.8911 29.8952L91.4913 30.362L91.8247 30.4954H92.8916L93.4251 30.2286L93.8919 29.8285L94.292 29.0283L94.3587 28.4948L94.2253 27.8947L93.8252 27.2945L93.4251 26.9611L92.825 26.6943H91.8914ZM45.2789 34.0963L44.6787 34.3631L44.3453 34.6965L43.9452 35.1633L43.7451 35.7634V36.2302L43.9452 36.8971L44.3453 37.4305L44.9454 37.8307L45.4122 37.964H46.0124L46.6792 37.6973L47.146 37.3639L47.5461 36.697L47.6128 36.4303V35.5634L47.3461 34.9632H47.2127L47.0793 34.6965L46.6125 34.2964L46.0791 34.0963H45.2789ZM93.025 34.0963L92.2248 34.4964L91.758 35.0299L91.5579 35.4967L91.4913 36.2302L91.6913 36.8971L92.1581 37.4972L92.6916 37.8307L93.1584 37.964H93.7585L94.4921 37.6973L94.9589 37.2972L95.359 36.497L95.4257 35.8968L95.2256 35.23L94.8255 34.6965L94.4254 34.3631L94.092 34.163L93.8252 34.0963H93.025ZM68.4851 64.5045V66.305H70.2856V64.5045H68.4851ZM63.8839 64.9713V66.8384H65.6843V64.9713H63.8839ZM52.7475 65.5048V67.3052H54.6147V65.5048H52.7475ZM82.8223 65.5048V67.3052H84.6894V65.5048H82.8223ZM78.4878 65.9715V67.772H80.3549V65.9715H78.4878Z" fill="white"/>
<path d="M77.4875 0.0205078H79.288L80.6217 0.220562L82.4222 0.687353L83.4224 1.15415L84.6228 1.82099L85.6897 2.68789L86.3566 3.28805L86.89 3.82153L87.5569 4.68843L88.157 5.55533L88.6238 6.48891L89.1573 7.8226L89.4907 9.02292L89.5574 9.75645L90.2909 9.95651L91.758 10.6234L92.9583 11.2902L93.1584 11.4236V11.5569L93.4251 11.6903L94.1586 12.2238L94.9589 12.9573L95.8924 13.8909L96.6927 14.9579L97.1595 15.6247L97.7596 16.6916L98.3598 18.092L98.8266 19.5591L98.9599 20.1592L99.0933 21.4263L99.16 23.0934L99.0266 24.7605L98.8932 25.7607L98.4931 27.1611L97.9597 28.4948L97.1595 30.0286L96.8927 30.4954H96.6927L95.7591 29.9619L95.559 29.8285L95.6924 29.2283V27.9613L95.4257 27.0944L95.0255 26.4943L94.6254 26.0275L93.8919 25.5607L93.0917 25.294L92.6916 25.2273H92.0247L91.1578 25.4273L90.2909 25.8941L89.6908 26.4943L89.2907 27.1611L89.0239 27.7613L87.0901 28.4948L85.0895 29.4284L83.8892 30.0952L82.2888 31.0955L81.2218 31.8957L80.2883 32.6293L79.5547 33.2961L79.0212 33.7629L78.021 34.7632L77.4208 35.4967L77.0207 35.9635L76.954 35.7634L77.6209 34.2297L78.2877 32.8293L79.0879 31.3623L79.8881 30.0286L80.8217 28.6282L81.6886 27.4279L82.4222 26.4943L83.1557 25.6274L83.7559 24.8939L84.2226 24.4271L84.6894 23.8936L85.0895 23.4935H86.1565L87.0901 23.2934L87.7569 22.96L88.4905 22.2932L89.0239 21.3596L89.224 20.5594V19.6925L89.0239 18.8922L88.6238 18.1587L88.0904 17.5585L87.3568 17.0918L86.6233 16.825H85.1562L84.356 17.0918L83.7559 17.4919L83.2891 17.892L82.8223 18.6255L82.5555 19.4257L82.4888 20.3593L81.8887 20.9595L81.4886 21.4263H81.3552L81.2218 21.693L80.755 22.1598L80.1549 22.8933L79.5547 23.5602L78.8879 24.4271L78.021 25.5607L77.7542 25.9608H77.6876L77.7542 23.0267V18.8922L78.3544 18.4921L78.8212 18.0253L79.2213 17.3585L79.488 16.4916V15.2913L79.2213 14.4244L78.7545 13.6908L78.221 13.1574L77.2874 12.6906L76.8873 12.5572L75.8871 12.4905L74.9535 12.6906L74.2866 13.024L73.6198 13.5575L73.0863 14.3577L72.8196 15.1579L72.7529 15.558V16.1582L72.953 17.0918L73.4197 17.9587L73.6198 18.2254V19.4924L71.886 19.7591L71.3525 19.8258V15.0245L72.0861 14.291L72.5528 13.3574L72.6862 12.7573V11.757L72.4862 10.9568L72.0861 10.2232L71.6859 9.75645L71.0191 9.28966L70.1522 8.95624L69.8188 8.88955H68.8185L68.085 9.08961L67.4181 9.42303L66.7513 10.0232L66.2845 10.69L66.0178 11.4903L65.9511 11.8237V12.6239L66.1511 13.4908L66.4846 14.1576L67.0847 14.8245L67.3514 15.0245L67.2848 21.4929L66.2178 22.2932L65.551 22.8266L65.0175 23.2267L64.9508 23.1601V20.1592L65.0175 18.6255L65.6843 18.0253L66.0844 17.3585L66.3512 16.4916V15.2246L66.0844 14.4244L65.6177 13.6908L65.1509 13.2241L64.3506 12.7573L63.6838 12.5572L62.8169 12.4905L62.0167 12.6239L60.9497 13.1574L60.4163 13.6242L59.9495 14.3577L59.6827 15.0912L59.616 15.4246V16.3582L59.8161 17.1584L60.2829 17.9587L60.6163 18.3588L60.883 18.5588L60.9497 25.9608L60.683 25.6274L59.8161 24.4937L59.0826 23.5602L58.2823 22.6266L57.4821 21.7597L57.0153 21.2262L56.6819 20.8928V20.0259L56.5485 19.2257L56.2151 18.3588L55.6817 17.6919L54.9481 17.1584L54.1479 16.825L53.7478 16.7583H52.8142L52.014 16.9584L51.2805 17.3585L50.6803 17.892L50.2135 18.6255L49.9468 19.4257L49.8801 20.3593L50.0801 21.2929L50.4803 22.0931L51.0804 22.7599L51.7473 23.1601L52.3474 23.4268L52.6808 23.4935L53.6144 23.5602L54.2813 24.227L54.7481 24.7605L55.3482 25.4273L55.9484 26.1609L56.8153 27.2278L57.6822 28.4281L58.6158 29.8285L59.3493 31.0288L60.0161 32.2292L60.7497 33.6295V33.6962H60.1495L59.416 33.4962L58.7491 32.9627L58.0823 32.3625L57.0153 31.5623L55.2149 30.362L53.8145 29.5618L52.3474 28.8282L50.947 28.2281L50.4136 27.9613L50.0135 27.4279L49.48 26.4943L49.0799 26.0275V25.8941H48.9465L48.0796 24.2937L47.4128 22.5599L47.0127 21.1595L46.1458 21.6263L45.3455 22.1598L44.2786 22.96L43.6117 23.5602L43.0783 24.027L42.5448 24.5604L42.078 25.0939L41.5445 25.7607L40.4776 27.3612L39.6774 28.8949L39.0105 30.562L38.5437 32.2958L38.4103 33.0294H38.1436L37.6768 32.3625L36.9433 31.0288L36.4098 29.7618L35.943 27.8947L35.743 26.4276V24.5604L35.8763 23.4268L36.1431 22.2265L36.4765 20.9595L36.8099 20.2259L37.4768 18.8922L38.1436 17.8253L38.477 17.4919L39.0105 16.825L40.2775 15.558L41.011 15.0245L41.2778 14.7578L42.1447 14.2243L43.2783 13.6242L44.2119 13.2241L45.879 12.7573L46.946 12.5572H47.2794L47.4794 11.8904L47.9462 10.69L48.213 10.0232L49.1466 8.42276L49.6134 7.68923L49.8134 7.42249H49.9468L50.0801 7.15576L50.5469 6.5556L51.2805 5.75538L52.1474 4.88848L52.7475 4.42169L53.081 4.08827L53.6811 3.68816L54.348 3.22137L55.0815 2.82126L56.1484 2.2211L57.2821 1.75431L59.0159 1.22083L60.5496 0.887407L62.2834 0.687353H64.1506L65.9511 0.887407L67.6849 1.28751L69.6854 1.95436L71.0191 2.62121L71.3525 2.42115L72.2861 1.75431L73.8865 0.887407L74.5534 0.620669L76.0871 0.220562L77.4875 0.0205078Z" fill="#E2154E"/>
<path d="M77.4875 0.0205078H79.288L80.6217 0.220562L82.4222 0.687353L83.4224 1.15415L84.6228 1.82099L85.6897 2.68789L86.3566 3.28805L86.89 3.82153L87.5569 4.68843L88.157 5.55533L88.6238 6.48891L89.1573 7.8226L89.4907 9.02292L89.5574 9.75645L90.2909 9.95651L91.758 10.6234L92.9583 11.2902L93.1584 11.4236V11.5569L93.4251 11.6903L94.1587 12.2238L94.9589 12.9573L95.8925 13.8909L96.6927 14.9579L97.1595 15.6247L97.7596 16.6916L98.3598 18.092L98.8266 19.5591L98.9599 20.1592L99.0933 21.4263L99.16 23.0934L99.0266 24.7605L98.8933 25.7607L98.4931 27.1611L97.9597 28.4948L97.1595 30.0286L96.8927 30.4954H96.6927L95.7591 29.9619L95.559 29.8285L95.6924 29.2283V27.9613L95.4257 27.0944L95.0256 26.4943L94.6254 26.0275L93.8919 25.5607L93.0917 25.294L92.6916 25.2273H92.0247L91.1578 25.4273L90.2909 25.8941L89.6908 26.4943L89.2907 27.1611L89.0239 27.7613L87.0901 28.4948L85.0896 29.4284L83.8892 30.0952L82.2888 31.0955L81.2218 31.8957L80.2883 32.6293L79.5547 33.2961L79.0213 33.7629L78.021 34.7632L77.4208 35.4967L77.0207 35.9635L76.954 35.7634L77.6209 34.2297L78.2877 32.8293L79.0879 31.3623L79.8882 30.0286L80.8217 28.6282L81.6886 27.4279L82.4222 26.4943L83.1557 25.6274L83.7559 24.8939L84.2227 24.4271L84.6894 23.8936L85.0896 23.4935H86.1565L87.0901 23.2934L87.7569 22.96L88.4905 22.2932L89.0239 21.3596L89.224 20.5594V19.6925L89.0239 18.8922L88.6238 18.1587L88.0904 17.5585L87.3568 17.0918L86.6233 16.825H85.1562L84.356 17.0918L83.7559 17.4919L83.2891 17.892L82.8223 18.6255L82.5555 19.4257L82.4889 20.3593L81.8887 20.9595L81.4886 21.4263H81.3552L81.2218 21.693L80.7551 22.1598L80.1549 22.8933L79.5547 23.5602L78.8879 24.4271L78.021 25.5607L77.7542 25.9608H77.6876L77.7542 23.0267V19.8925L78.8212 20.1592L79.5547 20.426L79.6214 19.7591L79.7548 18.092V16.5583L79.6214 14.9579L79.2213 13.024L78.8879 11.957L78.3544 10.6234L77.7542 9.35635L76.8873 7.95597L76.2205 7.08907L75.6203 6.35554L74.8201 5.48864L74.0199 4.75511L72.8863 3.88821L71.886 3.22137L71.1525 2.82126L71.0858 2.62121L72.2861 1.75431L73.8865 0.887407L74.5534 0.620669L76.0871 0.220562L77.4875 0.0205078Z" fill="#F28D21"/>
<path d="M46.946 21.0928L47.0794 21.1595L47.5462 22.7599L48.213 24.427L49.0132 25.8941H48.8132L48.1463 25.494L47.5462 25.2939L47.0794 25.2272H46.4125L45.5456 25.4273L44.6787 25.8941L44.0786 26.4942L43.6785 27.2278L43.4784 27.7612L43.4117 28.228V28.9616L43.6785 30.0285L44.1452 30.762L44.612 31.2288L45.2789 31.6289L46.0791 31.8957L46.4792 31.9624H47.0127L47.9463 31.7623L48.2797 31.6289L48.8799 31.7623L50.1469 32.2958L50.2135 32.4291L48.7465 32.6959L47.5462 33.0293L47.1461 32.9626L46.2792 32.6959H45.1455L44.2786 32.9626L43.6118 33.3627L43.145 33.7628L42.6782 34.4964L42.4115 35.2299L42.3448 35.5633V36.4969L42.5448 37.2971L42.9449 38.0307L43.4117 38.5641L44.1452 39.0309L44.8121 39.2977L45.0788 39.3643H46.3458L47.1461 39.0976L47.8796 38.6308L48.4131 38.0973L48.9465 37.0304L49.0132 36.8303L49.6801 36.6303L51.0804 36.897L53.6145 37.4305L54.8815 37.8306L55.7484 38.2307L56.8153 38.6975L58.2824 39.6978L59.0826 40.4313L59.7494 41.0981L60.683 42.3652L61.2832 43.6322L61.75 44.8992L61.95 45.8327L62.1501 47.0998L62.2168 47.6999V48.4334L61.95 49.2337L61.8833 50.8341L61.2832 51.1675L59.6828 51.701L58.5491 52.0344L57.2154 52.3012L56.1485 52.3678H53.281L51.8807 52.2345L50.2135 51.8344L49.0132 51.4343L47.6795 50.9008L46.6793 50.3673L45.7457 49.8338L44.8121 49.167L43.9452 48.5001L43.0783 47.6999L42.2781 46.8997L41.5446 45.9661L41.0111 45.2326L40.2775 44.0989L39.7441 43.032L39.2773 41.965L38.9439 41.1648L38.6104 39.8978L38.277 38.2974L38.1436 37.2304V34.4297L38.277 33.096L38.4104 32.6292L38.8772 30.762L39.4106 29.3617L40.2109 27.6945L40.8777 26.6276L41.5446 25.694L42.1447 24.9605L43.0783 23.9602L44.0119 23.0933L45.1455 22.2264L46.1458 21.5596L46.946 21.0928Z" fill="#017AC7"/>
<path d="M95.559 29.8281L96.4926 30.2949L96.7594 30.495L97.2261 30.695L97.893 31.2952L98.4265 31.762L99.16 32.6956L99.8268 33.7625L100.16 34.496L100.56 35.6964L100.76 36.63L100.827 37.2301V38.7639L100.627 40.0309L100.294 41.0978L99.8935 42.0981L99.2934 43.0984L98.6932 43.8986L98.3598 44.2987L98.093 44.4987H97.9597L97.8263 44.7655L97.2928 45.2323L96.2259 45.8991L94.8255 46.5659L93.025 46.9661L92.2248 47.0327H91.2912L91.2245 47.3662L90.6911 48.3664L90.2243 48.9666L89.6908 49.6334L89.0906 50.3003L88.5572 50.8338L87.6903 51.5006L86.8234 52.1008L85.7564 52.6342L84.356 53.1677L83.3558 53.4345L82.0221 53.5678H80.0882L78.4878 53.3678L77.0207 52.901L75.9538 52.3675L76.4206 51.5673L76.754 50.9004L76.8207 50.3003L76.6873 49.1L76.4206 48.4331V47.5662L76.6206 46.0992L77.0207 44.4987L77.4208 43.4318L78.4211 41.6313L79.0213 40.8311L79.7548 40.0309L80.555 39.2306L81.4219 38.5638L82.6222 37.8303L83.2891 37.4302L85.2896 36.63L85.9565 36.4299L85.5563 36.3632V36.2965H86.6233L88.157 36.4299L89.2907 36.6966L90.0909 36.9634L90.291 37.2968L90.6911 38.0303L91.0912 38.4971L91.758 38.9639L92.5582 39.2973L92.825 39.364H94.092L95.0256 39.0306L95.6924 38.5638L96.2926 37.897L96.626 37.1634L96.7594 36.6966V35.4296L96.4926 34.5627L96.0258 33.8292L95.559 33.3624L94.8922 32.9623L94.292 32.7622L93.9586 32.6956H92.8917L92.0248 32.9623L91.6246 33.1624L90.8911 32.9623L89.2907 32.5622L88.4238 32.4288L88.6238 32.2288L90.491 31.4952L91.6913 31.8953L92.0914 31.962H92.6249L93.2918 31.8287L94.0253 31.5619L94.7588 31.0284L95.2256 30.4283L95.559 29.8281Z" fill="#723285"/>
<path d="M82.7556 37.7627H82.8223L82.889 39.0297L83.089 40.1633L83.5558 41.5637L84.2227 42.8307L84.8228 43.6309L85.5564 44.4312L86.2899 45.098L87.4235 45.8315L88.5572 46.365L89.9575 46.7651L90.8244 46.8985L92.2248 46.9652V47.0318H91.2912L91.2245 47.3653L90.6911 48.3655L90.2243 48.9657L89.6908 49.6325L89.0906 50.2994L88.5572 50.8329L87.6903 51.4997L86.8234 52.0999L85.7564 52.6334L84.356 53.1668L83.3558 53.4336L82.0221 53.5669H80.0882L78.4878 53.3669L77.0207 52.9001L75.9538 52.3666L76.4206 51.5664L76.754 50.8996L76.8207 50.2994L76.6873 49.0991L76.4206 48.4322V47.5653L76.6206 46.0983L77.0207 44.4978L77.4208 43.4309L78.4211 41.6304L79.0213 40.8302L79.7548 40.03L80.555 39.2298L81.4219 38.5629L82.6222 37.8294L82.7556 37.7627Z" fill="#5CC3CC"/>
<path d="M46.946 12.5566H47.2794L47.2127 13.0901L46.946 14.2904L46.7459 15.6908L46.6792 16.6911V17.9581L46.8126 19.4918L47.0793 21.1589L46.7459 21.2923L45.8123 21.8258L44.612 22.6927L43.7451 23.4262L42.9449 24.1598L42.0113 25.16L41.5445 25.7602L40.4776 27.3606L39.6774 28.8944L39.0105 30.5615L38.5437 32.2953L38.4103 33.0288H38.1436L37.6768 32.362L36.9433 31.0283L36.4098 29.7613L35.943 27.8941L35.743 26.427V24.5599L35.8763 23.4262L36.1431 22.2259L36.4765 20.9589L36.8099 20.2254L37.4768 18.8917L38.1436 17.8247L38.477 17.4913L39.0105 16.8245L40.2775 15.5574L41.011 15.024L41.2778 14.7572L42.1447 14.2238L43.2783 13.6236L44.2119 13.2235L45.879 12.7567L46.946 12.5566Z" fill="#723386"/>
<path d="M77.4875 0.0205078H79.288L80.6217 0.220562L82.4222 0.687353L83.4224 1.15415L84.6228 1.82099L85.6897 2.68789L86.3566 3.28805L86.89 3.82153L87.5569 4.68843L88.157 5.55533L88.6238 6.48891L89.1573 7.8226L89.4907 9.02292V9.75645L87.4902 9.35635L85.8898 9.22298H85.0896L83.9559 9.28966L82.6889 9.48972L81.2218 9.88982L79.9548 10.3566L78.6878 11.0235H78.5545L77.7542 9.35635L76.8873 7.95597L76.2205 7.08907L75.6203 6.35554L74.8201 5.48864L74.0199 4.75511L72.8863 3.88821L71.886 3.22137L71.1525 2.82126L71.0858 2.62121L72.2861 1.75431L73.8865 0.887407L74.5534 0.620669L76.0871 0.220562L77.4875 0.0205078Z" fill="#889D2F"/>
<path d="M60.2829 81.1758H65.8844L66.9514 81.4425L67.6849 81.8426L68.1517 82.3094L68.4851 82.9763L68.5518 83.243V84.3766L68.2851 85.0435L67.6849 85.7103L67.4848 85.9104L68.1517 86.3105L68.6185 86.7773L68.9519 87.4441L69.0186 87.7776V88.8445L68.8185 89.578L68.4184 90.1115L67.6849 90.645L66.6179 90.9784L66.2178 91.0451H60.2829V81.1758ZM62.1501 82.6428V85.3102H65.2843L65.9511 85.1102L66.4846 84.7101L66.6179 84.31V83.6431L66.4846 83.3097L66.0178 82.9096L65.4843 82.7095L65.0842 82.6428H62.1501ZM61.95 85.3769V86.7106L62.0834 86.7773V85.3769H61.95ZM62.2168 86.7773L62.1501 86.844V89.578H65.4176L66.3512 89.378L66.8847 89.0446L67.1514 88.5111V87.8442L66.9514 87.4441L66.4846 87.044L66.0845 86.844L65.751 86.7773H62.2168Z" fill="white"/>
<path d="M84.356 81.1758H89.6908L90.7577 81.4425L91.558 81.7759L92.3582 82.2427L92.9583 82.7762L93.5585 83.7098L93.8919 84.4433L94.092 85.2435V86.9773L93.8919 87.8442L93.2918 88.9779L92.825 89.578L91.9581 90.2449L90.8244 90.7784L89.6241 91.0451H84.356V81.1758ZM86.2232 82.7762V89.4447H89.0906L90.0242 89.2446L90.9578 88.7778L91.6246 88.111L92.0248 87.3774L92.1581 86.844V85.3769L91.8914 84.51L91.4246 83.9098L90.9578 83.4431L90.0242 82.9763L89.1573 82.7762H86.2232Z" fill="white"/>
<path d="M127.834 81.1758H129.435L130.302 82.2427L131.035 83.1763L131.969 84.31L132.436 84.8434L132.836 85.4436L133.169 85.777L133.903 86.6439L134.636 87.5775L134.77 87.6442V81.1758H136.57V91.0451H134.97L134.503 90.3783L134.169 90.0448L133.503 89.2446L132.969 88.5778L132.236 87.6442L131.369 86.5772L130.635 85.6436L130.168 85.1102L129.768 84.5767L129.702 91.0451H127.834V81.1758Z" fill="white"/>
<path d="M36.0097 81.1758H37.5435L38.077 81.7759L39.1439 83.1096V83.243L39.4107 83.3764L40.1442 84.31L40.8777 85.1769L41.5446 86.0438L42.4781 87.1774L42.8116 87.6442L42.8782 81.1758H44.7454V91.0451H43.145L42.6115 90.3783L41.878 89.4447L41.2778 88.7778L40.811 88.111L40.4776 87.7776L39.6107 86.7106L38.8772 85.777L38.0103 84.7101L37.9436 84.51H37.8102V91.0451H36.0097V81.1758Z" fill="white"/>
<path d="M95.7591 81.1758H103.028V82.7762H97.6929V85.2435H102.428V86.7773H97.6929V89.4447H103.228V91.0451H95.7591V81.1758Z" fill="white"/>
<path d="M27.2074 81.1758H34.4093V82.7762H29.0745V85.2435H33.8091V86.7773H29.0745V89.4447H34.6094V91.0451H27.2074V81.1758Z" fill="white"/>
<path d="M121.099 81.041H123.1L124.167 81.3078L125.234 81.8412L125.967 82.4414L126.101 82.7081L125.567 83.2416L125.034 83.7084L124.767 83.7751L124.3 83.375L123.5 82.9749L122.833 82.7748H121.499L120.632 83.0416L119.766 83.575L119.299 84.1085L118.899 84.7754L118.699 85.4422V86.7092L118.965 87.5761L119.365 88.1763L119.766 88.6431L120.366 89.0432L120.966 89.3099L121.566 89.4433H122.766L123.567 89.2432L124.1 88.9765L124.167 85.9757H125.901V89.9767L125.567 90.2435L124.433 90.8436L123.033 91.1771L122.366 91.2438H121.766L120.766 91.1104L119.899 90.8436L118.765 90.2435L117.965 89.51L117.432 88.7764L116.965 87.7762L116.765 86.9093V85.2421L116.965 84.4419L117.498 83.3083L118.032 82.6414L118.499 82.1747L119.365 81.6412L120.232 81.2411L121.099 81.041Z" fill="white"/>
<path d="M11.5365 81.1758H13.4037L13.9371 82.176L14.5373 83.5764L14.9374 84.4433L15.6043 85.9104L15.871 86.5772L16.3378 87.5108L16.8713 88.7111L17.5381 90.2449L17.8715 90.9117L17.8049 91.0451H15.8043L15.4042 89.9781L14.9374 88.9779L14.8707 88.8445L10.0028 88.7778L9.8027 89.5114L9.26923 90.645L9.06917 91.0451H7.13532L7.6688 89.7114L8.33564 88.311L8.86912 87.044L9.46928 85.777L10.2695 83.9765L10.9363 82.5762L11.2698 81.7093L11.5365 81.1758ZM12.4034 83.243L11.5365 85.2435L11.003 86.4439L10.7363 87.1107V87.3108H14.2706L14.1372 86.844L13.8038 86.1771L12.7368 83.6431L12.5368 83.243H12.4034Z" fill="white"/>
<path d="M107.029 81.041H109.096L110.296 81.3078L111.363 81.8412L111.43 82.0413L110.896 83.3083L110.763 83.375L109.629 82.9082L108.896 82.7081L108.362 82.6414H107.762L107.029 82.7748L106.429 83.1082L106.095 83.5083L106.029 84.1085L106.229 84.4419V84.5753L107.029 84.9754L109.296 85.5756L109.896 85.7089L110.43 85.9757L111.097 86.4425L111.563 86.9759L111.763 87.5761V88.8431L111.63 89.3766L111.163 90.1101L110.43 90.6436L109.696 90.977L108.896 91.1771L107.496 91.2438L106.362 91.1104L105.228 90.777L104.161 90.2435L103.895 90.0434L104.095 89.4433L104.561 88.5097L104.962 88.7764L105.495 89.0432L106.695 89.4433L107.696 89.5766L108.629 89.51L109.296 89.3099L109.563 89.1098H109.696L109.83 88.7764L109.896 88.1763L109.83 87.8428H109.696V87.7095H109.563L109.363 87.5094L108.496 87.176L107.162 86.8426L106.295 86.6425L105.228 86.109L104.695 85.7089L104.295 85.1088L104.095 84.3752V83.6417L104.361 82.7748L104.762 82.1747L105.295 81.7079L106.362 81.1744L107.029 81.041Z" fill="white"/>
<path d="M73.2197 19.4922H73.6198L73.6865 19.5589V23.8267L73.4864 27.6277L73.2864 29.8283L72.8863 32.8291L72.5529 34.8296L71.9527 37.7638L71.4192 39.6309L71.2858 39.7643L71.0858 35.6299V29.3615L71.2858 23.2265L71.3525 19.8256L72.6195 19.5589L73.2197 19.4922Z" fill="#879C2D"/>
<path d="M84.5561 24.0264H84.6894L85.423 24.96L85.9564 25.6935L86.6233 26.8938L87.2234 28.1608V28.4275L84.9562 29.4945L83.5558 30.2947L82.2221 31.1616L81.2885 31.8285L80.2216 32.6954L79.5547 33.2955L79.0212 33.7623L78.021 34.7626L77.4208 35.4961L77.0207 35.9629L76.954 35.7629L77.6209 34.2291L78.2877 32.8287L79.0879 31.3617L79.8881 30.028L80.8217 28.6276L81.6886 27.4273L82.4222 26.4937L83.1557 25.6268L83.7559 24.8933L84.2226 24.4265L84.5561 24.0264Z" fill="#879D2E"/>
<path d="M67.2181 21.4922L67.3515 21.6256L67.4181 25.0265L67.5515 28.3607V36.4962L67.3515 39.8304L67.2181 39.5637L66.6846 37.6965L66.0845 34.7624L65.6843 32.2951L65.4176 30.2945L65.0842 26.5602L65.0175 25.1598V23.226L65.751 22.5591L67.018 21.6256L67.2181 21.4922Z" fill="#879C2D"/>
<path d="M69.0853 81.1758H71.0858L71.686 82.1094L72.3528 83.1763L73.153 84.51L73.4865 84.9768L73.8866 85.7103V85.8437H74.0199L74.0866 85.577H74.22L74.3534 85.2435L75.1536 83.8432L75.7537 82.9096L76.0872 82.3094L76.8207 81.1758H78.6879L78.4211 81.7093L77.4209 83.3764L76.8874 84.2433L75.8204 86.0438L74.8868 87.5108L74.8202 91.0451H72.953L72.8863 87.5775L72.0194 86.0438L71.5526 85.3769L70.8191 84.1099L70.1522 83.0429L69.7521 82.3761L69.0853 81.3092V81.1758Z" fill="white"/>
<path d="M45.9457 81.1758H54.4146V82.7762H51.1471V91.0451H49.2799L49.2133 90.9784V82.7762H45.9457V81.1758Z" fill="white"/>
<path d="M5.53131e-05 81.1758H8.40231V82.7762H5.13477V91.0451H3.20091V82.7762H5.53131e-05V81.1758Z" fill="white"/>
<path d="M18.9385 81.1758H20.8056V89.4447H25.9403V91.0451H18.9385V81.1758Z" fill="white"/>
<path d="M113.164 81.1758H115.031L115.098 81.2425V90.9784L115.031 91.0451H113.164V81.1758Z" fill="white"/>
<path d="M77.7543 19.8916L78.8212 20.1583L79.6881 20.4918L81.2219 21.2253L81.4886 21.4253H81.3552L81.2219 21.6921L80.7551 22.1589L80.1549 22.8924L79.5548 23.5593L78.8879 24.4262L78.021 25.5598L77.7543 25.9599H77.6876L77.7543 23.0258V19.8916Z" fill="#879C2D"/>
<path d="M87.6903 94.7793H88.157L88.8239 95.5795L89.2907 96.113L90.2243 97.3133L91.2912 98.647L91.3579 94.846L91.4246 94.7793H91.9581L92.0247 94.846V99.914H91.4246L90.6911 98.9804L90.0909 98.1802L89.7575 97.8468L89.4907 97.4467L89.424 97.2466L89.1573 97.1133L88.3571 96.0463L88.2904 99.914H87.6236V94.846L87.6903 94.7793Z" fill="white"/>
<path d="M44.1452 94.7793H45.679L46.3458 95.046L46.8793 95.4461L47.2794 95.9129L47.5461 96.5131L47.6128 96.7798V97.9802L47.3461 98.647L46.946 99.1805L46.4792 99.5806L45.7457 99.914L45.4122 99.9807H44.4787L43.6118 99.714L43.0116 99.3138L42.5448 98.7804L42.2781 98.1802L42.2114 97.9135V96.7798L42.4114 96.1797L42.8782 95.5795L43.4117 95.1127L43.8785 94.846L44.1452 94.7793ZM44.412 95.3128L43.8118 95.5795L43.345 95.9129L42.9449 96.5798L42.8115 97.0466V97.7134L43.0116 98.3136L43.4117 98.9137L43.8785 99.2472L44.2119 99.3805H45.6123L46.1458 99.1138L46.5459 98.7804L46.8793 98.2469L47.0127 97.6467V97.0466L46.8126 96.313L46.3458 95.7796L45.679 95.3795L45.4789 95.3128H44.412Z" fill="white"/>
<path d="M78.5545 94.7793H82.0888V95.3128H79.1546V97.1133H81.7553V97.58H79.1546V99.3805H82.1554L82.2221 99.4472V99.914H78.4878V94.846L78.5545 94.7793Z" fill="white"/>
<path d="M57.2154 94.7793H60.7497L60.8164 94.9127L60.7497 95.3128H57.8155V97.1133H60.4829V97.58H57.8155V99.3805H60.8164V99.914H57.2154V94.7793Z" fill="white"/>
<path d="M94.9589 94.7793H96.5593L97.4929 95.2461L97.6929 95.4461L97.5595 95.7129L97.3595 95.9129L97.0928 95.7796L96.5593 95.4461L96.2925 95.3795H95.2923L94.6254 95.6462L94.092 96.113L93.7585 96.8465L93.6918 97.4467L93.8252 98.1135L94.292 98.7804L94.6254 99.1138L95.0922 99.3138H96.4259L96.9594 99.0471L97.2261 98.8471L97.4929 98.9804L97.6929 99.2472L97.1594 99.6473L96.5593 99.914L96.2259 99.9807H95.2923L94.4254 99.714L93.7585 99.2472L93.3584 98.7137L93.1584 98.3136L93.0917 97.8468V96.8465L93.2251 96.313L93.6252 95.6462L94.1586 95.1794L94.9589 94.7793Z" fill="white"/>
<path d="M39.2106 94.7793H40.7443L41.4112 95.046L41.878 95.4461L41.7446 95.7129L41.4779 95.9129L41.1444 95.6462L40.5443 95.3795H39.4773L38.8105 95.6462L38.3437 96.0463L38.0103 96.7131L37.9436 96.9132V97.8468L38.277 98.5136L38.6771 98.9804L39.2773 99.3138H40.6776L41.3445 98.9137H41.6112L41.878 99.1805L41.8113 99.3805L41.0111 99.8473L40.4776 99.9807H39.4773L38.6104 99.714L37.9436 99.2472L37.5435 98.647L37.3434 98.0468L37.2767 97.6467V96.9799L37.5435 96.113L37.9436 95.5128L38.6771 94.9794L39.2106 94.7793Z" fill="white"/>
<path d="M42.2781 68.7051H44.7454V71.3058H42.2781L42.2114 71.2391V68.7718L42.2781 68.7051Z" fill="white"/>
<path d="M63.3504 94.7793H64.8842L65.6844 95.1794L66.0178 95.4461L65.8844 95.7129L65.6177 95.9129L65.0175 95.5128L64.6174 95.3795H63.6171L62.9503 95.6462L62.4168 96.113L62.1501 96.6465L62.0167 97.2466L62.0834 97.9135L62.4168 98.5803L63.017 99.1138L63.4838 99.3138H64.8175L65.2176 99.1138L65.551 98.8471L65.8177 98.9804L66.0178 99.2472L65.551 99.6473L64.8842 99.914L64.5507 99.9807H63.6171L62.9503 99.7806L62.2835 99.3805L61.8167 98.8471L61.4832 98.1802L61.4166 97.8468V96.9132L61.6166 96.2464L61.95 95.6462L62.5502 95.1127L63.3504 94.7793Z" fill="white"/>
<path d="M80.3549 31.0957H81.7553L82.1554 31.1624L81.822 31.4291L80.9551 32.096L80.2216 32.6961L79.5547 33.2963L79.0212 33.7631L78.021 34.7634L77.4208 35.4969L77.0207 35.9637L76.954 35.7636L77.6209 34.2299L78.2877 32.8295L79.0879 31.3624L79.2213 31.2291L80.3549 31.0957Z" fill="#5BC3CC"/>
<path d="M72.7529 94.7793H73.2864L73.4864 95.046L73.7532 95.7129L74.6201 97.58L75.0869 98.7137L75.2202 99.0471L75.687 98.1135L76.0205 97.3133L76.8207 95.5795L77.0874 94.9127L77.2208 94.7793H77.7543L77.6876 95.1794L77.0207 96.5798L76.6873 97.4467L76.0205 98.8471L75.6204 99.8473L75.5537 99.914H74.8868L74.22 98.3136L73.7532 97.38L73.2197 96.113L72.6862 94.9127L72.7529 94.7793Z" fill="white"/>
<path d="M68.9519 73.1729H71.2859V75.5735H68.8852V73.2395L68.9519 73.1729Z" fill="white"/>
<path d="M66.4179 94.7793H70.5523V95.3128H68.8185V99.914H68.1517V95.3128H66.4179V94.7793Z" fill="white"/>
<path d="M53.0143 94.7793H53.4811L53.5477 94.846V99.3805H56.4152V99.914H52.9476V94.846L53.0143 94.7793Z" fill="white"/>
<path d="M48.7465 94.7793H49.2799V99.3805H52.0807L52.1474 99.4472V99.914H48.7465V94.7793Z" fill="white"/>
<path d="M82.889 72.0391H84.7561V73.9729H82.889L82.8223 73.9062V72.1057L82.889 72.0391Z" fill="white"/>
<path d="M93.6252 70.3057H95.4924V72.2395H93.6252V70.3057Z" fill="white"/>
<path d="M92.3582 67.6377H94.292V69.5049H92.3582V67.6377Z" fill="white"/>
<path d="M71.3525 94.7793H71.886L71.9527 94.846V99.914H71.2859V94.846L71.3525 94.7793Z" fill="white"/>
<path d="M85.6897 94.7793H86.2232V99.914H85.6897V94.7793Z" fill="white"/>
<path d="M72.8863 79.1748H74.42V80.7085H72.8863V79.1748Z" fill="white"/>
<path d="M32.4754 65.7715H33.8091V66.305L35.743 66.2383H38.2103V66.305L36.5432 66.3716H35.2762V66.505H34.5426L33.8091 66.4383V67.1052H32.4754V65.7715Z" fill="white"/>
<path d="M72.3528 35.2295L72.4195 35.4962L71.9527 37.7635L71.4192 39.6307L71.2858 39.764L71.1525 37.03L71.6859 36.0964L72.3528 35.2295Z" fill="#5BC3CC"/>
<path d="M78.6879 77.1074H80.1549V78.5745L80.0882 78.6412H78.6879V77.1074Z" fill="white"/>
<path d="M68.9519 77.8398H70.3523V79.3069H68.8852V77.9065L68.9519 77.8398Z" fill="white"/>
<path d="M92.3582 74.2393H93.6918V75.5729H92.3582V74.2393Z" fill="white"/>
<path d="M97.0928 67.9717H98.4265V69.3054H97.0928V67.9717Z" fill="white"/>
<path d="M96.4926 73.1729H97.7596L97.8263 73.2395V74.5065H96.4926V73.1729Z" fill="white"/>
<path d="M34.2093 67.3037H35.4763V68.6374H34.1426V67.3704L34.2093 67.3037Z" fill="white"/>
<path d="M85.4897 75.3066H86.3566V76.3069H85.423V75.3733L85.4897 75.3066Z" fill="white"/>
<path d="M59.416 33.4961L60.8164 33.7628L60.9497 35.0965L60.483 34.6964L60.0162 34.1629L59.416 33.5628V33.4961Z" fill="#007AC7"/>
<path d="M65.0175 74.4395H65.9511V75.373H65.0175V74.4395Z" fill="white"/>
<path d="M98.5598 69.9053H99.4267V70.7055H98.5598V69.9053Z" fill="white"/>
<path d="M103.294 67.3721H104.095V68.239H103.294V67.3721Z" fill="white"/>
<path d="M32.4754 65.7715H33.8091V66.305L35.743 66.2383H38.2103V66.305L36.5432 66.3716H35.2762V66.505H34.5426L33.8091 66.4383L33.7424 66.3716V65.8382H32.4754V65.7715Z" fill="#749ABA"/>
<path d="M98.7599 99.1133L99.16 99.18L99.2934 99.38L99.2267 99.7801L99.0267 99.9802H98.6932L98.4932 99.7801L98.4265 99.4467L98.7599 99.1133Z" fill="white"/>
<path d="M60.8164 33.9629L60.9497 34.0296L61.75 35.8301L61.6833 36.0301L60.9497 35.1632L60.8164 34.363V33.9629Z" fill="#879D2E"/>
<path d="M62.5502 95.1113L62.6836 95.178L61.8834 95.9782L61.8167 95.8449L62.2835 95.3114L62.5502 95.1113Z" fill="#80889D"/>
<path d="M38.3437 95.1777L38.477 95.2444L37.7435 95.9779V95.7779L38.0769 95.3778L38.3437 95.1777Z" fill="#74839B"/>
</g>
<defs>
<clipPath id="clip0_607_2828">
<rect width="136.57" height="100" fill="white"/>
</clipPath>
</defs>
</svg>
