<svg width="68" height="68" viewBox="0 0 68 68" fill="none" xmlns="http://www.w3.org/2000/svg">
<path d="M44.7813 32.0789V45.9311C44.7815 47.3926 44.336 48.8195 43.5043 50.0213C42.6725 51.2232 41.494 52.1427 40.1261 52.6574L35.2188 54.5047C35.0012 54.5868 34.767 54.6149 34.5362 54.5865C34.3054 54.5581 34.085 54.4741 33.8938 54.3418C33.7027 54.2094 33.5465 54.0326 33.4387 53.8266C33.3309 53.6205 33.2748 53.3914 33.2751 53.1589V36.2836L23.6644 39.7941C23.1122 39.9976 22.6358 40.3656 22.2994 40.8484C21.9629 41.3313 21.7827 41.9057 21.7831 42.4942V65.1212C21.7831 67.1187 23.7664 68.5071 25.6449 67.8214L54.4344 57.3012C55.8184 56.7962 57.0136 55.8778 57.858 54.6705C58.7024 53.4632 59.1551 52.0255 59.1548 50.5522V21.8052C59.1537 23.2778 58.7004 24.7146 57.8562 25.9211C57.0119 27.1277 55.8175 28.0458 54.4344 28.5514L44.7813 32.0789ZM44.7813 30.5716V26.4151C44.7812 24.9524 44.3351 23.5246 43.5023 22.3222C42.6694 21.1199 41.4897 20.2002 40.1204 19.6859L35.2244 17.8442C35.0069 17.7628 34.7728 17.7353 34.5423 17.764C34.3118 17.7927 34.0917 17.8767 33.9007 18.009C33.7097 18.1412 33.5536 18.3177 33.4457 18.5234C33.3377 18.729 33.2811 18.9578 33.2808 19.1901V32.1951C33.2808 34.1812 31.3116 35.5696 29.4416 34.9037L10.7529 28.2284C10.1941 28.0291 9.71057 27.6618 9.36868 27.1768C9.02679 26.6919 8.84326 26.1131 8.84326 25.5197V2.87573C8.84326 0.889568 10.8124 -0.498765 12.6853 0.169901L54.3863 15.0619C55.5562 15.48 56.5979 16.1941 57.4098 17.1345C58.2216 18.075 58.776 19.2098 59.0188 20.4282C58.6334 22.8677 56.0438 26.4576 53.9471 27.2226L44.7813 30.5716Z" fill="white"/>
</svg>
