<svg width="68" height="68" viewBox="0 0 68 68" fill="none" xmlns="http://www.w3.org/2000/svg">
<path d="M47.0674 12.5233C46.7066 11.2864 45.9542 10.2001 44.9231 9.42756C43.892 8.65503 42.6381 8.23803 41.3497 8.23926H39.61C38.2144 8.23876 36.8627 8.7275 35.7901 9.62047C34.7175 10.5134 33.9919 11.7541 33.7394 13.1268L30.7559 29.3788L31.4982 26.8458C31.859 25.608 32.6111 24.5205 33.6419 23.7461C34.6727 22.9717 35.9266 22.5522 37.2159 22.5504H47.3309L51.578 24.1994L55.6722 22.5504H54.4737C53.1853 22.5517 51.9314 22.1347 50.9003 21.3621C49.8692 20.5896 49.1168 19.5033 48.756 18.2664L47.0674 12.5233ZM21.5475 55.4653C21.9069 56.7075 22.6603 57.7992 23.6941 58.576C24.728 59.3528 25.9862 59.7725 27.2794 59.7719H30.9825C32.5378 59.7746 34.0323 59.1682 35.146 58.0826C36.2597 56.9969 36.904 55.5184 36.941 53.9636L37.3434 38.2953L36.499 41.1654C36.1383 42.4023 35.3858 43.4886 34.3548 44.2611C33.3237 45.0337 32.0698 45.4507 30.7814 45.4494H20.5757L16.9377 43.4718L12.9937 45.4494H14.1639C16.8244 45.4494 19.1534 47.2004 19.8957 49.7561L21.5475 55.4653Z" fill="white"/>
<path d="M41.0981 8.22512H20.4403C14.53 8.22512 10.9911 16.0225 8.63663 23.834C5.82596 33.0791 2.15963 45.4523 12.7535 45.4523H21.6756C22.9728 45.4525 24.2349 45.0309 25.2714 44.251C26.3079 43.471 27.0626 42.3751 27.4216 41.1286C29.525 33.7503 31.6623 26.3817 33.8335 19.023C34.9158 15.3566 35.8225 12.2201 37.208 10.2538C37.6376 9.61919 38.2184 9.10149 38.898 8.74734C39.5776 8.39318 40.3319 8.21372 41.0981 8.22512Z" fill="white"/>
<path d="M41.0981 8.22512H20.4403C14.53 8.22512 10.9911 16.0225 8.63663 23.834C5.82596 33.0791 2.15963 45.4523 12.7535 45.4523H21.6756C22.9728 45.4526 24.2349 45.0309 25.2714 44.251C26.3079 43.471 27.0626 42.3751 27.4216 41.1286C29.525 33.7503 31.6623 26.3817 33.8335 19.023C34.9158 15.3566 35.8225 12.2201 37.208 10.2538C37.6376 9.61919 38.2184 9.10149 38.898 8.74734C39.5776 8.39318 40.3319 8.21372 41.0981 8.22512ZM26.9145 59.7748H47.5751C53.4826 59.7748 57.0215 51.9633 59.376 44.166C62.1753 34.9208 65.8388 22.5505 55.245 22.5505H46.3256C43.6566 22.5505 41.3106 24.3128 40.5825 26.8855C38.4807 34.2643 36.3434 41.6329 34.1706 48.9911C33.0883 52.6575 32.1788 55.8081 30.7933 57.7603C30.3652 58.3921 29.7863 58.9071 29.1091 59.2589C28.4318 59.6106 27.6775 59.7879 26.9145 59.7748Z" fill="white"/>
<path d="M26.9141 59.7746H47.5748C53.4823 59.7746 57.0211 51.9631 59.3756 44.1658C62.175 34.9206 65.8385 22.5503 55.2446 22.5503H46.3253C43.6563 22.5503 41.3103 24.3126 40.5821 26.8853C38.4804 34.2641 36.3431 41.6327 34.1703 48.991C33.088 52.6573 32.1785 55.808 30.793 57.7601C30.3649 58.3919 29.786 58.907 29.1087 59.2587C28.4315 59.6104 27.6772 59.7878 26.9141 59.7746Z" fill="white"/>
</svg>
