<svg width="68" height="68" viewBox="0 0 68 68" fill="none" xmlns="http://www.w3.org/2000/svg">
<path d="M33.9999 62.3332C49.648 62.3332 62.3332 49.6479 62.3332 33.9998C62.3332 18.3518 49.648 5.6665 33.9999 5.6665C18.3518 5.6665 5.66656 18.3518 5.66656 33.9998C5.66656 49.6479 18.3518 62.3332 33.9999 62.3332Z" fill="white"/>
<path d="M46.7732 26.209C46.3269 26.2089 45.8918 26.0683 45.5299 25.8071C45.168 25.5458 44.8975 25.1772 44.7568 24.7536C44.0043 22.4958 42.5605 20.532 40.6298 19.1404C38.6992 17.7488 36.3796 17 33.9997 17C31.6198 17 29.3002 17.7488 27.3696 19.1404C25.4389 20.532 23.9951 22.4958 23.2426 24.7536C23.1548 25.0186 23.0155 25.2638 22.8329 25.4749C22.6503 25.6861 22.4279 25.8593 22.1783 25.9845C21.9287 26.1096 21.6569 26.1844 21.3785 26.2045C21.1 26.2246 20.8203 26.1896 20.5553 26.1015C20.2904 26.0134 20.0454 25.874 19.8343 25.6912C19.6233 25.5084 19.4504 25.2858 19.3254 25.0361C19.2004 24.7864 19.1259 24.5146 19.1061 24.2361C19.0862 23.9576 19.1215 23.6779 19.2098 23.413C20.2438 20.3082 22.2287 17.6075 24.8832 15.6937C27.5377 13.7799 30.7272 12.75 33.9997 12.75C37.2722 12.75 40.4617 13.7799 43.1162 15.6937C45.7707 17.6075 47.7556 20.3082 48.7896 23.413C48.8954 23.7324 48.924 24.0724 48.8729 24.405C48.8218 24.7375 48.6925 25.0532 48.4957 25.3261C48.2989 25.599 48.0401 25.8214 47.7407 25.9748C47.4413 26.1283 47.1097 26.2086 46.7732 26.209Z" fill="#448CD2"/>
<path d="M18.6913 32.3202C18.7702 32.1956 18.8775 32.0914 19.0045 32.0163C19.1314 31.9412 19.2744 31.8973 19.4216 31.8881C20.3511 31.8792 21.2834 31.8587 22.2123 31.9017C22.4346 31.9235 22.6425 32.0219 22.8003 32.18C22.9582 32.3381 23.0562 32.5461 23.0777 32.7685C23.9915 36.4848 24.8891 40.2064 25.7988 43.9239C26.0657 45.0719 26.3905 46.2082 26.5646 47.376C26.7441 48.425 26.7796 49.4896 26.9502 50.5407C27.148 49.034 27.4317 47.5399 27.7999 46.0656C28.9895 41.6287 30.1793 37.1925 31.3693 32.757C31.4218 32.5113 31.5572 32.2912 31.7529 32.1336C31.9485 31.976 32.1924 31.8905 32.4436 31.8916C33.4782 31.8655 34.5149 31.8834 35.5496 31.8834C35.8302 31.8597 36.1105 31.9327 36.3438 32.0904C36.5771 32.2481 36.7494 32.4809 36.832 32.7502C37.7206 35.9845 38.6045 39.2218 39.4835 42.4621C40.1143 44.535 40.6299 46.6412 41.028 48.771C41.1119 49.3634 41.1938 49.9572 41.316 50.5455C41.7645 47.1858 42.4051 43.8545 43.2346 40.5681C43.825 37.9351 44.4022 35.2993 44.9994 32.6661C45.066 32.4219 45.2173 32.2093 45.4263 32.0664C45.6352 31.9234 45.8882 31.8595 46.14 31.886C46.9767 31.8813 47.8148 31.8573 48.6502 31.8998C48.7642 31.9098 48.8742 31.9466 48.9713 32.0071C49.0684 32.0677 49.1498 32.1503 49.209 32.2483C49.2681 32.3463 49.3032 32.4568 49.3115 32.571C49.3198 32.6851 49.3011 32.7996 49.2568 32.9051C47.5779 39.1001 45.9008 45.2965 44.2255 51.4942C44.1818 51.7383 44.0557 51.9601 43.8683 52.1225C43.6809 52.285 43.4435 52.3783 43.1956 52.3869C41.8988 52.4292 40.5994 52.3971 39.3027 52.4039C39.0725 52.4348 38.8391 52.3793 38.6474 52.2483C38.4556 52.1172 38.3193 51.9198 38.2645 51.6941C37.1037 47.434 35.9659 43.1663 34.8159 38.9028C34.4422 37.4101 34.1881 35.8899 34.0563 34.3567C33.9034 35.7258 33.676 37.0855 33.3752 38.4299C32.1979 42.8197 31.0174 47.2104 29.8337 51.602C29.7006 52.3131 28.8878 52.4551 28.2831 52.4087C27.0771 52.3868 25.8711 52.4367 24.6665 52.3868C24.4627 52.3809 24.2673 52.3038 24.1144 52.1689C23.9614 52.0341 23.8605 51.8499 23.8291 51.6484C22.1365 45.478 20.4453 39.3071 18.7554 33.1357C18.7113 32.8661 18.6899 32.5933 18.6913 32.3202Z" fill="#448CD2"/>
</svg>
