<svg width="68" height="68" viewBox="0 0 68 68" fill="none" xmlns="http://www.w3.org/2000/svg">
<path d="M27.3767 44.2C23.5823 41.9016 21.2159 37.7128 21.2159 33.2656V12.104C21.2159 9.88719 21.7463 7.76559 22.7255 5.88879L10.2543 13.4368C6.4463 15.7352 4.0799 19.924 4.0799 24.3712V43.6152C4.0799 45.7776 4.65109 47.8856 5.6575 49.7352C6.5959 51.2584 7.9287 52.5368 9.5743 53.4616C13.0151 55.3928 17.0679 55.3112 20.4271 53.2576L31.3343 46.5936L27.3767 44.2ZM58.2623 36.9104L46.7839 30.0424V33.1568C46.7839 37.5768 44.4447 41.7656 40.6775 44.064L21.8551 55.5832C19.7879 56.848 17.5167 57.5144 15.2319 57.5688L27.3767 64.9264C29.4167 66.164 31.7151 66.776 33.9999 66.776C36.2847 66.776 38.5831 66.164 40.6231 64.9264L52.9719 57.4464L57.7591 54.5496C58.1263 54.332 58.4799 54.0872 58.8199 53.8152C58.9287 53.7472 59.0375 53.6656 59.1327 53.5976C60.0167 52.8768 60.8055 52.0608 61.4583 51.1632C61.4855 51.1224 61.5127 51.0816 61.5399 51.0408C62.5871 49.4224 63.1719 47.5184 63.1583 45.5192C63.1447 41.956 61.3223 38.7328 58.2623 36.9104ZM57.7455 13.4368L44.7303 5.56239L40.6231 3.07359C40.0519 2.71999 39.4535 2.43439 38.8415 2.18959C38.1751 1.90399 37.4815 1.68639 36.7879 1.55039C34.2855 1.03359 31.6743 1.44159 29.3623 2.76079C25.9623 4.70559 23.9359 8.18719 23.9359 12.104V25.16L27.7439 22.916C31.6063 20.6448 36.3935 20.6584 40.2423 22.9568L59.6631 34.5712C61.4175 35.632 62.8591 37.0328 63.9063 38.6784L63.9199 24.3712C63.9199 19.924 61.5535 15.7352 57.7455 13.4368Z" fill="white"/>
</svg>
