<svg width="123" height="56" viewBox="0 0 123 56" fill="none" xmlns="http://www.w3.org/2000/svg">
<g clip-path="url(#clip0_187_136)">
<path d="M77 27.825C76.9862 32.0443 75.3039 36.0869 72.3204 39.0704C69.3369 42.0539 65.2943 43.7362 61.075 43.75H54.95V36.75H61.075C63.4421 36.75 65.7122 35.8097 67.3859 34.1359C69.0597 32.4622 70 30.1921 70 27.825C70 25.4579 69.0597 23.1878 67.3859 21.5141C65.7122 19.8403 63.4421 18.9 61.075 18.9H54.95V11.9H61.075C65.2943 11.9138 69.3369 13.5961 72.3204 16.5796C75.3039 19.5631 76.9862 23.6057 77 27.825ZM43.05 11.9V24.85H32.025L28 31.85H50.05V11.9H43.05ZM122.5 21.875C122.5 27.6766 120.195 33.2406 116.093 37.343C111.991 41.4453 106.427 43.75 100.625 43.75V55.65H81.725V46.375C79.1243 49.3268 75.9179 51.6833 72.3241 53.2839C68.7304 54.8844 64.8338 55.6915 60.9 55.65H43.05V43.75H29.05L22.05 55.65H0L32.375 0H61.075C64.997 0.0331796 68.8702 0.873835 72.453 2.46957C76.0359 4.0653 79.2517 6.38191 81.9 9.275V0H100.8C106.574 0.0370066 112.099 2.35913 116.165 6.45848C120.232 10.5578 122.509 16.1008 122.5 21.875ZM61.075 48.65C65.0288 48.6597 68.9042 47.5465 72.2501 45.4398C75.5959 43.3331 78.2748 40.3196 79.975 36.75H88.9V48.65H93.8V36.75H100.8C102.754 36.7523 104.689 36.3691 106.495 35.6224C108.301 34.8757 109.942 33.7801 111.323 32.3983C112.705 31.0166 113.801 29.3759 114.547 27.5701C115.294 25.7644 115.677 23.8291 115.675 21.875C115.638 17.911 114.035 14.1225 111.216 11.3358C108.396 8.5492 104.589 6.99059 100.625 7H88.725V24.85H81.725C80.9744 19.9022 78.4816 15.3851 74.6956 12.1125C70.9096 8.83983 66.0793 7.0268 61.075 7H36.575L12.25 48.65H18.025L25.025 36.75H50.05V48.65H61.075ZM100.625 11.9H93.625V18.9H100.625C101.016 18.8977 101.404 18.973 101.766 19.1217C102.128 19.2704 102.457 19.4895 102.734 19.7662C103.011 20.0429 103.23 20.3718 103.378 20.7338C103.527 21.0958 103.602 21.4837 103.6 21.875C103.578 22.6571 103.257 23.401 102.704 23.9542C102.151 24.5074 101.407 24.828 100.625 24.85H93.625V31.85H100.625C103.271 31.85 105.808 30.7991 107.678 28.9284C109.549 27.0577 110.6 24.5205 110.6 21.875C110.573 19.2379 109.513 16.7166 107.648 14.8518C105.783 12.987 103.262 11.9273 100.625 11.9Z" fill="white"/>
<path d="M110.425 52.1499C110.425 52.7037 110.261 53.245 109.953 53.7055C109.645 54.166 109.208 54.5248 108.697 54.7368C108.185 54.9487 107.622 55.0041 107.079 54.8961C106.536 54.7881 106.037 54.5214 105.645 54.1298C105.254 53.7382 104.987 53.2393 104.879 52.6962C104.771 52.153 104.826 51.59 105.038 51.0784C105.25 50.5668 105.609 50.1295 106.069 49.8218C106.53 49.5141 107.071 49.3499 107.625 49.3499C107.994 49.3452 108.36 49.4144 108.702 49.5535C109.044 49.6925 109.354 49.8986 109.615 50.1595C109.876 50.4205 110.082 50.731 110.221 51.0729C110.36 51.4147 110.43 51.7809 110.425 52.1499ZM111.125 52.1499C111.125 51.4577 110.92 50.781 110.535 50.2054C110.151 49.6298 109.604 49.1812 108.964 48.9163C108.325 48.6514 107.621 48.5821 106.942 48.7172C106.263 48.8522 105.64 49.1855 105.15 49.675C104.661 50.1645 104.327 50.7882 104.192 51.4671C104.057 52.146 104.127 52.8498 104.391 53.4893C104.656 54.1288 105.105 54.6755 105.681 55.06C106.256 55.4446 106.933 55.6499 107.625 55.6499C108.553 55.6499 109.444 55.2812 110.1 54.6248C110.756 53.9684 111.125 53.0782 111.125 52.1499Z" fill="white"/>
<path d="M107.799 50.5748C107.985 50.5748 108.163 50.6486 108.294 50.7798C108.425 50.9111 108.499 51.0892 108.499 51.2748C108.499 51.4605 108.425 51.6385 108.294 51.7698C108.163 51.9011 107.985 51.9748 107.799 51.9748H107.099V50.5748H107.799ZM108.674 50.3998C108.435 50.1802 108.124 50.0558 107.799 50.0498H106.399V54.2498H106.924V52.6748H107.624L108.499 54.2498H109.199L108.149 52.4998C108.324 52.4998 108.499 52.3248 108.674 52.1498C108.813 51.9445 108.875 51.6965 108.849 51.4498C108.924 51.2765 108.948 51.0853 108.917 50.899C108.885 50.7127 108.801 50.5394 108.674 50.3998Z" fill="white"/>
</g>
<defs>
<clipPath id="clip0_187_136">
<rect width="122.5" height="56" fill="white"/>
</clipPath>
</defs>
</svg>
