<svg width="89" height="62" viewBox="0 0 89 62" fill="none" xmlns="http://www.w3.org/2000/svg">
<g clip-path="url(#clip0_187_140)">
<mask id="mask0_187_140" style="mask-type:luminance" maskUnits="userSpaceOnUse" x="0" y="0" width="89" height="62">
<path d="M0.0216064 0.162109H88.3148V61.8375H0.0216064V0.162109Z" fill="white"/>
</mask>
<g mask="url(#mask0_187_140)">
<path fill-rule="evenodd" clip-rule="evenodd" d="M36.6819 6.91415C39.5319 3.94724 43.4986 2.10996 47.8808 2.10996C53.7238 2.10996 58.7876 5.35604 61.5143 10.1927C63.9347 9.11069 66.5563 8.55208 69.2075 8.55342C79.7248 8.55342 88.262 17.1555 88.262 27.7702C88.262 38.3848 79.7248 46.9869 69.2075 46.9869C67.9221 46.9869 66.6691 46.8577 65.4421 46.6136C63.0562 50.866 58.4955 53.755 53.3018 53.755C51.1872 53.7592 49.0998 53.2795 47.1992 52.3527C44.7808 58.0333 39.1489 62.026 32.5918 62.026C25.7426 62.026 19.9321 57.7087 17.6923 51.6386C16.6955 51.8489 15.6793 51.9547 14.6605 51.9541C6.51287 51.9541 -0.0766602 45.2672 -0.0766602 37.0546C-0.0766602 31.5363 2.89025 26.7321 7.29193 24.1352C6.35811 21.984 5.87744 19.6636 5.87988 17.3185C5.87988 7.83993 13.5731 0.179199 23.0516 0.179199C28.6024 0.179199 33.5689 2.82475 36.6851 6.93103" fill="white"/>
</g>
<path fill-rule="evenodd" clip-rule="evenodd" d="M12.7907 32.2334C12.7352 32.3782 12.8105 32.4084 12.8284 32.434C12.9942 32.5541 13.1627 32.6411 13.3315 32.7388C14.2339 33.216 15.0844 33.3556 15.9738 33.3556C17.7851 33.3556 18.9115 32.3915 18.9115 30.8399V30.8094C18.9115 29.3746 17.639 28.852 16.451 28.4787L16.2955 28.4284C15.3963 28.1369 14.6205 27.883 14.6205 27.2923V27.2621C14.6205 26.7557 15.075 26.3824 15.7761 26.3824C16.5552 26.3824 17.4836 26.6417 18.0776 26.9699C18.0776 26.9699 18.2535 27.0835 18.3175 26.9138C18.3522 26.8219 18.6551 26.0114 18.6875 25.9205C18.7219 25.8254 18.6616 25.7536 18.5996 25.7166C17.9179 25.3011 16.9765 25.0187 16.0027 25.0187L15.8219 25.0194C14.1631 25.0194 13.0043 26.0224 13.0043 27.4572V27.488C13.0043 29.0007 14.2833 29.4941 15.4778 29.8349L15.67 29.8946C16.5399 30.1621 17.293 30.3945 17.293 31.0048V31.0353C17.293 31.5969 16.8029 32.0156 16.0173 32.0156C15.7118 32.0156 14.7383 32.0104 13.6834 31.3437C13.5558 31.2693 13.4831 31.2158 13.3847 31.1557C13.3328 31.1242 13.203 31.0674 13.1465 31.2375L12.7894 32.2308M39.3098 32.2308C39.2543 32.3756 39.3296 32.4058 39.3481 32.4314C39.5134 32.5515 39.6825 32.6385 39.8513 32.7362C40.7537 33.2134 41.6042 33.353 42.4936 33.353C44.3049 33.353 45.4313 32.3889 45.4313 30.8373V30.8068C45.4313 29.372 44.1621 28.8494 42.9707 28.4761L42.8153 28.4258C41.9161 28.1343 41.1403 27.8804 41.1403 27.2897V27.2595C41.1403 26.7531 41.5947 26.3798 42.2959 26.3798C43.0749 26.3798 44.0001 26.6392 44.5973 26.9673C44.5973 26.9673 44.7733 27.0809 44.8376 26.9112C44.872 26.8193 45.1752 26.0088 45.2044 25.9179C45.2391 25.8228 45.1784 25.751 45.1167 25.714C44.435 25.2985 43.4937 25.0161 42.5199 25.0161L42.3387 25.0168C40.68 25.0168 39.5211 26.0198 39.5211 27.4546V27.4854C39.5211 28.9981 40.8001 29.4915 41.9947 29.8323L42.1865 29.892C43.0597 30.1595 43.8095 30.3919 43.8095 31.0022V31.0327C43.8095 31.5943 43.3194 32.013 42.5338 32.013C42.2277 32.013 41.2516 32.0078 40.1999 31.3411C40.0723 31.2668 39.9977 31.2155 39.9009 31.1531C39.8681 31.1324 39.7153 31.0726 39.663 31.2349L39.3059 32.2282M57.419 29.1899C57.419 30.0664 57.2554 30.7578 56.9354 31.2479C56.6159 31.7316 56.1336 31.9686 55.4616 31.9686C54.7897 31.9686 54.3093 31.7335 53.9944 31.2512C53.6773 30.7643 53.5172 30.0696 53.5172 29.1932C53.5172 28.3167 53.6782 27.6286 53.9944 27.1449C54.3086 26.6645 54.7865 26.434 55.4616 26.434C56.1368 26.434 56.6172 26.6667 56.9354 27.1449C57.2574 27.6286 57.419 28.3167 57.419 29.1932M58.9317 27.5669C58.7827 27.0637 58.5519 26.6223 58.2435 26.2522C57.9348 25.8822 57.5456 25.5835 57.0814 25.3693C56.6205 25.1534 56.0751 25.0447 55.4584 25.0447C54.8416 25.0447 54.2995 25.1541 53.8354 25.3693C53.3744 25.5848 52.9816 25.8822 52.6733 26.2522C52.3655 26.6223 52.1344 27.0637 51.9851 27.5669C51.8374 28.0668 51.7624 28.6121 51.7624 29.1932C51.7624 29.7742 51.8374 30.3195 51.9851 30.8194C52.1334 31.3226 52.3649 31.7641 52.6733 32.1341C52.982 32.5042 53.3744 32.7995 53.8354 33.0105C54.2995 33.2209 54.8449 33.328 55.4584 33.328C56.0719 33.328 56.6172 33.2209 57.0782 33.0105C57.5391 32.8002 57.9319 32.5042 58.2403 32.1341C58.5483 31.7641 58.7791 31.3226 58.9284 30.8194C59.0758 30.3195 59.1508 29.7742 59.1508 29.1932C59.1508 28.6154 59.0758 28.0668 58.9284 27.5669M71.3609 31.7219C71.3112 31.5748 71.1678 31.6303 71.1678 31.6303C70.948 31.7144 70.7133 31.7923 70.4634 31.8312C70.2115 31.8708 69.931 31.8906 69.6356 31.8906C68.9052 31.8906 68.321 31.6728 67.9055 31.2414C67.4867 30.8097 67.253 30.115 67.2562 29.1737C67.2585 28.3167 67.4656 27.674 67.8373 27.1806C68.2041 26.6937 68.7689 26.4405 69.5155 26.4405C70.1388 26.4405 70.6159 26.5129 71.1158 26.6693C71.1158 26.6693 71.2343 26.7209 71.2911 26.5648C71.4239 26.198 71.5219 25.9351 71.6644 25.5326C71.7047 25.4173 71.606 25.3686 71.57 25.3547C71.3739 25.2781 70.911 25.1524 70.5604 25.0995C70.2326 25.0495 69.8528 25.0236 69.4243 25.0236C68.7881 25.0236 68.2232 25.1323 67.7396 25.3479C67.2559 25.5631 66.8469 25.8607 66.5223 26.2308C66.1977 26.6008 65.951 27.0423 65.7854 27.5455C65.6215 28.0453 65.5387 28.5939 65.5387 29.175C65.5387 30.428 65.8763 31.444 66.545 32.1873C67.2137 32.9339 68.22 33.3105 69.5314 33.3105C70.3072 33.3105 71.1025 33.1537 71.6738 32.9274C71.6738 32.9274 71.7829 32.8749 71.7355 32.7476L71.3622 31.7219M74.0078 28.3459C74.0801 27.859 74.2136 27.4533 74.4232 27.1384C74.7371 26.658 75.2153 26.395 75.8872 26.395C76.5592 26.395 77.0039 26.6593 77.322 27.1384C77.533 27.4549 77.6252 27.8753 77.6596 28.3459L73.9915 28.3453L74.0078 28.3459ZM79.1041 27.2747C78.9752 26.7911 78.6561 26.3009 78.4484 26.0769C78.1173 25.7231 77.7959 25.4732 77.4746 25.3368C77.0106 25.1395 76.5115 25.0383 76.0073 25.0392C75.3679 25.0392 74.7868 25.1473 74.3161 25.367C73.8454 25.5884 73.4494 25.8896 73.1378 26.2662C72.8265 26.6427 72.5925 27.0874 72.4431 27.5971C72.2938 28.1002 72.2185 28.652 72.2185 29.2298C72.2185 29.8206 72.2967 30.3692 72.4506 30.8659C72.6061 31.3658 72.8564 31.804 73.194 32.1675C73.5316 32.5343 73.9633 32.82 74.4827 33.0213C74.9988 33.2209 75.6253 33.3244 76.3427 33.3222C77.8229 33.3173 78.6019 32.9878 78.92 32.8093C78.9768 32.7775 79.0304 32.7226 78.9635 32.5645L78.6292 31.6264C78.5779 31.4865 78.4364 31.5371 78.4364 31.5371C78.0696 31.6741 77.5502 31.9202 76.3329 31.9169C75.5376 31.9156 74.9501 31.6809 74.58 31.3132C74.2035 30.9366 74.0152 30.388 73.986 29.609L79.1148 29.6129C79.1148 29.6129 79.2498 29.6116 79.2638 29.4798C79.2693 29.4253 79.4394 28.4281 79.1109 27.2757L79.1041 27.2747ZM33.0098 28.3459C33.0822 27.859 33.216 27.4533 33.4253 27.1384C33.7396 26.658 34.2174 26.395 34.8893 26.395C35.5613 26.395 36.006 26.6593 36.3241 27.1384C36.5348 27.4549 36.6269 27.8753 36.6617 28.3459L32.9936 28.3453L33.0098 28.3459ZM38.1062 27.2747C37.9776 26.7911 37.6582 26.3009 37.4505 26.0769C37.1194 25.7231 36.798 25.4732 36.4767 25.3368C36.0127 25.1395 35.5136 25.0383 35.0094 25.0392C34.3699 25.0392 33.7889 25.1473 33.3182 25.367C32.8475 25.5884 32.4515 25.8896 32.1399 26.2662C31.8293 26.6427 31.5946 27.0874 31.4452 27.5971C31.2962 28.1002 31.2213 28.652 31.2213 29.2298C31.2213 29.8206 31.2988 30.3692 31.4537 30.8659C31.6088 31.3658 31.8594 31.804 32.1938 32.1675C32.5314 32.5343 32.9631 32.82 33.4825 33.0213C33.9986 33.2209 34.6218 33.3244 35.3425 33.3222C36.8227 33.3173 37.6017 32.9878 37.9199 32.8093C37.9763 32.7775 38.0302 32.7226 37.963 32.5645L37.6287 31.6264C37.5771 31.4865 37.4355 31.5371 37.4355 31.5371C37.0687 31.6741 36.5494 31.9202 35.3321 31.9169C34.54 31.9156 33.9493 31.6809 33.5792 31.3132C33.2027 30.9366 33.0144 30.388 32.9852 29.609L38.114 29.6129C38.114 29.6129 38.249 29.6116 38.263 29.4798C38.2685 29.4253 38.4386 28.4281 38.1098 27.2757L38.1062 27.2747ZM21.9407 31.6894C21.7398 31.529 21.7119 31.4898 21.6453 31.3856C21.5437 31.2288 21.4918 31.0058 21.4918 30.7201C21.4918 30.2722 21.6411 29.9475 21.9495 29.7301C21.9463 29.7307 22.391 29.347 23.4362 29.36C23.9014 29.3683 24.3656 29.4079 24.8255 29.4785V31.8059H24.8262C24.8262 31.8059 24.177 31.9458 23.4433 31.99C22.4014 32.0526 21.9404 31.69 21.9437 31.691L21.9407 31.6894ZM23.9793 28.0862C23.7715 28.071 23.5021 28.0635 23.1807 28.0635C22.7425 28.0635 22.3173 28.1181 21.9213 28.2252C21.522 28.333 21.1617 28.4998 20.8533 28.7218C20.5441 28.9424 20.2897 29.2312 20.11 29.5658C19.9285 29.9034 19.836 30.2994 19.836 30.7474C19.836 31.2018 19.9149 31.5946 20.0707 31.916C20.2234 32.2347 20.4532 32.5103 20.7394 32.7177C21.024 32.9248 21.3756 33.0781 21.7814 33.169C22.1839 33.2608 22.6383 33.3072 23.1382 33.3072C23.6641 33.3072 24.1867 33.2631 24.6931 33.1777C25.1244 33.1033 25.554 33.0198 25.9818 32.9271C26.1525 32.8878 26.3421 32.8362 26.3421 32.8362C26.4687 32.8041 26.4589 32.6687 26.4589 32.6687L26.456 27.9944C26.456 26.9686 26.1821 26.2058 25.6413 25.7351C25.1024 25.2644 24.3136 25.0275 23.2911 25.0275C22.9081 25.0275 22.2881 25.0794 21.918 25.1537C21.918 25.1537 20.8014 25.3706 20.3404 25.7315C20.3404 25.7315 20.2391 25.7939 20.2943 25.9351L20.6579 26.9089C20.703 27.0352 20.826 26.992 20.826 26.992C20.826 26.992 20.8647 26.9767 20.9101 26.9498C21.8937 26.4142 23.1402 26.4304 23.1402 26.4304C23.692 26.4304 24.1205 26.5424 24.4061 26.7615C24.6856 26.9761 24.8281 27.3004 24.8281 27.9821V28.1986C24.3899 28.1349 23.9841 28.0983 23.9841 28.0983L23.9793 28.0862ZM65.2044 25.4472C65.2118 25.4301 65.2156 25.4116 65.2158 25.393C65.2159 25.3744 65.2122 25.3559 65.205 25.3387C65.1979 25.3215 65.1873 25.3059 65.174 25.2929C65.1606 25.2798 65.1448 25.2696 65.1275 25.2628C65.0401 25.2297 64.6049 25.1378 64.2705 25.1171C63.6278 25.0768 63.2707 25.1852 62.9494 25.3294C62.6319 25.4725 62.2807 25.7027 62.0859 25.9688L62.0853 25.3456C62.0853 25.2599 62.0245 25.1908 61.9382 25.1908H60.6268C60.5417 25.1908 60.4801 25.2599 60.4801 25.3456V32.9739C60.4801 33.0151 60.4966 33.0546 60.5257 33.0837C60.5548 33.1129 60.5943 33.1293 60.6356 33.1293H61.9794C62.0206 33.1293 62.0601 33.1128 62.0892 33.0837C62.1183 33.0545 62.1346 33.015 62.1346 32.9739V29.1435C62.1346 28.6306 62.1911 28.121 62.3037 27.7996C62.4147 27.4818 62.5657 27.2283 62.7517 27.0465C62.9291 26.871 63.1462 26.7407 63.3847 26.6667C63.6084 26.6025 63.84 26.57 64.0728 26.57C64.3406 26.57 64.6344 26.6388 64.6344 26.6388C64.7331 26.6499 64.7879 26.5895 64.8214 26.5005C64.9093 26.2665 65.159 25.5657 65.2076 25.4261" fill="#448CD2"/>
<path fill-rule="evenodd" clip-rule="evenodd" d="M52.6522 21.9267C52.4861 21.8765 52.3171 21.8364 52.1462 21.8066C51.9162 21.7682 51.6833 21.7501 51.4502 21.7527C50.5241 21.7527 49.7941 22.0143 49.2815 22.5311C48.7725 23.044 48.4262 23.8253 48.2525 24.8533L48.1899 25.2003H47.0275C47.0275 25.2003 46.8856 25.1945 46.8557 25.3493L46.6649 26.414C46.6516 26.516 46.6954 26.5796 46.8317 26.5789H47.9633L46.8152 32.9877C46.7252 33.5038 46.6223 33.9284 46.5084 34.2501C46.3961 34.5675 46.2864 34.8055 46.1513 34.9782C46.0205 35.1453 45.8965 35.2684 45.6826 35.3401C45.506 35.3995 45.3028 35.4268 45.0801 35.4268C44.9561 35.4268 44.7912 35.406 44.6695 35.3816C44.5478 35.3576 44.4845 35.3303 44.3933 35.292C44.3933 35.292 44.2605 35.2414 44.2082 35.3745C44.1657 35.4832 43.8642 36.3126 43.8284 36.4152C43.7921 36.5165 43.8431 36.5963 43.9073 36.6194C44.0579 36.6732 44.1699 36.7077 44.3751 36.756C44.6601 36.8232 44.9003 36.8274 45.1253 36.8274C45.5966 36.8274 46.026 36.7612 46.3821 36.6327C46.7405 36.5032 47.0524 36.2776 47.3284 35.9721C47.6267 35.6426 47.8143 35.2976 47.9938 34.8269C48.1714 34.3604 48.3226 33.7813 48.4437 33.1065L49.5974 26.5789H51.284C51.284 26.5789 51.4262 26.5841 51.4557 26.4299L51.6466 25.3652C51.6599 25.2633 51.6164 25.1997 51.4794 25.2003H49.8424C49.8506 25.1633 49.9249 24.5875 50.1128 24.0454C50.193 23.8139 50.344 23.6273 50.4719 23.4991C50.5913 23.3769 50.7384 23.2854 50.9007 23.2322C51.0786 23.1772 51.264 23.1505 51.4502 23.153C51.6044 23.153 51.7557 23.1715 51.8709 23.1956C52.0297 23.2293 52.0913 23.2472 52.1329 23.2595C52.2997 23.3105 52.3221 23.2611 52.3549 23.1803L52.7464 22.1052C52.7866 21.9896 52.6886 21.9409 52.6522 21.9267ZM29.7759 33.0013C29.7759 33.087 29.7148 33.1568 29.6291 33.1568H28.2713C28.1853 33.1568 28.1243 33.087 28.1243 33.0013V22.0724C28.1243 21.987 28.1853 21.9179 28.2713 21.9179H29.6291C29.7148 21.9179 29.7759 21.987 29.7759 22.0724V33.0013Z" fill="#448CD2"/>
</g>
<defs>
<clipPath id="clip0_187_140">
<rect width="88.6178" height="62" fill="white"/>
</clipPath>
</defs>
</svg>
