<svg width="271" height="14" viewBox="0 0 271 14" fill="none" xmlns="http://www.w3.org/2000/svg">
<path d="M0.5 6.5C0.223858 6.5 0 6.72386 0 7C0 7.27614 0.223858 7.5 0.5 7.5V7V6.5ZM0.5 7V7.5H116.55V7V6.5H0.5V7Z" fill="#D0D0D0"/>
<path d="M135.116 7.8C135.116 8.432 135.016 9.012 134.816 9.54C134.624 10.06 134.348 10.516 133.988 10.908C133.628 11.292 133.2 11.592 132.704 11.808C132.216 12.016 131.68 12.12 131.096 12.12C130.512 12.12 129.972 12.016 129.476 11.808C128.988 11.592 128.564 11.292 128.204 10.908C127.844 10.516 127.564 10.06 127.364 9.54C127.172 9.012 127.076 8.432 127.076 7.8C127.076 7.168 127.172 6.592 127.364 6.072C127.564 5.544 127.844 5.088 128.204 4.704C128.564 4.312 128.988 4.012 129.476 3.804C129.972 3.588 130.512 3.48 131.096 3.48C131.68 3.48 132.216 3.588 132.704 3.804C133.2 4.012 133.628 4.312 133.988 4.704C134.348 5.088 134.624 5.544 134.816 6.072C135.016 6.592 135.116 7.168 135.116 7.8ZM134.348 7.8C134.348 7.088 134.208 6.464 133.928 5.928C133.656 5.384 133.276 4.96 132.788 4.656C132.3 4.352 131.736 4.2 131.096 4.2C130.464 4.2 129.9 4.352 129.404 4.656C128.916 4.96 128.532 5.384 128.252 5.928C127.98 6.464 127.844 7.088 127.844 7.8C127.844 8.512 127.98 9.14 128.252 9.684C128.532 10.22 128.916 10.64 129.404 10.944C129.9 11.248 130.464 11.4 131.096 11.4C131.736 11.4 132.3 11.248 132.788 10.944C133.276 10.64 133.656 10.22 133.928 9.684C134.208 9.14 134.348 8.512 134.348 7.8ZM137.224 12C137.104 12 137.004 11.964 136.924 11.892C136.852 11.82 136.816 11.736 136.816 11.64V3.96C136.816 3.864 136.852 3.78 136.924 3.708C136.996 3.636 137.08 3.6 137.176 3.6H140.416C140.872 3.6 141.28 3.7 141.64 3.9C142 4.092 142.28 4.36 142.48 4.704C142.688 5.048 142.792 5.436 142.792 5.868C142.792 6.22 142.728 6.544 142.6 6.84C142.472 7.136 142.292 7.388 142.06 7.596C141.828 7.796 141.568 7.944 141.28 8.04L140.86 7.908C141.156 7.932 141.432 8.028 141.688 8.196C141.944 8.356 142.148 8.58 142.299 8.868C142.46 9.148 142.544 9.488 142.552 9.888C142.56 10.232 142.576 10.5 142.6 10.692C142.632 10.884 142.676 11.028 142.732 11.124C142.788 11.22 142.86 11.296 142.948 11.352C143.028 11.4 143.08 11.468 143.104 11.556C143.136 11.644 143.128 11.728 143.08 11.808C143.048 11.872 143 11.92 142.936 11.952C142.88 11.976 142.82 11.988 142.756 11.988C142.692 11.988 142.628 11.972 142.564 11.94C142.452 11.876 142.336 11.776 142.216 11.64C142.104 11.504 142.008 11.304 141.928 11.04C141.856 10.776 141.82 10.408 141.82 9.936C141.82 9.624 141.768 9.368 141.664 9.168C141.568 8.968 141.44 8.816 141.28 8.712C141.128 8.6 140.956 8.524 140.764 8.484C140.58 8.436 140.404 8.412 140.236 8.412H137.44L137.572 8.244V11.64C137.572 11.736 137.54 11.82 137.476 11.892C137.412 11.964 137.328 12 137.224 12ZM137.44 7.752H140.452C140.724 7.728 140.98 7.64 141.22 7.488C141.46 7.328 141.652 7.112 141.796 6.84C141.947 6.568 142.023 6.252 142.023 5.892C142.023 5.436 141.868 5.06 141.556 4.764C141.252 4.46 140.852 4.308 140.356 4.308H137.488L137.572 4.14V7.92L137.44 7.752Z" fill="#676767"/>
<path d="M270.5 7.5C270.776 7.5 271 7.27614 271 7C271 6.72386 270.776 6.5 270.5 6.5V7V7.5ZM154.45 7V7.5H270.5V7V6.5H154.45V7Z" fill="#D0D0D0"/>
</svg>
