<svg width="112" height="72" viewBox="0 0 112 72" fill="none" xmlns="http://www.w3.org/2000/svg">
<g clip-path="url(#clip0_607_2695)">
<path d="M55.791 0.0144043H57.0874L58.0476 0.158443L59.344 0.494533L60.0641 0.830623L60.9284 1.31075L61.6966 1.93492L62.1767 2.36704L62.5608 2.75114L63.0409 3.37531L63.4731 3.99947L63.8092 4.67165L64.1933 5.63191L64.4333 6.49614L64.4813 7.02429L65.0095 7.16832L66.0658 7.64845L66.93 8.12858L67.074 8.22461V8.32063L67.2661 8.41666L67.7942 8.80076L68.3704 9.3289L69.0426 10.0011L69.6187 10.7693L69.9548 11.2494L70.3869 12.0176L70.819 13.0259L71.1551 14.0822L71.2512 14.5143L71.3472 15.4265L71.3952 16.6269L71.2992 17.8272L71.2031 18.5474L70.9151 19.5556L70.531 20.5159L69.9548 21.6202L69.7628 21.9563L70.2909 22.3404L70.8671 22.8685L71.3952 23.5407L71.8753 24.3089L72.1154 24.8371L72.4035 25.7013L72.5475 26.3735L72.5955 26.8056V27.9099L72.4515 28.8221L72.2114 29.5903L71.9233 30.3105L71.4912 31.0307L71.0591 31.6069L70.819 31.895L70.627 32.039H70.531L70.4349 32.2311L70.0508 32.5671L69.2826 33.0473L68.2744 33.5274L66.978 33.8155L66.4019 33.8635H65.7297L65.6817 34.1036L65.2976 34.8237L64.9615 35.2559L64.5774 35.736L64.1452 36.2161L63.7611 36.6002L63.137 37.0804L62.5128 37.5125L61.7446 37.8966L60.7363 38.2807L60.0161 38.4727L59.0559 38.5688H57.6635L56.5112 38.4247L55.4549 38.0886L54.6867 37.7045L55.0228 37.1284L55.2629 36.6482L55.3109 36.2161L55.2148 35.3519L55.0228 34.8718V34.2476L55.1668 33.1913L55.4549 32.039L55.743 31.2708L56.4632 29.9744L56.8953 29.3983L57.4234 28.8221L57.9996 28.246L58.6238 27.7659L59.488 27.2377L59.9681 26.9496L61.4085 26.3735L61.8886 26.2294H61.4085L60.5443 26.3735L59.44 26.7096L58.8638 26.9496L57.8556 27.4778L57.4715 27.7659L57.1834 27.9579L56.4632 28.5821L55.887 29.1582L55.4069 29.7824L55.1668 30.1665H55.0708L54.9748 30.4066L54.5907 31.2228L54.3026 31.943L54.0625 32.9032L53.9665 33.6234V34.7277L54.0625 35.1598L54.2546 35.688V36.5042L53.8225 37.1764L53.1023 38.6168L52.4781 39.7211L52.2381 40.2972V40.5853L52.3821 40.7293L53.1503 40.9214L53.5824 41.0654L53.6784 41.3055V42.2657L53.9185 42.7459V43.7541L54.1586 44.1382L54.6867 44.4743L54.5427 44.9545L54.3506 45.5786V46.1068L54.5907 46.3468L55.0708 46.5869L55.4069 46.6829L56.1271 46.779H57.2314L57.7595 46.7309H61.9367L63.377 46.923L64.2893 47.067L68.5144 47.4991L70.579 47.6432L74.7561 47.7392L74.6121 47.8352L72.6915 47.9313V48.7475H71.6833V47.9793L67.4581 48.2193L64.7694 48.3634L64.2893 48.4114L65.1535 49.0356L65.5856 49.3236V49.4197L64.7694 49.5157H64.4333V50.4279H63.0409V49.6597L62.8969 49.7077H62.5128V48.8435H61.2165V49.8038L61.0724 49.8998L60.6403 49.9478L61.0724 50.1879L62.1287 50.8601L62.3688 51.0521L62.7049 51.4362L62.9449 51.6763L64.1933 51.8683L65.2015 52.0604L66.4019 52.1564L67.1701 52.2044L67.4581 52.2524V52.3004L65.1055 52.4925L64.1452 52.5885L63.7131 52.6845L63.8092 53.3567V53.8368L63.7131 54.413L63.8092 54.7011L64.0492 54.9411L64.5774 55.3733V55.4693L64.3373 55.3733L63.137 54.7491L62.5608 54.365L62.6088 54.0289L62.7049 53.6928V53.4527L62.0807 52.6845L61.6486 52.1084L61.4565 51.8683V51.7723L61.2645 51.6763L60.4483 51.0041L59.8721 50.572L59.8241 51.1001H58.4317V49.8518H57.9996L57.5675 49.8038L57.7115 51.4362L57.8556 52.2524L58.0956 52.4925L58.7678 52.6845L58.8158 53.9329L58.9599 54.7011L59.68 55.3252L59.8721 55.5173L60.4002 56.5256L60.8324 57.4378L60.8804 57.5338L60.6403 57.4378L60.1122 56.8617L59.8721 56.6216L59.392 56.0935L58.7198 55.4213L58.6238 55.1812L58.4317 55.0852L58.1916 54.8451V56.3815L58.0956 56.2855L57.9036 55.6133L57.4234 54.1729H56.7513V53.4527L56.4632 53.2607V51.9643H56.0311L55.9831 51.1481L55.935 50.9081L55.647 50.812L55.3109 50.572L55.2629 51.2442H53.8225V49.8518L53.9665 49.8038L53.7264 49.2756L53.4864 48.6515L53.2943 48.2674V48.1713L53.1503 48.3154L52.8622 48.8435L52.9102 49.3236L52.5741 49.9958L52.6702 50.1879L52.9582 50.524L53.3904 51.0521L54.0625 52.0604L53.9665 52.3004L53.7745 52.5885L53.7264 53.9809L54.4466 54.7011L54.7827 55.0852L55.2148 55.5173L55.5509 55.9014L55.647 55.9974L56.5112 56.0454V57.1017H55.4549L55.4069 56.1415L54.6387 55.5173L54.2066 55.1332L54.0625 55.0852L53.7745 55.1812V55.8054L53.7264 55.8534H52.6702V55.4213L51.0857 55.8054L50.8937 55.7574L51.0857 55.6133H51.1818V55.5173L51.902 55.0372L52.6702 54.509V52.0124L52.5741 51.9163L51.7099 51.7723L51.1818 51.7243V51.9163H49.7414V50.524H50.2215L50.1735 50.3319L49.9334 50.2839V50.1879H50.1255V48.5554H48.493V50.2839L48.0609 50.4759L47.0046 50.8601L46.6205 51.2442L47.0527 51.2922L47.1007 51.3402V52.6845H45.9003L45.9484 54.557L46.4285 55.1332L46.7166 55.5173V55.5653L46.2845 55.5173L45.7563 55.3733V56.0454H44.7961L44.748 55.1332L44.46 55.0852L43.8358 55.6133L43.2116 56.0935L42.7315 56.5256L42.2994 56.8136V56.6696L43.0196 55.9494L43.3557 55.5653L43.7878 55.1332L44.1239 54.7491L44.556 54.317L44.604 54.1249L44.46 53.6928V52.1564L43.8838 51.9163L44.2199 51.2442L44.4119 50.9561L44.9401 50.716L45.4682 50.668L45.8523 50.2839L45.9964 50.0918L45.9484 49.8518L45.6603 49.2276L45.7563 48.8435L45.4202 48.3154L45.3722 48.1713L45.0841 48.7475H43.4997V50.4759L42.8275 50.8601L42.6355 51.0521L42.5875 51.6283L42.6835 52.9246L41.9633 53.3567L41.8193 53.4047L42.1073 53.5008V54.413H41.1471L41.0991 54.365L40.6669 55.6613V55.7574L40.907 55.8054V56.7176H39.9468V55.8054L40.3789 55.7574L40.4269 54.8451L40.0428 55.1812L39.7067 55.5173L39.3706 55.9014L38.9865 56.2855L38.6504 56.6696L38.2663 57.0537L38.2183 57.8219H37.258V56.8617L38.0742 56.8136L38.6984 55.5653L38.8425 55.3252L39.3706 54.8931L39.6107 54.7011L39.8027 53.5968V52.6845L40.5709 52.4445L40.763 52.2044L40.907 51.2922L41.003 50.0438L41.051 49.8038H40.6189V49.2276H39.3226V50.0438L38.6984 50.572L38.6024 50.668L39.6107 50.716V52.5405H37.7382L37.6901 51.3882L37.114 51.8683L36.6819 52.4445L36.3458 52.8286L36.0577 53.2607L35.8657 53.4527L36.0577 54.365L35.3375 54.7971L34.6173 55.1812V56.0454H33.6571V55.0852L34.4253 55.0372L34.8574 54.6051V54.1729L34.7133 53.7408L34.7614 53.3087L34.9054 52.6365L34.4253 52.5885L33.513 52.4925L32.2167 52.3965L32.0246 52.3484V52.8286H31.0644V51.8683H31.9766L32.0246 51.9163V52.2044L32.1687 52.1564L33.417 52.0604L34.4253 51.8683L34.6173 51.9163L34.5693 52.0604H35.9137V51.4362L36.1537 51.1961L36.2498 51.0041L37.066 50.4759L37.5461 50.1399L37.8342 49.9958H37.9302V49.8998H37.4981L36.5858 49.8038L36.3938 49.7558V49.0836H35.0974V49.6117L34.2812 49.5637L33.8011 49.5157L33.7051 49.4677V49.8518L33.6571 49.8998H32.7448V48.9395L33.6571 48.8915L33.9932 48.6034L34.2812 48.4114L32.9369 48.3154L31.1604 48.2193L31.1124 48.7475H30.1521V48.1233H29.3359L24.8707 47.8833L24.3426 47.8352V48.3154H23.3823V47.3551H24.3426V47.7392L25.7349 47.6912L28.0396 47.6432L30.1041 47.4991L37.4021 46.7309L38.6024 46.6349L40.4749 46.4429L40.5229 47.4031L41.8193 47.4511V46.779H43.0676L44.0759 46.6349L44.508 46.4429L45.1321 46.1068L45.3722 45.9147L45.4202 45.8187V45.3866L45.2282 44.7624L45.1321 44.4743L45.7083 44.0902L45.9003 43.7541V42.7459L46.0444 42.4578H46.1404L46.1884 41.9777V41.3055L46.2845 41.0654L46.4285 40.9694L47.2927 40.7773L47.5808 40.5853V40.2492L47.1967 39.433L46.7166 38.5688L46.2364 37.6565L45.8523 36.8883L45.5643 36.5042V35.688L45.7083 35.2559L45.8043 35.0638L45.8523 34.7277V33.5754L45.7083 32.6632L45.3722 31.4628L44.9881 30.6946L44.556 29.9264L44.1719 29.3983L43.9318 29.1582L43.4517 28.6301L42.9235 28.198V28.1019L42.7315 28.0059L41.8673 27.4298L40.955 26.9496L39.9468 26.5655L39.0345 26.3255L38.4584 26.2294L37.4501 26.1814L36.4418 26.2775L35.9137 26.4215L37.258 26.6616L38.6024 26.9496L39.5146 27.2377L40.1388 27.5258L40.907 27.8619L41.9633 28.5821L42.5394 29.1102L43.0196 29.5903L43.6918 30.5026L44.1239 31.4148L44.46 32.3271L44.604 32.9993L44.748 33.9115L44.7961 34.3436V34.8718L44.604 35.4479L44.556 36.6002L44.1239 36.8403L42.9716 37.2244L42.1553 37.4645L41.1951 37.6565L40.4269 37.7045H38.3623L37.3541 37.6085L36.1537 37.3204L35.2895 37.0323L34.3292 36.6482L33.609 36.2641L32.9369 35.88L32.2647 35.3999L31.6405 34.9198L31.0164 34.3436L30.4402 33.7675L29.9121 33.0953L29.528 32.5671L28.9998 31.7509L28.6157 30.9827L28.2796 30.2145L28.0396 29.6384L27.7995 28.7261L27.5594 27.5738L27.4634 26.8056V24.7891L27.5594 23.9248L27.1273 23.3007L26.5992 22.3404L26.2151 21.4282L25.879 20.0838L25.7349 19.0275V17.6831L25.831 16.8669L26.023 16.0027L26.2631 15.0905L26.5031 14.5623L26.9833 13.6021L27.4634 12.8338L27.7035 12.5938L28.0876 12.1137L28.9998 11.2014L29.528 10.8173L29.72 10.6253L30.3442 10.2411L31.1604 9.80903L31.8326 9.52096L33.0329 9.18487L33.8011 9.04083H34.0412L34.1852 8.5607L34.5213 7.69647L34.7133 7.21634L35.3855 6.06403L35.7216 5.53589L35.8657 5.34383H35.9617L36.0577 5.15178L36.3938 4.71967L36.9219 4.14351L37.5461 3.51935L37.9782 3.18325L38.2183 2.94319L38.6504 2.65511L39.1305 2.31902L39.6587 2.03095L40.4269 1.59883L41.2431 1.26274L42.4914 0.878636L43.5957 0.638572L44.8441 0.494533H46.1884L47.4848 0.638572L48.7331 0.926649L50.1735 1.40678L51.1338 1.88691L51.3738 1.74287L52.046 1.26274L53.1983 0.638572L53.6784 0.44652L54.7827 0.158443L55.791 0.0144043ZM49.5493 7.4564L49.0212 7.74448L48.7331 8.08057L48.5411 8.5607V9.08884L48.7331 9.56897L49.0692 9.95307L49.5493 10.1931L50.0775 10.2411L50.6056 10.0491L51.0377 9.66499L51.2778 9.18487V8.41666L51.0857 8.03256L50.6536 7.64845L50.2695 7.4564H49.5493ZM45.1802 10.0491L44.7 10.1931L44.3159 10.4812L44.0278 10.9613L43.9798 11.1054V11.7776L44.2199 12.2577L44.556 12.5938L45.0361 12.8338H45.6603L46.0924 12.6418L46.3325 12.4017L46.5725 12.1137L46.7166 11.8256L46.7646 11.5855V11.2494L46.5725 10.7693L46.2845 10.3852L45.9003 10.1451L45.5643 10.0491H45.1802ZM54.5907 10.0491L54.1106 10.2411L53.7264 10.5772L53.4864 11.0574L53.4384 11.2014V11.6815L53.6304 12.1617L53.8705 12.4978L54.2546 12.7378L54.5427 12.8338H55.0708L55.5509 12.6418L55.935 12.3057L56.2231 11.7295V11.1534L56.0311 10.7213L55.695 10.3372L55.2148 10.0971L55.0228 10.0491H54.5907ZM38.3143 13.0739L37.8822 13.1699L37.4981 13.41L37.162 13.7461L37.018 14.1302L36.97 14.3222V14.6583L37.114 15.1385L37.4021 15.5226L37.8822 15.8106L38.2183 15.9067L38.6984 15.8587L39.1785 15.6186L39.4186 15.4265L39.6107 15.0905L39.7547 14.6103L39.7067 14.1302L39.4666 13.6501L39.0345 13.266L38.6984 13.1219L38.3143 13.0739ZM61.7926 13.0739L61.3125 13.1699L60.7843 13.554L60.4963 13.9862L60.4002 14.3222V14.6583L60.5443 15.1385L60.9284 15.5706L61.4565 15.8587L61.9847 15.9067L62.5128 15.7146L62.8969 15.3785L63.089 15.0905L63.185 14.8024V14.1782L62.9929 13.7461L62.6568 13.362L62.2727 13.1699L61.7926 13.0739ZM33.369 19.2196L32.9369 19.4116L32.5528 19.7477L32.3127 20.2278L32.2647 20.3719V20.804L32.4567 21.2841L32.8408 21.7162L33.321 21.9563H34.0892L34.3773 21.8123L34.7133 21.5242L35.0014 21.0921L35.0494 20.9V20.2758L34.7614 19.6997L34.4253 19.4116L33.9451 19.2196H33.369ZM66.1618 19.2196L65.6336 19.5076L65.2976 19.8917L65.1535 20.2278L65.1055 20.6599L65.2015 21.0921L65.4416 21.5242L65.8737 21.8603L66.1138 21.9563H66.882L67.2661 21.7642L67.6022 21.4762L67.8903 20.9L67.9383 20.5159L67.8422 20.0838L67.5542 19.6517L67.2661 19.4116L66.834 19.2196H66.1618ZM32.6008 24.549L32.1687 24.741L31.9286 24.9811L31.6405 25.3172L31.4965 25.7493V26.0854L31.6405 26.5655L31.9286 26.9496L32.3607 27.2377L32.6968 27.3337H33.1289L33.609 27.1417L33.9451 26.9016L34.2332 26.4215L34.2812 26.2294V25.6053L34.0892 25.1732H33.9932L33.8971 24.9811L33.561 24.693L33.1769 24.549H32.6008ZM66.978 24.549L66.4019 24.8371L66.0658 25.2212L65.9217 25.5573L65.8737 26.0854L66.0177 26.5655L66.3538 26.9976L66.7379 27.2377L67.074 27.3337H67.5061L68.0343 27.1417L68.3704 26.8536L68.6585 26.2775L68.7065 25.8453L68.5624 25.3652L68.2744 24.9811L67.9863 24.741L67.7462 24.597L67.5542 24.549H66.978ZM49.3093 46.4429V47.7392H50.6056V46.4429H49.3093ZM45.9964 46.779V48.1233H47.2927V46.779H45.9964ZM37.9782 47.1631V48.4594H39.3226V47.1631H37.9782ZM59.632 47.1631V48.4594H60.9764V47.1631H59.632ZM56.5112 47.4991V48.7955H57.8556V47.4991H56.5112Z" fill="#22353B"/>
<path d="M55.791 0.0144043H57.0874L58.0476 0.158443L59.344 0.494533L60.0641 0.830623L60.9284 1.31075L61.6966 1.93492L62.1767 2.36704L62.5608 2.75114L63.0409 3.37531L63.4731 3.99947L63.8092 4.67165L64.1933 5.63191L64.4333 6.49614L64.4813 7.02429L65.0095 7.16832L66.0658 7.64845L66.93 8.12858L67.074 8.22461V8.32063L67.2661 8.41666L67.7942 8.80076L68.3704 9.3289L69.0426 10.0011L69.6187 10.7693L69.9548 11.2494L70.3869 12.0176L70.819 13.0259L71.1551 14.0822L71.2512 14.5143L71.3472 15.4265L71.3952 16.6269L71.2992 17.8272L71.2031 18.5474L70.9151 19.5556L70.531 20.5159L69.9548 21.6202L69.7628 21.9563H69.6187L68.9465 21.5722L68.8025 21.4762L68.8985 21.044V20.1318L68.7065 19.5076L68.4184 19.0755L68.1303 18.7394L67.6022 18.4033L67.026 18.2113L66.7379 18.1633H66.2578L65.6336 18.3073L65.0095 18.6434L64.5774 19.0755L64.2893 19.5556L64.0972 19.9878L62.7049 20.5159L61.2645 21.1881L60.4002 21.6682L59.2479 22.3884L58.4797 22.9646L57.8075 23.4927L57.2794 23.9728L56.8953 24.3089L56.1751 25.0291L55.743 25.5573L55.4549 25.8934L55.4069 25.7493L55.887 24.645L56.3672 23.6367L56.9433 22.5805L57.5195 21.6202L58.1916 20.6119L58.8158 19.7477L59.344 19.0755L59.8721 18.4514L60.3042 17.9232L60.6403 17.5871L60.9764 17.203L61.2645 16.9149H62.0327L62.7049 16.7709L63.185 16.5308L63.7131 16.0507L64.0972 15.3785L64.2413 14.8024V14.1782L64.0972 13.6021L63.8092 13.0739L63.4251 12.6418L62.8969 12.3057L62.3688 12.1137H61.3125L60.7363 12.3057L60.3042 12.5938L59.9681 12.8819L59.632 13.41L59.44 13.9862L59.392 14.6583L58.9599 15.0905L58.6718 15.4265H58.5758L58.4797 15.6186L58.1436 15.9547L57.7115 16.4828L57.2794 16.963L56.7993 17.5871L56.1751 18.4033L55.9831 18.6914H55.935L55.9831 16.5788V13.6021L56.4152 13.314L56.7513 12.9779L57.0393 12.4978L57.2314 11.8736V11.0094L57.0393 10.3852L56.7032 9.85705L56.3191 9.47294L55.647 9.13685L55.3589 9.04083L54.6387 8.99281L53.9665 9.13685L53.4864 9.37692L53.0063 9.76102L52.6222 10.3372L52.4301 10.9133L52.3821 11.2014V11.6335L52.5261 12.3057L52.8622 12.9299L53.0063 13.1219V14.0342L51.7579 14.2262L51.3738 14.2742V10.8173L51.902 10.2892L52.2381 9.61698L52.3341 9.18487V8.46467L52.19 7.88852L51.902 7.36038L51.6139 7.02429L51.1338 6.6882L50.5096 6.44813L50.2695 6.40012H49.5493L49.0212 6.54416L48.5411 6.78422L48.0609 7.21634L47.7248 7.69647L47.5328 8.27262L47.4848 8.51268V9.08884L47.6288 9.71301L47.8689 10.1931L48.301 10.6733L48.493 10.8173L48.445 15.4746L47.6768 16.0507L47.1967 16.4348L46.8126 16.7229L46.7646 16.6749V14.5143L46.8126 13.41L47.2927 12.9779L47.5808 12.4978L47.7729 11.8736V10.9613L47.5808 10.3852L47.2447 9.85705L46.9086 9.52096L46.3325 9.18487L45.8523 9.04083L45.2282 8.99281L44.652 9.08884L43.8838 9.47294L43.4997 9.80903L43.1636 10.3372L42.9716 10.8653L42.9236 11.1054V11.7776L43.0676 12.3537L43.4037 12.9299L43.6437 13.2179L43.8358 13.362L43.8838 18.6914L43.6918 18.4514L43.0676 17.6351L42.5394 16.963L41.9633 16.2908L41.3871 15.6666L41.051 15.2825L40.811 15.0424V14.4183L40.715 13.8421L40.4749 13.2179L40.0908 12.7378L39.5626 12.3537L38.9865 12.1137L38.6984 12.0656H38.0262L37.4501 12.2097L36.9219 12.4978L36.4898 12.8819L36.1537 13.41L35.9617 13.9862L35.9137 14.6583L36.0577 15.3305L36.3458 15.9067L36.7779 16.3868L37.258 16.6749L37.6901 16.8669L37.9302 16.9149L38.6024 16.963L39.0825 17.4431L39.4186 17.8272L39.8507 18.3073L40.2828 18.8355L40.907 19.6037L41.5312 20.4679L42.2034 21.4762L42.7315 22.3404L43.2116 23.2046L43.7398 24.2129V24.2609H43.3077L42.7795 24.1169L42.2994 23.7328L41.8193 23.3007L41.051 22.7245L39.7547 21.8603L38.7464 21.2841L37.6901 20.756L36.6819 20.3239L36.2978 20.1318L36.0097 19.7477L35.6256 19.0755L35.3375 18.7394V18.6434H35.2415L34.6173 17.4911L34.1372 16.2428L33.8491 15.2345L33.2249 15.5706L32.6488 15.9547L31.8806 16.5308L31.4005 16.963L31.0164 17.299L30.6323 17.6831L30.2962 18.0672L29.9121 18.5474L29.1439 19.6997L28.5677 20.804L28.0876 22.0043L27.7515 23.2526L27.6555 23.7808H27.4634L27.1273 23.3007L26.5992 22.3404L26.2151 21.4282L25.879 20.0838L25.7349 19.0275V17.6831L25.831 16.8669L26.023 16.0027L26.2631 15.0905L26.5031 14.5623L26.9833 13.6021L27.4634 12.8338L27.7035 12.5938L28.0876 12.1137L28.9998 11.2014L29.528 10.8173L29.72 10.6253L30.3442 10.2411L31.1604 9.80903L31.8326 9.52096L33.0329 9.18487L33.8011 9.04083H34.0412L34.1852 8.5607L34.5213 7.69647L34.7133 7.21634L35.3855 6.06403L35.7216 5.53589L35.8657 5.34383H35.9617L36.0577 5.15178L36.3938 4.71967L36.9219 4.14351L37.5461 3.51935L37.9782 3.18325L38.2183 2.94319L38.6504 2.65511L39.1305 2.31902L39.6587 2.03095L40.4269 1.59883L41.2431 1.26274L42.4914 0.878636L43.5957 0.638572L44.8441 0.494533H46.1884L47.4848 0.638572L48.7331 0.926649L50.1735 1.40678L51.1338 1.88691L51.3738 1.74287L52.046 1.26274L53.1983 0.638572L53.6784 0.44652L54.7827 0.158443L55.791 0.0144043Z" fill="#E2154E"/>
<path d="M55.791 0.0144043H57.0874L58.0476 0.158443L59.344 0.494533L60.0642 0.830623L60.9284 1.31075L61.6966 1.93492L62.1767 2.36704L62.5608 2.75114L63.0409 3.37531L63.4731 3.99947L63.8092 4.67165L64.1933 5.63191L64.4333 6.49614L64.4813 7.02429L65.0095 7.16832L66.0658 7.64845L66.93 8.12858L67.074 8.22461V8.32063L67.2661 8.41666L67.7942 8.80076L68.3704 9.3289L69.0426 10.0011L69.6187 10.7693L69.9548 11.2494L70.3869 12.0176L70.819 13.0259L71.1551 14.0822L71.2512 14.5143L71.3472 15.4265L71.3952 16.6269L71.2992 17.8272L71.2031 18.5474L70.9151 19.5556L70.531 20.5159L69.9548 21.6202L69.7628 21.9563H69.6187L68.9465 21.5722L68.8025 21.4762L68.8985 21.044V20.1318L68.7065 19.5076L68.4184 19.0755L68.1303 18.7394L67.6022 18.4033L67.026 18.2113L66.7379 18.1633H66.2578L65.6336 18.3073L65.0095 18.6434L64.5774 19.0755L64.2893 19.5556L64.0972 19.9878L62.7049 20.5159L61.2645 21.1881L60.4002 21.6682L59.2479 22.3884L58.4797 22.9646L57.8075 23.4927L57.2794 23.9728L56.8953 24.3089L56.1751 25.0291L55.743 25.5573L55.4549 25.8934L55.4069 25.7493L55.887 24.645L56.3672 23.6367L56.9433 22.5805L57.5195 21.6202L58.1916 20.6119L58.8158 19.7477L59.344 19.0755L59.8721 18.4514L60.3042 17.9232L60.6403 17.5871L60.9764 17.203L61.2645 16.9149H62.0327L62.7049 16.7709L63.185 16.5308L63.7131 16.0507L64.0972 15.3785L64.2413 14.8024V14.1782L64.0972 13.6021L63.8092 13.0739L63.4251 12.6418L62.8969 12.3057L62.3688 12.1137H61.3125L60.7363 12.3057L60.3042 12.5938L59.9681 12.8819L59.632 13.41L59.44 13.9862L59.392 14.6583L58.9599 15.0905L58.6718 15.4265H58.5758L58.4797 15.6186L58.1436 15.9547L57.7115 16.4828L57.2794 16.963L56.7993 17.5871L56.1751 18.4033L55.9831 18.6914H55.935L55.9831 16.5788V14.3222L56.7513 14.5143L57.2794 14.7063L57.3274 14.2262L57.4234 13.0259V11.9216L57.3274 10.7693L57.0393 9.37692L56.7993 8.60871L56.4152 7.64845L55.9831 6.73621L55.3589 5.72794L54.8788 5.10377L54.4466 4.57563L53.8705 3.95146L53.2943 3.42332L52.4781 2.79915L51.7579 2.31902L51.2298 2.03095L51.1818 1.88691L52.046 1.26274L53.1983 0.638572L53.6784 0.44652L54.7827 0.158443L55.791 0.0144043Z" fill="#F28D21"/>
<path d="M33.8011 15.1865L33.8971 15.2345L34.2332 16.3868L34.7134 17.5872L35.2895 18.6435H35.1455L34.6653 18.3554L34.2332 18.2113L33.8971 18.1633H33.417L32.7928 18.3074L32.1687 18.6435L31.7366 19.0756L31.4485 19.6037L31.3044 19.9878L31.2564 20.3239V20.852L31.4485 21.6203L31.7846 22.1484L32.1207 22.4845L32.6008 22.7726L33.1769 22.9646L33.465 23.0126H33.8491L34.5213 22.8686L34.7614 22.7726L35.1935 22.8686L36.1057 23.2527L36.1537 23.3487L35.0975 23.5408L34.2332 23.7808L33.9451 23.7328L33.321 23.5408H32.5048L31.8806 23.7328L31.4005 24.0209L31.0644 24.309L30.7283 24.8371L30.5362 25.3653L30.4882 25.6053V26.2775L30.6323 26.8537L30.9203 27.3818L31.2564 27.7659L31.7846 28.102L32.2647 28.294L32.4567 28.3421H33.369L33.9451 28.15L34.4733 27.8139L34.8574 27.4298L35.2415 26.6616L35.2895 26.5176L35.7696 26.3735L36.7779 26.5656L38.6024 26.9497L39.5146 27.2378L40.1388 27.5258L40.907 27.8619L41.9633 28.5821L42.5395 29.1103L43.0196 29.5904L43.6918 30.5026L44.1239 31.4149L44.46 32.3271L44.604 32.9993L44.748 33.9115L44.7961 34.3437V34.8718L44.604 35.448L44.556 36.6003L44.1239 36.8403L42.9716 37.2244L42.1553 37.4645L41.1951 37.6566L40.4269 37.7046H38.3623L37.3541 37.6085L36.1537 37.3205L35.2895 37.0324L34.3292 36.6483L33.6091 36.2642L32.9369 35.8801L32.2647 35.3999L31.6405 34.9198L31.0164 34.3437L30.4402 33.7675L29.9121 33.0953L29.528 32.5672L28.9998 31.751L28.6157 30.9828L28.2796 30.2146L28.0396 29.6384L27.7995 28.7262L27.5594 27.5738L27.4634 26.8056V24.7891L27.5594 23.8288L27.6555 23.4928L27.9915 22.1484L28.3757 21.1401L28.9518 19.9398L29.4319 19.1716L29.9121 18.4994L30.3442 17.9713L31.0164 17.2511L31.6885 16.6269L32.5048 16.0027L33.225 15.5226L33.8011 15.1865Z" fill="#017AC7"/>
<path d="M68.8025 21.4761L69.4747 21.8122L69.6667 21.9562L70.0028 22.1002L70.483 22.5324L70.8671 22.8684L71.3952 23.5406L71.8753 24.3088L72.1154 24.837L72.4035 25.7012L72.5475 26.3734L72.5955 26.8055V27.9098L72.4515 28.822L72.2114 29.5903L71.9233 30.3104L71.4912 31.0306L71.0591 31.6068L70.819 31.8949L70.627 32.0389H70.531L70.4349 32.231L70.0508 32.567L69.2826 33.0472L68.2744 33.5273L66.978 33.8154L66.4019 33.8634H65.7297L65.6817 34.1035L65.2976 34.8237L64.9615 35.2558L64.5774 35.7359L64.1453 36.216L63.7611 36.6001L63.137 37.0803L62.5128 37.5124L61.7446 37.8965L60.7363 38.2806L60.0161 38.4726L59.0559 38.5687H57.6635L56.5112 38.4246L55.4549 38.0885L54.6867 37.7044L55.0228 37.1283L55.2629 36.6481L55.3109 36.216L55.2149 35.3518L55.0228 34.8717V34.2475L55.1668 33.1912L55.4549 32.0389L55.743 31.2707L56.4632 29.9744L56.8953 29.3982L57.4234 28.822L57.9996 28.2459L58.6238 27.7658L59.488 27.2376L59.9681 26.9495L61.4085 26.3734L61.8886 26.2293L61.6006 26.1813V26.1333H62.3688L63.4731 26.2293L64.2893 26.4214L64.8654 26.6135L65.0095 26.8535L65.2976 27.3817L65.5856 27.7177L66.0658 28.0538L66.6419 28.2939L66.834 28.3419H67.7462L68.4184 28.1019L68.8985 27.7658L69.3306 27.2856L69.5707 26.7575L69.6667 26.4214V25.5092L69.4747 24.885L69.1386 24.3568L68.8025 24.0208L68.3224 23.7327L67.8903 23.5886L67.6502 23.5406H66.882L66.2578 23.7327L65.9697 23.8767L65.4416 23.7327L64.2893 23.4446L63.6651 23.3486L63.8092 23.2045L65.1535 22.6764L66.0178 22.9645L66.3058 23.0125H66.6899L67.1701 22.9165L67.6982 22.7244L68.2263 22.3403L68.5624 21.9082L68.8025 21.4761Z" fill="#723285"/>
<path d="M59.584 27.1897H59.632L59.6801 28.1019L59.8241 28.9182L60.1602 29.9264L60.6403 30.8387L61.0724 31.4148L61.6006 31.991L62.1287 32.4711L62.9449 32.9993L63.7612 33.3834L64.7694 33.6714L65.3936 33.7675L66.4019 33.8155V33.8635H65.7297L65.6817 34.1036L65.2976 34.8237L64.9615 35.2559L64.5774 35.736L64.1453 36.2161L63.7612 36.6002L63.137 37.0804L62.5128 37.5125L61.7446 37.8966L60.7363 38.2807L60.0161 38.4727L59.0559 38.5688H57.6635L56.5112 38.4247L55.4549 38.0886L54.6867 37.7045L55.0228 37.1284L55.2629 36.6482L55.3109 36.2161L55.2149 35.3519L55.0228 34.8718V34.2476L55.1668 33.1913L55.4549 32.039L55.743 31.2708L56.4632 29.9744L56.8953 29.3983L57.4234 28.8221L57.9996 28.246L58.6238 27.7659L59.488 27.2377L59.584 27.1897Z" fill="#5CC3CC"/>
<path d="M33.8011 9.04077H34.0412L33.9932 9.42487L33.8011 10.2891L33.6571 11.2974L33.6091 12.0176V12.9298L33.7051 14.0341L33.8971 15.2344L33.6571 15.3305L32.9849 15.7146L32.1207 16.3387L31.4965 16.8669L30.9203 17.395L30.2481 18.1152L29.9121 18.5473L29.1439 19.6996L28.5677 20.8039L28.0876 22.0043L27.7515 23.2526L27.6555 23.7807H27.4634L27.1273 23.3006L26.5992 22.3403L26.2151 21.4281L25.879 20.0837L25.7349 19.0275V17.6831L25.831 16.8669L26.023 16.0026L26.2631 15.0904L26.5031 14.5623L26.9833 13.602L27.4634 12.8338L27.7035 12.5937L28.0876 12.1136L28.9998 11.2014L29.528 10.8172L29.72 10.6252L30.3442 10.2411L31.1604 9.80898L31.8326 9.5209L33.0329 9.18481L33.8011 9.04077Z" fill="#723386"/>
<path d="M55.791 0.0144043H57.0874L58.0476 0.158443L59.344 0.494533L60.0642 0.830623L60.9284 1.31075L61.6966 1.93492L62.1767 2.36704L62.5608 2.75114L63.0409 3.37531L63.4731 3.99947L63.8092 4.67165L64.1933 5.63191L64.4333 6.49614V7.02429L62.9929 6.73621L61.8406 6.64018H61.2645L60.4483 6.6882L59.536 6.83223L58.4797 7.12031L57.5675 7.4564L56.6552 7.93653H56.5592L55.9831 6.73621L55.3589 5.72794L54.8788 5.10377L54.4466 4.57563L53.8705 3.95146L53.2943 3.42332L52.4781 2.79915L51.7579 2.31902L51.2298 2.03095L51.1818 1.88691L52.046 1.26274L53.1983 0.638572L53.6784 0.44652L54.7827 0.158443L55.791 0.0144043Z" fill="#889D2F"/>
<path d="M43.4037 58.446H47.4368L48.205 58.6381L48.7331 58.9262L49.0692 59.2623L49.3093 59.7424L49.3573 59.9344V60.7507L49.1652 61.2308L48.7331 61.7109L48.5891 61.855L49.0692 62.143L49.4053 62.4791L49.6454 62.9593L49.6934 63.1993V63.9675L49.5493 64.4957L49.2613 64.8798L48.7331 65.2639L47.9649 65.5039L47.6768 65.552H43.4037V58.446ZM44.748 59.5023V61.4228H47.0046L47.4848 61.2788L47.8689 60.9907L47.9649 60.7027V60.2225L47.8689 59.9825L47.5328 59.6944L47.1487 59.5503L46.8606 59.5023H44.748ZM44.604 61.4709V62.4311L44.7 62.4791V61.4709H44.604ZM44.7961 62.4791L44.748 62.5271V64.4957H47.1007L47.7729 64.3516L48.157 64.1116L48.349 63.7275V63.2473L48.205 62.9593L47.8689 62.6712L47.5808 62.5271L47.3407 62.4791H44.7961Z" fill="#23373E"/>
<path d="M60.7363 58.446H64.5774L65.3456 58.6381L65.9217 58.8782L66.4979 59.2143L66.93 59.5984L67.3621 60.2705L67.6022 60.7987L67.7462 61.3748V62.6232L67.6022 63.2473L67.1701 64.0636L66.834 64.4957L66.2098 64.9758L65.3936 65.3599L64.5294 65.552H60.7363V58.446ZM62.0807 59.5984V64.3996H64.1453L64.8174 64.2556L65.4896 63.9195L65.9697 63.4394L66.2578 62.9112L66.3538 62.5271V61.4709L66.1618 60.8467L65.8257 60.4146L65.4896 60.0785L64.8174 59.7424L64.1933 59.5984H62.0807Z" fill="#24383F"/>
<path d="M92.0407 58.446H93.193L93.8172 59.2143L94.3454 59.8864L95.0175 60.7027L95.3536 61.0868L95.6417 61.5189L95.8818 61.7589L96.4099 62.3831L96.938 63.0553L97.0341 63.1033V58.446H98.3304V65.552H97.1781L96.842 65.0718L96.602 64.8318L96.1218 64.2556L95.7377 63.7755L95.2096 63.1033L94.5854 62.3351L94.0573 61.6629L93.7212 61.2788L93.4331 60.8947L93.3851 65.552H92.0407V58.446Z" fill="#23363D"/>
<path d="M25.927 58.446H27.0313L27.4154 58.8782L28.1836 59.8384V59.9344L28.3756 60.0305L28.9038 60.7027L29.4319 61.3268L29.9121 61.951L30.5842 62.7672L30.8243 63.1033L30.8723 58.446H32.2167V65.552H31.0644L30.6803 65.0718L30.1521 64.3996L29.72 63.9195L29.3839 63.4394L29.1439 63.1993L28.5197 62.4311L27.9915 61.7589L27.3674 60.9907L27.3194 60.8467H27.2233V65.552H25.927V58.446Z" fill="#23373E"/>
<path d="M68.9465 58.446H74.1799V59.5984H70.3389V61.3748H73.7478V62.4791H70.3389V64.3996H74.324V65.552H68.9465V58.446Z" fill="#27393F"/>
<path d="M19.5893 58.446H24.7747V59.5984H20.9336V61.3748H24.3426V62.4791H20.9336V64.3996H24.9187V65.552H19.5893V58.446Z" fill="#25373D"/>
<path d="M87.1914 58.3501H88.6318L89.4 58.5421L90.1682 58.9263L90.6964 59.3584L90.7924 59.5504L90.4083 59.9345L90.0242 60.2706L89.8321 60.3186L89.4961 60.0305L88.9199 59.7425L88.4398 59.5984H87.4795L86.8553 59.7905L86.2312 60.1746L85.8951 60.5587L85.607 61.0388L85.463 61.5189V62.4312L85.655 63.0554L85.9431 63.4875L86.2312 63.8236L86.6633 64.1116L87.0954 64.3037L87.5275 64.3997H88.3918L88.9679 64.2557L89.352 64.0636L89.4 61.9031H90.6484V64.7838L90.4083 64.9759L89.5921 65.408L88.5838 65.6481L88.1037 65.6961H87.6716L86.9514 65.6L86.3272 65.408L85.511 64.9759L84.9348 64.4477L84.5507 63.9196L84.2146 63.1994L84.0706 62.5752V61.3749L84.2146 60.7988L84.5987 59.9825L84.9828 59.5024L85.3189 59.1663L85.9431 58.7822L86.5673 58.4941L87.1914 58.3501Z" fill="#253A41"/>
<path d="M8.30626 58.446H9.65062L10.0347 59.1662L10.4668 60.1745L10.7549 60.7987L11.235 61.855L11.4271 62.3351L11.7632 63.0073L12.1473 63.8715L12.6274 64.9758L12.8675 65.4559L12.8195 65.552H11.3791L11.091 64.7837L10.7549 64.0636L10.7069 63.9675L7.20196 63.9195L7.05792 64.4477L6.67382 65.2639L6.52978 65.552H5.13741L5.52151 64.5917L6.00164 63.5834L6.38574 62.6712L6.81786 61.7589L7.39401 60.4626L7.87414 59.4543L8.11421 58.8301L8.30626 58.446ZM8.93043 59.9344L8.30626 61.3748L7.92215 62.2391L7.7301 62.7192V62.8632H10.2748L10.1788 62.5271L9.9387 62.047L9.17049 60.2225L9.02645 59.9344H8.93043Z" fill="#253940"/>
<path d="M77.0607 58.3501H78.5491L79.4133 58.5421L80.1816 58.9263L80.2296 59.0703L79.8455 59.9825L79.7494 60.0305L78.9332 59.6945L78.4051 59.5504L78.021 59.5024H77.5889L77.0607 59.5984L76.6286 59.8385L76.3885 60.1266L76.3405 60.5587L76.4846 60.7988V60.8948L77.0607 61.1829L78.6932 61.615L79.1253 61.711L79.5094 61.9031L79.9895 62.2391L80.3256 62.6232L80.4696 63.0554V63.9676L80.3736 64.3517L80.0375 64.8799L79.5094 65.264L78.9812 65.504L78.4051 65.6481L77.3968 65.6961L76.5806 65.6L75.7644 65.36L74.9962 64.9759L74.8041 64.8318L74.9481 64.3997L75.2842 63.7275L75.5723 63.9196L75.9564 64.1116L76.8206 64.3997L77.5408 64.4957L78.213 64.4477L78.6932 64.3037L78.8852 64.1597H78.9812L79.0773 63.9196L79.1253 63.4875L79.0773 63.2474H78.9812V63.1514H78.8852L78.7412 63.0073L78.117 62.7673L77.1567 62.5272L76.5326 62.3832L75.7644 61.9991L75.3803 61.711L75.0922 61.2789L74.9481 60.7507V60.2226L75.1402 59.5984L75.4283 59.1663L75.8124 58.8302L76.5806 58.4461L77.0607 58.3501Z" fill="#283B42"/>
<path d="M52.7182 14.0339H53.0063L53.0543 14.0819V17.1548L52.9102 19.8915L52.7662 21.4759L52.4781 23.6365L52.238 25.0769L51.8059 27.1895L51.4218 28.5338L51.3258 28.6299L51.1818 25.6531V21.1398L51.3258 16.7227L51.3738 14.274L52.2861 14.0819L52.7182 14.0339Z" fill="#879C2D"/>
<path d="M60.8804 17.2991H60.9764L61.5045 17.9713L61.8886 18.4994L62.3688 19.3636L62.8009 20.2759V20.4679L61.1684 21.2361L60.1602 21.8123L59.1999 22.4365L58.5277 22.9166L57.7595 23.5407L57.2794 23.9729L56.8953 24.309L56.1751 25.0291L55.743 25.5573L55.4549 25.8934L55.4069 25.7493L55.887 24.645L56.3672 23.6368L56.9433 22.5805L57.5195 21.6202L58.1916 20.612L58.8158 19.7477L59.344 19.0755L59.8721 18.4514L60.3042 17.9232L60.6403 17.5871L60.8804 17.2991Z" fill="#879D2E"/>
<path d="M48.397 15.4746L48.493 15.5706L48.5411 18.0193L48.6371 20.4199V26.2775L48.493 28.6782L48.397 28.4861L48.0129 27.1417L47.5808 25.0292L47.2927 23.2527L47.1007 21.8123L46.8606 19.1236L46.8126 18.1153V16.7229L47.3407 16.2428L48.253 15.5706L48.397 15.4746Z" fill="#879C2D"/>
<path d="M49.7414 58.446H51.1818L51.6139 59.1182L52.094 59.8864L52.6702 60.8467L52.9102 61.1828L53.1983 61.7109V61.8069H53.2943L53.3423 61.6149H53.4384L53.5344 61.3748L54.1106 60.3666L54.5427 59.6944L54.7827 59.2623L55.3109 58.446H56.6552L56.4632 58.8301L55.743 60.0305L55.3589 60.6546L54.5907 61.951L53.9185 63.0073L53.8705 65.552H52.5261L52.4781 63.0553L51.8539 61.951L51.5179 61.4709L50.9897 60.5586L50.5096 59.7904L50.2215 59.3103L49.7414 58.5421V58.446Z" fill="#263A41"/>
<path d="M33.0809 58.446H39.1786V59.5984H36.8259V65.552H35.4816L35.4335 65.5039V59.5984H33.0809V58.446Z" fill="#253841"/>
<path d="M3.43323e-05 58.446H6.04966V59.5984H3.69703V65.552H2.30465V59.5984H3.43323e-05V58.446Z" fill="#243840"/>
<path d="M13.6357 58.446H14.9801V64.3996H18.677V65.552H13.6357V58.446Z" fill="#25383C"/>
<path d="M81.4779 58.446H82.8223L82.8703 58.4941V65.5039L82.8223 65.552H81.4779V58.446Z" fill="#263B44"/>
<path d="M55.9831 14.322L56.7513 14.5141L57.3754 14.7541L58.4797 15.2823L58.6718 15.4263H58.5758L58.4797 15.6184L58.1436 15.9545L57.7115 16.4826L57.2794 16.9627L56.7993 17.5869L56.1751 18.4031L55.9831 18.6912H55.935L55.9831 16.5786V14.322Z" fill="#879C2D"/>
<path d="M63.137 68.2407H63.4731L63.9532 68.8169L64.2893 69.201L64.9615 70.0652L65.7297 71.0255L65.7777 68.2887L65.8257 68.2407H66.2098L66.2578 68.2887V71.9377H65.8257L65.2976 71.2655L64.8654 70.6894L64.6254 70.4493L64.4333 70.1612L64.3853 70.0172L64.1933 69.9212L63.6171 69.153L63.5691 71.9377H63.089V68.2887L63.137 68.2407Z" fill="#45555D"/>
<path d="M31.7846 68.2407H32.8889L33.369 68.4328L33.7531 68.7209L34.0412 69.0569L34.2332 69.4891L34.2812 69.6811V70.5453L34.0892 71.0255L33.8011 71.4096L33.465 71.6977L32.9369 71.9377L32.6968 71.9857H32.0246L31.4005 71.7937L30.9683 71.5056L30.6322 71.1215L30.4402 70.6894L30.3922 70.4973V69.6811L30.5362 69.249L30.8723 68.8169L31.2564 68.4808L31.5925 68.2887L31.7846 68.2407ZM31.9766 68.6248L31.5445 68.8169L31.2084 69.0569L30.9203 69.5371L30.8243 69.8732V70.3533L30.9683 70.7854L31.2564 71.2175L31.5925 71.4576L31.8326 71.5536H32.8408L33.2249 71.3616L33.513 71.1215L33.7531 70.7374L33.8491 70.3053V69.8732L33.7051 69.345L33.369 68.9609L32.8889 68.6728L32.7448 68.6248H31.9766Z" fill="#384E56"/>
<path d="M56.5592 68.2407H59.1039V68.6248H56.9913V69.9212H58.8638V70.2573H56.9913V71.5536H59.1519L59.1999 71.6016V71.9377H56.5112V68.2887L56.5592 68.2407Z" fill="#3B5359"/>
<path d="M41.1951 68.2407H43.7398L43.7878 68.3367L43.7398 68.6248H41.6272V69.9212H43.5477V70.2573H41.6272V71.5536H43.7878V71.9377H41.1951V68.2407Z" fill="#2F4F56"/>
<path d="M68.3704 68.2407H69.5227L70.1949 68.5768L70.3389 68.7209L70.2429 68.9129L70.0988 69.0569L69.9068 68.9609L69.5227 68.7209L69.3306 68.6728H68.6104L68.1303 68.8649L67.7462 69.201L67.5061 69.7291L67.4581 70.1612L67.5542 70.6414L67.8902 71.1215L68.1303 71.3616L68.4664 71.5056H69.4267L69.8108 71.3135L70.0028 71.1695L70.1949 71.2655L70.3389 71.4576L69.9548 71.7457L69.5227 71.9377L69.2826 71.9857H68.6104L67.9863 71.7937L67.5061 71.4576L67.2181 71.0735L67.074 70.7854L67.026 70.4493V69.7291L67.122 69.345L67.4101 68.8649L67.7942 68.5288L68.3704 68.2407Z" fill="#3A4F59"/>
<path d="M28.2316 68.2407H29.3359L29.816 68.4328L30.1521 68.7209L30.0561 68.9129L29.864 69.0569L29.624 68.8649L29.1919 68.6728H28.4237L27.9435 68.8649L27.6074 69.153L27.3674 69.6331L27.3194 69.7771V70.4493L27.5594 70.9294L27.8475 71.2655L28.2796 71.5056H29.2879L29.768 71.2175H29.9601L30.1521 71.4096L30.1041 71.5536L29.5279 71.8897L29.1438 71.9857H28.4237L27.7995 71.7937L27.3194 71.4576L27.0313 71.0255L26.8872 70.5934L26.8392 70.3053V69.8251L27.0313 69.201L27.3194 68.7689L27.8475 68.3848L28.2316 68.2407Z" fill="#384E57"/>
<path d="M30.4402 49.4678H32.2167V51.3403H30.4402L30.3922 51.2923V49.5158L30.4402 49.4678Z" fill="#243941"/>
<path d="M45.6123 68.2407H46.7166L47.2927 68.5288L47.5328 68.7209L47.4368 68.9129L47.2447 69.0569L46.8126 68.7689L46.5245 68.6728H45.8043L45.3242 68.8649L44.9401 69.201L44.748 69.5851L44.652 70.0172L44.7 70.4973L44.9401 70.9775L45.3722 71.3616L45.7083 71.5056H46.6686L46.9566 71.3616L47.1967 71.1695L47.3887 71.2655L47.5328 71.4576L47.1967 71.7457L46.7166 71.9377L46.4765 71.9857H45.8043L45.3242 71.8417L44.8441 71.5536L44.508 71.1695L44.2679 70.6894L44.2199 70.4493V69.7771L44.3639 69.297L44.604 68.8649L45.0361 68.4808L45.6123 68.2407Z" fill="#384D55"/>
<path d="M57.8556 22.3884H58.8638L59.1519 22.4364L58.9118 22.6285L58.2877 23.1086L57.7595 23.5407L57.2794 23.9729L56.8953 24.3089L56.1751 25.0291L55.743 25.5573L55.4549 25.8934L55.4069 25.7493L55.887 24.645L56.3672 23.6368L56.9433 22.5805L57.0393 22.4845L57.8556 22.3884Z" fill="#5BC3CC"/>
<path d="M52.3821 68.2407H52.7662L52.9102 68.4328L53.1023 68.9129L53.7265 70.2573L54.0625 71.0735L54.1586 71.3135L54.4947 70.6414L54.7347 70.0652L55.3109 68.8169L55.5029 68.3367L55.599 68.2407H55.9831L55.935 68.5288L55.4549 69.5371L55.2149 70.1612L54.7347 71.1695L54.4466 71.8897L54.3986 71.9377H53.9185L53.4384 70.7854L53.1023 70.1132L52.7182 69.201L52.3341 68.3367L52.3821 68.2407Z" fill="#364D55"/>
<path d="M49.6454 52.6846H51.3258V54.413H49.5973V52.7326L49.6454 52.6846Z" fill="#1F373F"/>
<path d="M47.8209 68.2407H50.7977V68.6248H49.5493V71.9377H49.0692V68.6248H47.8209V68.2407Z" fill="#3B5B5A"/>
<path d="M38.1703 68.2407H38.5064L38.5544 68.2887V71.5536H40.6189V71.9377H38.1223V68.2887L38.1703 68.2407Z" fill="#27424C"/>
<path d="M35.0975 68.2407H35.4816V71.5536H37.4981L37.5461 71.6016V71.9377H35.0975V68.2407Z" fill="#293C41"/>
<path d="M59.68 51.8684H61.0244V53.2608H59.68L59.632 53.2128V51.9164L59.68 51.8684Z" fill="#2F424C"/>
<path d="M67.4101 50.6199H68.7545V52.0122H67.4101V50.6199Z" fill="#21363C"/>
<path d="M66.4979 48.6995H67.8902V50.0438H66.4979V48.6995Z" fill="#2B3E46"/>
<path d="M51.3738 68.2407H51.7579L51.8059 68.2887V71.9377H51.3258V68.2887L51.3738 68.2407Z" fill="#435663"/>
<path d="M61.6966 68.2407H62.0807V71.9377H61.6966V68.2407Z" fill="#1F3339"/>
<path d="M52.4781 57.0056H53.5824V58.1099H52.4781V57.0056Z" fill="#314D53"/>
<path d="M23.3823 47.3552H24.3426V47.7393L25.7349 47.6913H27.5114V47.7393L26.3111 47.7873H25.3988V47.8834H24.8707L24.3426 47.8354V48.3155H23.3823V47.3552Z" fill="#243D44"/>
<path d="M52.094 25.3652L52.142 25.5573L51.8059 27.1897L51.4218 28.5341L51.3258 28.6301L51.2298 26.6616L51.6139 25.9894L52.094 25.3652Z" fill="#5BC3CC"/>
<path d="M56.6552 55.5171H57.7115V56.5734L57.6635 56.6214H56.6552V55.5171Z" fill="#34434B"/>
<path d="M49.6454 56.0454H50.6536V57.1017H49.5973V56.0934L49.6454 56.0454Z" fill="#1D353E"/>
<path d="M66.4979 53.4526H67.4581V54.4129H66.4979V53.4526Z" fill="#38454E"/>
<path d="M69.9068 48.9395H70.8671V49.8997H69.9068V48.9395Z" fill="#30434C"/>
<path d="M69.4747 52.6846H70.3869L70.4349 52.7326V53.6448H69.4747V52.6846Z" fill="#334953"/>
<path d="M24.6306 48.4595H25.5429V49.4197H24.5826V48.5075L24.6306 48.4595Z" fill="#284A53"/>
<path d="M61.5526 54.2209H62.1767V54.9411H61.5045V54.269L61.5526 54.2209Z" fill="#355660"/>
<path d="M42.7795 24.1169L43.7878 24.309L43.8838 25.2693L43.5477 24.9812L43.2116 24.5971L42.7795 24.165V24.1169Z" fill="#007AC7"/>
<path d="M46.8126 53.5967H47.4848V54.2689H46.8126V53.5967Z" fill="#3D4E54"/>
<path d="M70.9631 50.3318H71.5872V50.9079H70.9631V50.3318Z" fill="#3A575C"/>
<path d="M74.372 48.5073H74.9481V49.1315H74.372V48.5073Z" fill="#2B3E4B"/>
<path d="M23.3823 47.3552H24.3426V47.7393L25.7349 47.6913H27.5114V47.7393L26.3111 47.7873H25.3988V47.8834H24.8707L24.3426 47.8354L24.2945 47.7873V47.4032H23.3823V47.3552Z" fill="#749ABA"/>
<path d="M71.1071 71.3616L71.3952 71.4096L71.4912 71.5536L71.4432 71.8417L71.2992 71.9857H71.0591L70.9151 71.8417L70.8671 71.6016L71.1071 71.3616Z" fill="#3C535B"/>
<path d="M43.7878 24.4529L43.8838 24.5009L44.46 25.7972L44.4119 25.9413L43.8838 25.3171L43.7878 24.741V24.4529Z" fill="#879D2E"/>
<path d="M45.0361 68.4807L45.1321 68.5287L44.556 69.1049L44.508 69.0089L44.8441 68.6248L45.0361 68.4807Z" fill="#80889D"/>
<path d="M27.6074 68.5286L27.7035 68.5766L27.1753 69.1047V68.9607L27.4154 68.6726L27.6074 68.5286Z" fill="#74839B"/>
</g>
<defs>
<clipPath id="clip0_607_2695">
<rect width="98.3304" height="72" fill="white"/>
</clipPath>
</defs>
</svg>
