<svg width="768" height="401" viewBox="0 0 768 401" fill="none" xmlns="http://www.w3.org/2000/svg">
<path opacity="0.1" d="M674.408 280.779C726.098 229.089 726.098 145.284 674.408 93.5945C622.719 41.905 538.913 41.9049 487.224 93.5944C435.534 145.284 435.534 229.089 487.224 280.779C538.913 332.468 622.719 332.468 674.408 280.779Z" fill="#448CD2"/>
<path d="M615.5 328.802L595.138 306.248C585.685 307.372 575.971 307.372 566.517 306.248L546.155 328.802L544.917 328.488C531.35 325.054 518.358 319.668 506.303 312.479L505.206 311.824L506.757 281.489C499.238 275.576 492.439 268.777 486.524 261.255L456.188 262.805L455.533 261.708C448.347 249.655 442.961 236.663 439.525 223.092L439.211 221.854L461.762 201.496C461.199 196.769 460.915 191.961 460.915 187.185C460.915 182.41 461.199 177.601 461.762 172.874L439.211 152.513L439.525 151.274C442.961 137.704 448.347 124.712 455.533 112.66L456.188 111.563L486.521 113.115C492.437 105.592 499.236 98.7918 506.757 92.8782L505.206 62.5427L506.303 61.8881C518.355 54.7013 531.347 49.3151 544.917 45.8789L546.155 45.5654L566.518 68.1196C575.981 66.995 585.674 66.995 595.137 68.1196L615.5 45.5659L616.738 45.8793C630.307 49.3146 643.299 54.7005 655.353 61.8881L656.45 62.5427L654.898 92.8782C662.42 98.7935 669.22 105.593 675.135 113.115L705.467 111.563L706.122 112.66C713.308 124.71 718.694 137.703 722.131 151.274L722.445 152.513L699.894 172.874C700.456 177.607 700.741 182.416 700.741 187.186C700.741 191.955 700.456 196.764 699.894 201.495L722.445 221.854L722.131 223.092C718.694 236.664 713.308 249.656 706.122 261.708L705.467 262.805L675.132 261.255C669.218 268.776 662.419 275.575 654.898 281.489L656.45 311.824L655.353 312.479C643.296 319.668 630.304 325.054 616.738 328.488L615.5 328.802ZM596.803 301.762L616.931 324.058C629.243 320.822 641.058 315.924 652.083 309.483L650.548 279.494L651.428 278.815C659.305 272.739 666.38 265.663 672.457 257.786L673.136 256.906L703.125 258.438C709.563 247.416 714.461 235.603 717.7 223.286L695.409 203.162L695.549 202.061C696.179 197.152 696.499 192.147 696.499 187.186C696.499 182.224 696.18 177.219 695.549 172.31L695.409 171.21L717.7 151.082C714.461 138.763 709.562 126.951 703.125 115.93L673.139 117.465L672.461 116.585C666.383 108.707 659.306 101.63 651.428 95.5523L650.548 94.8737L652.083 64.8845C641.059 58.4449 629.246 53.5471 616.931 50.3098L596.803 72.6042L595.703 72.4639C585.885 71.2042 575.772 71.2042 565.952 72.4639L564.851 72.6042L544.723 50.3094C532.407 53.5475 520.594 58.4454 509.572 64.8845L511.105 94.8737L510.226 95.5523C502.349 101.629 495.273 108.705 489.194 116.585L488.516 117.465L458.529 115.93C452.09 126.952 447.192 138.764 443.955 151.082L466.247 171.21L466.106 172.311C465.476 177.212 465.156 182.217 465.156 187.185C465.156 192.154 465.476 197.159 466.106 202.06L466.247 203.162L443.955 223.286C447.193 235.603 452.09 247.416 458.529 258.438L488.519 256.906L489.198 257.786C495.275 265.664 502.35 272.74 510.226 278.815L511.105 279.494L509.572 309.483C520.596 315.924 532.409 320.821 544.723 324.058L564.851 301.762L565.953 301.904C575.756 303.163 585.9 303.163 595.702 301.904L596.803 301.762Z" fill="#448CD2"/>
<path opacity="0.1" d="M280.776 280.777C332.466 229.087 332.466 145.282 280.776 93.5925C229.087 41.903 145.282 41.903 93.5921 93.5925C41.9026 145.282 41.9026 229.087 93.5921 280.777C145.282 332.466 229.087 332.466 280.776 280.777Z" fill="#2D5D8C"/>
<path d="M152.521 328.803L151.283 328.489C137.713 325.053 124.721 319.666 112.668 312.48L111.57 311.825L113.122 281.489C105.601 275.575 98.8029 268.777 92.8894 261.256L62.553 262.804L61.8993 261.708C54.713 249.657 49.3263 236.665 45.8896 223.093L45.5762 221.855L68.1268 201.496C67.5649 196.766 67.2803 191.957 67.2803 187.186C67.2803 182.414 67.5649 177.606 68.1268 172.876L45.5762 152.514L45.8896 151.275C49.3263 137.704 54.713 124.712 61.8993 112.661L62.5534 111.564L92.8854 113.116C98.799 105.594 105.599 98.7945 113.122 92.8792L111.57 62.5437L112.667 61.8891C124.721 54.7024 137.712 49.3156 151.282 45.8799L152.52 45.5664L172.882 68.1205C182.347 66.996 192.038 66.996 201.503 68.1205L221.865 45.5664L223.103 45.8799C236.673 49.3156 249.664 54.7024 261.718 61.8891L262.815 62.5437L261.263 92.8792C268.785 98.7936 275.584 105.593 281.5 113.116L311.832 111.564L312.486 112.661C319.672 124.711 325.058 137.704 328.496 151.275L328.809 152.514L306.259 172.876C306.821 177.606 307.105 182.414 307.105 187.186C307.105 191.957 306.821 196.766 306.259 201.496L328.81 221.855L328.496 223.093C325.058 236.665 319.672 249.657 312.486 261.708L311.833 262.804L281.496 261.256C275.583 268.777 268.785 275.575 261.263 281.489L262.815 311.825L261.718 312.48C249.662 319.668 236.67 325.054 223.103 328.489L221.865 328.803L201.503 306.248C192.051 307.374 182.335 307.374 172.882 306.248L152.521 328.803ZM203.169 301.763L223.297 324.059C235.611 320.823 247.424 315.924 258.449 309.484L256.914 279.494L257.793 278.816C265.671 272.738 272.746 265.664 278.822 257.787L279.501 256.907L309.491 258.438C315.929 247.417 320.826 235.605 324.065 223.286L301.774 203.162L301.915 202.061C302.544 197.155 302.863 192.149 302.863 187.185C302.863 182.221 302.544 177.217 301.915 172.31L301.774 171.21L324.065 151.082C320.826 138.763 315.928 126.951 309.491 115.93L279.504 117.465L278.826 116.585C272.747 108.706 265.671 101.63 257.793 95.5524L256.914 94.8739L258.449 64.8846C247.425 58.4451 235.613 53.5472 223.297 50.3095L203.169 72.6044L202.068 72.464C192.25 71.2043 182.136 71.2043 172.318 72.464L171.217 72.6044L151.089 50.3095C138.773 53.5476 126.96 58.4455 115.937 64.8846L117.472 94.8739L116.593 95.5524C108.713 101.631 101.637 108.707 95.56 116.585L94.8819 117.465L64.8952 115.93C58.457 126.95 53.5591 138.763 50.3205 151.082L72.6124 171.21L72.4711 172.31C71.842 177.217 71.5228 182.221 71.5228 187.185C71.5228 192.149 71.8415 197.155 72.4711 202.061L72.6124 203.162L50.3205 223.286C53.5596 235.605 58.457 247.417 64.8952 258.438L94.8854 256.907L95.5635 257.787C101.64 265.664 108.715 272.738 116.593 278.816L117.472 279.494L115.937 309.484C126.961 315.923 138.773 320.821 151.089 324.059L171.217 301.763L172.318 301.904C182.123 303.164 192.264 303.164 202.068 301.904L203.169 301.763Z" fill="#2D5D8C"/>
<path d="M128.593 187.185C128.593 154.82 154.829 128.584 187.193 128.584H580.827C613.191 128.584 639.428 154.82 639.428 187.185C639.428 219.549 613.191 245.786 580.827 245.786H187.193C154.829 245.785 128.593 219.549 128.593 187.185Z" fill="url(#paint0_linear_874_1080)"/>
<path d="M580.827 248.034H187.193C153.64 248.034 126.344 220.737 126.344 187.184C126.344 153.632 153.641 126.335 187.193 126.335H580.827C614.38 126.335 641.676 153.632 641.676 187.184C641.676 220.737 614.38 248.034 580.827 248.034ZM187.193 130.832C156.121 130.832 130.841 156.112 130.841 187.184C130.841 218.257 156.121 243.537 187.193 243.537H580.827C611.9 243.537 637.179 218.257 637.179 187.184C637.179 156.112 611.9 130.832 580.827 130.832H187.193Z" fill="white"/>
<path d="M341.146 159.733C341.706 159.733 342.196 159.943 342.615 160.362C343.058 160.759 343.28 161.26 343.28 161.866V182.084C343.28 182.69 343.058 183.203 342.615 183.623C342.172 184.02 341.659 184.218 341.076 184.218C340.423 184.218 339.899 184.02 339.502 183.623C339.106 183.203 338.908 182.69 338.908 182.084V161.866C338.908 161.26 339.117 160.759 339.537 160.362C339.957 159.943 340.493 159.733 341.146 159.733ZM356.642 159.733C357.295 159.733 357.819 159.943 358.216 160.362C358.612 160.759 358.81 161.26 358.81 161.866V182.084C358.81 182.69 358.601 183.203 358.181 183.623C357.784 184.02 357.248 184.218 356.572 184.218C356.012 184.218 355.511 184.02 355.068 183.623C354.648 183.203 354.438 182.69 354.438 182.084V161.866C354.438 161.26 354.66 160.759 355.103 160.362C355.546 159.943 356.059 159.733 356.642 159.733ZM341.041 169.912H356.642V173.934H341.041V169.912ZM371.919 182.084C371.919 182.69 371.697 183.203 371.254 183.623C370.811 184.02 370.298 184.218 369.715 184.218C369.062 184.218 368.537 184.02 368.141 183.623C367.744 183.203 367.546 182.69 367.546 182.084V161.866C367.546 161.26 367.756 160.759 368.176 160.362C368.596 159.943 369.132 159.733 369.785 159.733C370.345 159.733 370.834 159.943 371.254 160.362C371.697 160.759 371.919 161.26 371.919 161.866V182.084ZM392.22 184.568C390.448 184.568 388.792 184.241 387.253 183.588C385.714 182.935 384.361 182.037 383.195 180.895C382.029 179.729 381.108 178.388 380.432 176.872C379.779 175.357 379.453 173.724 379.453 171.975C379.453 170.226 379.779 168.594 380.432 167.078C381.108 165.563 382.029 164.233 383.195 163.091C384.361 161.925 385.714 161.015 387.253 160.362C388.792 159.709 390.448 159.383 392.22 159.383C393.316 159.383 394.377 159.5 395.403 159.733C396.429 159.966 397.373 160.316 398.236 160.782C398.586 160.969 398.842 161.225 399.006 161.552C399.192 161.855 399.285 162.17 399.285 162.496C399.285 163.056 399.099 163.557 398.726 164C398.353 164.443 397.875 164.665 397.292 164.665C397.105 164.665 396.907 164.641 396.697 164.595C396.51 164.548 396.324 164.478 396.137 164.385C395.554 164.128 394.936 163.93 394.284 163.79C393.631 163.65 392.943 163.58 392.22 163.58C390.704 163.58 389.317 163.965 388.057 164.735C386.821 165.481 385.83 166.495 385.084 167.778C384.361 169.037 384 170.436 384 171.975C384 173.491 384.361 174.89 385.084 176.173C385.83 177.455 386.821 178.481 388.057 179.251C389.317 179.997 390.704 180.37 392.22 180.37C392.919 180.37 393.689 180.3 394.528 180.16C395.368 180.02 396.056 179.834 396.592 179.601L396.277 180.65V174.669L396.872 175.193H392.989C392.383 175.193 391.87 174.995 391.45 174.599C391.054 174.202 390.856 173.701 390.856 173.095C390.856 172.488 391.054 171.987 391.45 171.591C391.87 171.194 392.383 170.996 392.989 170.996H398.726C399.332 170.996 399.833 171.206 400.23 171.626C400.626 172.022 400.825 172.523 400.825 173.13V180.545C400.825 181.011 400.708 181.396 400.475 181.699C400.265 182.002 400.02 182.247 399.74 182.434C398.668 183.087 397.49 183.611 396.207 184.008C394.948 184.381 393.619 184.568 392.22 184.568ZM410.769 159.733C411.328 159.733 411.818 159.943 412.238 160.362C412.681 160.759 412.902 161.26 412.902 161.866V182.084C412.902 182.69 412.681 183.203 412.238 183.623C411.795 184.02 411.282 184.218 410.699 184.218C410.046 184.218 409.521 184.02 409.125 183.623C408.728 183.203 408.53 182.69 408.53 182.084V161.866C408.53 161.26 408.74 160.759 409.159 160.362C409.579 159.943 410.116 159.733 410.769 159.733ZM426.264 159.733C426.917 159.733 427.442 159.943 427.838 160.362C428.234 160.759 428.433 161.26 428.433 161.866V182.084C428.433 182.69 428.223 183.203 427.803 183.623C427.407 184.02 426.87 184.218 426.194 184.218C425.634 184.218 425.133 184.02 424.69 183.623C424.27 183.203 424.06 182.69 424.06 182.084V161.866C424.06 161.26 424.282 160.759 424.725 160.362C425.168 159.943 425.681 159.733 426.264 159.733ZM410.664 169.912H426.264V173.934H410.664V169.912ZM252.077 191.733C253.29 191.733 254.421 192.083 255.47 192.782C256.543 193.482 257.406 194.426 258.059 195.615C258.712 196.805 259.038 198.134 259.038 199.603C259.038 201.049 258.712 202.366 258.059 203.556C257.406 204.745 256.543 205.701 255.47 206.424C254.421 207.123 253.29 207.473 252.077 207.473H245.641L245.991 206.844V214.084C245.991 214.69 245.805 215.203 245.431 215.623C245.058 216.02 244.569 216.218 243.962 216.218C243.379 216.218 242.901 216.02 242.528 215.623C242.155 215.203 241.969 214.69 241.969 214.084V193.866C241.969 193.26 242.167 192.759 242.563 192.362C242.983 191.943 243.496 191.733 244.102 191.733H252.077ZM252.077 203.486C252.52 203.486 252.952 203.299 253.372 202.926C253.791 202.553 254.141 202.075 254.421 201.492C254.701 200.886 254.841 200.256 254.841 199.603C254.841 198.927 254.701 198.297 254.421 197.714C254.141 197.131 253.791 196.665 253.372 196.315C252.952 195.942 252.52 195.755 252.077 195.755H245.571L245.991 195.126V204.045L245.606 203.486H252.077ZM268.676 191.733H280.394C281 191.733 281.502 191.931 281.898 192.327C282.318 192.701 282.528 193.19 282.528 193.797C282.528 194.38 282.318 194.858 281.898 195.231C281.502 195.58 281 195.755 280.394 195.755H270.6L270.915 195.161V201.982L270.635 201.702H278.82C279.426 201.702 279.928 201.9 280.324 202.296C280.744 202.669 280.954 203.159 280.954 203.765C280.954 204.348 280.744 204.826 280.324 205.2C279.928 205.549 279.426 205.724 278.82 205.724H270.74L270.915 205.444V212.51L270.635 212.195H280.394C281 212.195 281.502 212.405 281.898 212.825C282.318 213.221 282.528 213.688 282.528 214.224C282.528 214.807 282.318 215.285 281.898 215.658C281.502 216.031 281 216.218 280.394 216.218H268.676C268.07 216.218 267.557 216.02 267.137 215.623C266.741 215.203 266.542 214.69 266.542 214.084V193.866C266.542 193.26 266.741 192.759 267.137 192.362C267.557 191.943 268.07 191.733 268.676 191.733ZM292.576 216.218C291.923 216.218 291.34 216.02 290.827 215.623C290.314 215.203 290.057 214.69 290.057 214.084V193.866C290.057 193.26 290.255 192.759 290.652 192.362C291.072 191.943 291.585 191.733 292.191 191.733H302.265C303.477 191.733 304.608 192.059 305.658 192.712C306.73 193.342 307.593 194.228 308.246 195.371C308.899 196.49 309.225 197.784 309.225 199.253C309.225 200.139 309.039 201.002 308.666 201.842C308.316 202.681 307.826 203.439 307.197 204.115C306.59 204.791 305.903 205.316 305.133 205.689L305.168 204.885C305.821 205.235 306.357 205.654 306.777 206.144C307.22 206.61 307.558 207.123 307.791 207.683C308.048 208.219 308.199 208.802 308.246 209.432C308.339 210.015 308.398 210.528 308.421 210.971C308.468 211.414 308.538 211.787 308.631 212.09C308.747 212.393 308.957 212.627 309.26 212.79C309.773 213.093 310.088 213.536 310.205 214.119C310.345 214.679 310.217 215.18 309.82 215.623C309.564 215.926 309.237 216.124 308.841 216.218C308.444 216.288 308.048 216.288 307.651 216.218C307.255 216.124 306.929 216.008 306.672 215.868C306.276 215.635 305.879 215.297 305.483 214.854C305.086 214.387 304.76 213.769 304.503 213C304.27 212.23 304.154 211.239 304.154 210.027C304.154 209.63 304.084 209.269 303.944 208.942C303.804 208.592 303.606 208.301 303.349 208.068C303.093 207.811 302.766 207.625 302.37 207.508C301.973 207.368 301.507 207.298 300.971 207.298H293.905L294.43 206.494V214.084C294.43 214.69 294.266 215.203 293.94 215.623C293.613 216.02 293.159 216.218 292.576 216.218ZM293.94 203.695H302.09C302.51 203.695 302.918 203.509 303.314 203.136C303.711 202.739 304.037 202.215 304.294 201.562C304.55 200.886 304.678 200.151 304.678 199.358C304.678 198.332 304.398 197.481 303.839 196.805C303.302 196.105 302.719 195.755 302.09 195.755H294.01L294.43 194.636V204.535L293.94 203.695ZM319.772 216.218C319.119 216.218 318.583 216.02 318.163 215.623C317.767 215.203 317.569 214.69 317.569 214.084V193.866C317.569 193.26 317.767 192.759 318.163 192.362C318.583 191.943 319.096 191.733 319.702 191.733H331.07C331.677 191.733 332.178 191.931 332.574 192.327C332.994 192.701 333.204 193.19 333.204 193.797C333.204 194.31 332.994 194.764 332.574 195.161C332.178 195.557 331.677 195.755 331.07 195.755H321.626L321.941 195.336V202.366L321.696 201.912H329.496C330.103 201.912 330.604 202.11 331 202.506C331.42 202.879 331.63 203.369 331.63 203.975C331.63 204.488 331.42 204.943 331 205.339C330.604 205.736 330.103 205.934 329.496 205.934H321.626L321.941 205.619V214.084C321.941 214.69 321.719 215.203 321.276 215.623C320.857 216.02 320.355 216.218 319.772 216.218ZM362.927 203.975C362.927 205.724 362.635 207.357 362.052 208.872C361.469 210.388 360.641 211.729 359.569 212.895C358.519 214.037 357.26 214.935 355.791 215.588C354.345 216.241 352.759 216.568 351.034 216.568C349.308 216.568 347.723 216.241 346.277 215.588C344.831 214.935 343.572 214.037 342.499 212.895C341.45 211.729 340.634 210.388 340.051 208.872C339.468 207.357 339.176 205.724 339.176 203.975C339.176 202.226 339.468 200.594 340.051 199.078C340.634 197.563 341.45 196.233 342.499 195.091C343.572 193.925 344.831 193.015 346.277 192.362C347.723 191.709 349.308 191.383 351.034 191.383C352.759 191.383 354.345 191.709 355.791 192.362C357.26 193.015 358.519 193.925 359.569 195.091C360.641 196.233 361.469 197.563 362.052 199.078C362.635 200.594 362.927 202.226 362.927 203.975ZM358.379 203.975C358.379 202.413 358.065 201.002 357.435 199.743C356.805 198.46 355.942 197.446 354.846 196.7C353.75 195.954 352.48 195.58 351.034 195.58C349.588 195.58 348.317 195.954 347.221 196.7C346.125 197.446 345.262 198.449 344.633 199.708C344.026 200.967 343.723 202.39 343.723 203.975C343.723 205.538 344.026 206.96 344.633 208.243C345.262 209.502 346.125 210.505 347.221 211.251C348.317 211.997 349.588 212.37 351.034 212.37C352.48 212.37 353.75 211.997 354.846 211.251C355.942 210.505 356.805 209.502 357.435 208.243C358.065 206.96 358.379 205.538 358.379 203.975ZM372.958 216.218C372.305 216.218 371.722 216.02 371.209 215.623C370.696 215.203 370.44 214.69 370.44 214.084V193.866C370.44 193.26 370.638 192.759 371.034 192.362C371.454 191.943 371.967 191.733 372.573 191.733H382.647C383.86 191.733 384.991 192.059 386.04 192.712C387.113 193.342 387.975 194.228 388.628 195.371C389.281 196.49 389.608 197.784 389.608 199.253C389.608 200.139 389.421 201.002 389.048 201.842C388.698 202.681 388.209 203.439 387.579 204.115C386.973 204.791 386.285 205.316 385.515 205.689L385.55 204.885C386.203 205.235 386.74 205.654 387.159 206.144C387.602 206.61 387.94 207.123 388.174 207.683C388.43 208.219 388.582 208.802 388.628 209.432C388.722 210.015 388.78 210.528 388.803 210.971C388.85 211.414 388.92 211.787 389.013 212.09C389.13 212.393 389.34 212.627 389.643 212.79C390.156 213.093 390.471 213.536 390.587 214.119C390.727 214.679 390.599 215.18 390.202 215.623C389.946 215.926 389.619 216.124 389.223 216.218C388.827 216.288 388.43 216.288 388.034 216.218C387.637 216.124 387.311 216.008 387.054 215.868C386.658 215.635 386.261 215.297 385.865 214.854C385.469 214.387 385.142 213.769 384.886 213C384.652 212.23 384.536 211.239 384.536 210.027C384.536 209.63 384.466 209.269 384.326 208.942C384.186 208.592 383.988 208.301 383.731 208.068C383.475 207.811 383.148 207.625 382.752 207.508C382.356 207.368 381.889 207.298 381.353 207.298H374.287L374.812 206.494V214.084C374.812 214.69 374.649 215.203 374.322 215.623C373.996 216.02 373.541 216.218 372.958 216.218ZM374.322 203.695H382.472C382.892 203.695 383.3 203.509 383.696 203.136C384.093 202.739 384.419 202.215 384.676 201.562C384.932 200.886 385.061 200.151 385.061 199.358C385.061 198.332 384.781 197.481 384.221 196.805C383.685 196.105 383.102 195.755 382.472 195.755H374.392L374.812 194.636V204.535L374.322 203.695ZM400.155 191.698C400.481 191.698 400.819 191.791 401.169 191.978C401.542 192.141 401.822 192.362 402.008 192.642L410.508 205.724L408.759 205.654L417.469 192.642C417.912 192.013 418.483 191.698 419.183 191.698C419.743 191.698 420.244 191.896 420.687 192.292C421.13 192.689 421.352 193.202 421.352 193.832V214.084C421.352 214.69 421.153 215.203 420.757 215.623C420.361 216.02 419.836 216.218 419.183 216.218C418.53 216.218 417.994 216.02 417.574 215.623C417.177 215.203 416.979 214.69 416.979 214.084V197.609L418.343 197.924L411.208 208.802C410.998 209.059 410.73 209.28 410.403 209.467C410.1 209.653 409.785 209.735 409.459 209.712C409.156 209.735 408.841 209.653 408.514 209.467C408.211 209.28 407.955 209.059 407.745 208.802L401.064 198.239L401.973 196.385V214.084C401.973 214.69 401.787 215.203 401.414 215.623C401.041 216.02 400.551 216.218 399.945 216.218C399.362 216.218 398.884 216.02 398.511 215.623C398.137 215.203 397.951 214.69 397.951 214.084V193.832C397.951 193.249 398.161 192.747 398.581 192.327C399.024 191.908 399.548 191.698 400.155 191.698ZM439.097 197.224L431.542 214.994C431.379 215.437 431.122 215.786 430.773 216.043C430.446 216.276 430.085 216.393 429.688 216.393C429.059 216.393 428.592 216.218 428.289 215.868C427.986 215.518 427.834 215.087 427.834 214.574C427.834 214.364 427.869 214.142 427.939 213.909L436.649 192.992C436.835 192.526 437.115 192.164 437.488 191.908C437.885 191.651 438.305 191.546 438.748 191.593C439.167 191.593 439.552 191.721 439.902 191.978C440.275 192.211 440.543 192.549 440.706 192.992L449.311 213.489C449.428 213.793 449.486 214.072 449.486 214.329C449.486 214.959 449.276 215.46 448.856 215.833C448.46 216.206 448.017 216.393 447.527 216.393C447.108 216.393 446.723 216.264 446.373 216.008C446.046 215.751 445.79 215.402 445.603 214.959L438.083 197.434L439.097 197.224ZM432.626 210.726L434.55 206.704H443.994L444.659 210.726H432.626ZM474.519 191.733C475.079 191.733 475.534 191.919 475.883 192.292C476.233 192.666 476.408 193.132 476.408 193.692V214.084C476.408 214.69 476.198 215.203 475.778 215.623C475.382 216.02 474.881 216.218 474.274 216.218C473.971 216.218 473.656 216.171 473.33 216.078C473.027 215.961 472.794 215.81 472.63 215.623L458.884 198.169L459.793 197.609V214.259C459.793 214.819 459.607 215.285 459.234 215.658C458.884 216.031 458.417 216.218 457.834 216.218C457.275 216.218 456.82 216.031 456.47 215.658C456.12 215.285 455.946 214.819 455.946 214.259V193.866C455.946 193.26 456.144 192.759 456.54 192.362C456.96 191.943 457.473 191.733 458.079 191.733C458.406 191.733 458.744 191.803 459.094 191.943C459.443 192.059 459.7 192.246 459.863 192.502L473.19 209.502L472.595 209.922V193.692C472.595 193.132 472.77 192.666 473.12 192.292C473.47 191.919 473.936 191.733 474.519 191.733ZM502.304 192.922C502.911 193.225 503.261 193.703 503.354 194.356C503.47 195.009 503.307 195.604 502.864 196.14C502.561 196.56 502.165 196.793 501.675 196.84C501.208 196.886 500.73 196.793 500.241 196.56C499.681 196.303 499.086 196.105 498.457 195.965C497.85 195.825 497.209 195.755 496.533 195.755C495.274 195.755 494.143 195.954 493.14 196.35C492.161 196.746 491.321 197.318 490.622 198.064C489.922 198.787 489.386 199.65 489.013 200.652C488.663 201.655 488.488 202.763 488.488 203.975C488.488 205.398 488.686 206.634 489.083 207.683C489.502 208.732 490.074 209.607 490.796 210.306C491.519 211.006 492.371 211.531 493.35 211.88C494.329 212.207 495.39 212.37 496.533 212.37C497.163 212.37 497.792 212.312 498.422 212.195C499.051 212.079 499.658 211.869 500.241 211.566C500.73 211.332 501.208 211.251 501.675 211.321C502.165 211.391 502.573 211.636 502.899 212.055C503.365 212.638 503.529 213.245 503.389 213.874C503.272 214.481 502.922 214.924 502.339 215.203C501.733 215.507 501.103 215.763 500.451 215.973C499.821 216.159 499.18 216.299 498.527 216.393C497.874 216.509 497.209 216.568 496.533 216.568C494.854 216.568 493.257 216.299 491.741 215.763C490.248 215.227 488.908 214.434 487.718 213.385C486.552 212.335 485.631 211.029 484.955 209.467C484.279 207.881 483.941 206.051 483.941 203.975C483.941 202.18 484.244 200.524 484.85 199.008C485.48 197.493 486.354 196.187 487.474 195.091C488.616 193.971 489.957 193.109 491.496 192.502C493.035 191.873 494.714 191.558 496.533 191.558C497.559 191.558 498.562 191.675 499.541 191.908C500.521 192.141 501.442 192.479 502.304 192.922ZM512.726 191.733H524.444C525.05 191.733 525.552 191.931 525.948 192.327C526.368 192.701 526.578 193.19 526.578 193.797C526.578 194.38 526.368 194.858 525.948 195.231C525.552 195.58 525.05 195.755 524.444 195.755H514.65L514.965 195.161V201.982L514.685 201.702H522.87C523.476 201.702 523.978 201.9 524.374 202.296C524.794 202.669 525.004 203.159 525.004 203.765C525.004 204.348 524.794 204.826 524.374 205.2C523.978 205.549 523.476 205.724 522.87 205.724H514.79L514.965 205.444V212.51L514.685 212.195H524.444C525.05 212.195 525.552 212.405 525.948 212.825C526.368 213.221 526.578 213.688 526.578 214.224C526.578 214.807 526.368 215.285 525.948 215.658C525.552 216.031 525.05 216.218 524.444 216.218H512.726C512.12 216.218 511.607 216.02 511.187 215.623C510.791 215.203 510.593 214.69 510.593 214.084V193.866C510.593 193.26 510.791 192.759 511.187 192.362C511.607 191.943 512.12 191.733 512.726 191.733Z" fill="white"/>
<path d="M60.5653 363.049C62.3842 363.049 64.0807 363.574 65.6547 364.623C67.2637 365.672 68.5579 367.089 69.5373 368.873C70.5167 370.657 71.0064 372.651 71.0064 374.854C71.0064 377.023 70.5167 378.999 69.5373 380.783C68.5579 382.567 67.2637 384.001 65.6547 385.085C64.0807 386.135 62.3842 386.659 60.5653 386.659H50.9113L51.4359 385.715V396.576C51.4359 397.485 51.1561 398.255 50.5965 398.884C50.0368 399.479 49.3023 399.776 48.3928 399.776C47.5184 399.776 46.8013 399.479 46.2416 398.884C45.682 398.255 45.4022 397.485 45.4022 396.576V366.249C45.4022 365.34 45.6995 364.588 46.2941 363.993C46.9237 363.364 47.6932 363.049 48.6027 363.049H60.5653ZM60.5653 380.678C61.2299 380.678 61.877 380.398 62.5066 379.839C63.1363 379.279 63.6609 378.562 64.0807 377.687C64.5004 376.778 64.7103 375.834 64.7103 374.854C64.7103 373.84 64.5004 372.895 64.0807 372.021C63.6609 371.146 63.1363 370.447 62.5066 369.922C61.877 369.363 61.2299 369.083 60.5653 369.083H50.8063L51.4359 368.138V381.518L50.8588 380.678H60.5653ZM116.052 381.413C116.052 384.036 115.615 386.485 114.74 388.758C113.866 391.032 112.624 393.043 111.015 394.792C109.441 396.506 107.552 397.853 105.349 398.832C103.18 399.811 100.801 400.301 98.213 400.301C95.6246 400.301 93.2461 399.811 91.0774 398.832C88.9087 397.853 87.0199 396.506 85.4109 394.792C83.8368 393.043 82.6126 391.032 81.7381 388.758C80.8637 386.485 80.4264 384.036 80.4264 381.413C80.4264 378.789 80.8637 376.341 81.7381 374.067C82.6126 371.794 83.8368 369.8 85.4109 368.086C87.0199 366.337 88.9087 364.973 91.0774 363.993C93.2461 363.014 95.6246 362.524 98.213 362.524C100.801 362.524 103.18 363.014 105.349 363.993C107.552 364.973 109.441 366.337 111.015 368.086C112.624 369.8 113.866 371.794 114.74 374.067C115.615 376.341 116.052 378.789 116.052 381.413ZM109.231 381.413C109.231 379.069 108.759 376.953 107.815 375.064C106.87 373.14 105.576 371.619 103.932 370.499C102.288 369.38 100.382 368.82 98.213 368.82C96.0443 368.82 94.138 369.38 92.494 370.499C90.85 371.619 89.5558 373.123 88.6114 375.012C87.702 376.9 87.2472 379.034 87.2472 381.413C87.2472 383.756 87.702 385.89 88.6114 387.814C89.5558 389.703 90.85 391.207 92.494 392.326C94.138 393.445 96.0443 394.005 98.213 394.005C100.382 394.005 102.288 393.445 103.932 392.326C105.576 391.207 106.87 389.703 107.815 387.814C108.759 385.89 109.231 383.756 109.231 381.413ZM143.062 363.049C145.58 363.049 147.819 363.521 149.778 364.466C151.737 365.41 153.381 366.739 154.71 368.453C156.074 370.132 157.088 372.091 157.753 374.329C158.452 376.533 158.802 378.894 158.802 381.413C158.802 384.806 158.19 387.901 156.966 390.699C155.742 393.463 153.958 395.666 151.614 397.31C149.306 398.954 146.455 399.776 143.062 399.776H130.522C129.613 399.776 128.843 399.479 128.214 398.884C127.619 398.255 127.322 397.485 127.322 396.576V366.249C127.322 365.34 127.619 364.588 128.214 363.993C128.843 363.364 129.613 363.049 130.522 363.049H143.062ZM142.537 393.743C144.741 393.743 146.542 393.183 147.941 392.064C149.341 390.909 150.355 389.405 150.985 387.551C151.649 385.663 151.981 383.616 151.981 381.413C151.981 379.769 151.789 378.212 151.404 376.743C151.054 375.239 150.495 373.927 149.725 372.808C148.956 371.654 147.976 370.744 146.787 370.08C145.598 369.415 144.181 369.083 142.537 369.083H133.355L133.88 368.611V394.32L133.565 393.743H142.537ZM191.968 392.378C192.283 392.378 192.615 392.431 192.965 392.536C193.35 392.641 193.769 392.851 194.224 393.165C194.819 393.62 195.518 394.022 196.323 394.372C197.162 394.722 198.124 394.897 199.209 394.897C200.293 394.897 201.307 394.635 202.252 394.11C203.231 393.55 204.036 392.781 204.665 391.801C205.295 390.787 205.61 389.58 205.61 388.181C205.61 386.852 205.33 385.75 204.77 384.876C204.245 384.001 203.528 383.336 202.619 382.882C201.744 382.427 200.8 382.2 199.786 382.2C199.016 382.2 198.369 382.27 197.844 382.41C197.355 382.549 196.865 382.707 196.375 382.882C195.921 383.022 195.378 383.092 194.749 383.092C193.944 383.092 193.315 382.812 192.86 382.252C192.44 381.692 192.23 381.028 192.23 380.258C192.23 379.769 192.318 379.331 192.493 378.947C192.703 378.562 193 378.142 193.385 377.687L202.619 367.876L204.036 369.083H191.129C190.289 369.083 189.589 368.803 189.03 368.243C188.47 367.684 188.19 366.984 188.19 366.145C188.19 365.34 188.47 364.675 189.03 364.151C189.589 363.591 190.289 363.311 191.129 363.311H207.184C208.268 363.311 209.072 363.609 209.597 364.203C210.157 364.798 210.437 365.55 210.437 366.459C210.437 366.914 210.314 367.369 210.069 367.823C209.825 368.243 209.527 368.628 209.177 368.978L199.891 378.947L198.474 377.163C198.859 376.988 199.383 376.83 200.048 376.691C200.748 376.551 201.325 376.481 201.779 376.481C203.843 376.481 205.627 377.023 207.131 378.107C208.67 379.157 209.842 380.538 210.647 382.252C211.486 383.931 211.906 385.75 211.906 387.709C211.906 390.297 211.329 392.536 210.174 394.425C209.02 396.313 207.394 397.765 205.295 398.779C203.196 399.794 200.748 400.301 197.949 400.301C196.655 400.301 195.378 400.144 194.119 399.829C192.86 399.514 191.776 399.094 190.866 398.57C190.097 398.15 189.572 397.695 189.292 397.205C189.047 396.681 188.925 396.191 188.925 395.736C188.925 394.932 189.205 394.18 189.764 393.48C190.359 392.746 191.094 392.378 191.968 392.378ZM234.473 400.301C232.584 400.301 230.87 399.916 229.331 399.147C227.827 398.342 226.533 397.258 225.448 395.894C224.399 394.53 223.577 392.991 222.982 391.277C222.423 389.563 222.143 387.796 222.143 385.977C222.143 384.788 222.265 383.354 222.51 381.675C222.79 379.996 223.262 378.23 223.927 376.376C224.591 374.522 225.518 372.72 226.707 370.972C227.897 369.223 229.401 367.649 231.22 366.249C233.073 364.85 235.33 363.783 237.988 363.049C238.408 362.944 238.81 362.892 239.195 362.892C239.999 362.892 240.716 363.101 241.346 363.521C242.011 363.941 242.343 364.71 242.343 365.83C242.343 366.599 242.08 367.281 241.556 367.876C241.066 368.436 240.401 368.838 239.562 369.083C238.373 369.433 237.183 369.957 235.994 370.657C234.84 371.321 233.756 372.143 232.741 373.123C231.762 374.102 230.905 375.221 230.17 376.481C229.471 377.705 228.964 379.034 228.649 380.468L227.232 380.416C227.722 379.821 228.316 379.192 229.016 378.527C229.751 377.827 230.625 377.233 231.639 376.743C232.689 376.218 233.913 375.956 235.312 375.956C236.676 375.956 238.023 376.271 239.352 376.9C240.716 377.53 241.941 378.404 243.025 379.524C244.144 380.608 245.036 381.902 245.701 383.406C246.365 384.876 246.698 386.45 246.698 388.129C246.698 390.367 246.138 392.413 245.019 394.267C243.934 396.121 242.465 397.59 240.611 398.675C238.792 399.759 236.746 400.301 234.473 400.301ZM234.473 394.53C235.592 394.53 236.589 394.25 237.463 393.69C238.373 393.13 239.09 392.361 239.614 391.382C240.139 390.402 240.401 389.318 240.401 388.129C240.401 386.904 240.139 385.82 239.614 384.876C239.09 383.896 238.373 383.127 237.463 382.567C236.589 382.007 235.592 381.727 234.473 381.727C233.353 381.727 232.339 382.007 231.43 382.567C230.555 383.127 229.855 383.896 229.331 384.876C228.806 385.82 228.544 386.904 228.544 388.129C228.544 389.318 228.806 390.402 229.331 391.382C229.855 392.361 230.555 393.13 231.43 393.69C232.339 394.25 233.353 394.53 234.473 394.53ZM269.874 400.301C266.866 400.301 264.313 399.514 262.214 397.94C260.15 396.331 258.576 394.11 257.492 391.277C256.408 388.408 255.866 385.12 255.866 381.413C255.866 377.67 256.408 374.382 257.492 371.549C258.576 368.715 260.15 366.512 262.214 364.938C264.313 363.329 266.866 362.524 269.874 362.524C272.883 362.524 275.419 363.329 277.482 364.938C279.581 366.512 281.172 368.715 282.257 371.549C283.341 374.382 283.883 377.67 283.883 381.413C283.883 385.12 283.341 388.408 282.257 391.277C281.172 394.11 279.581 396.331 277.482 397.94C275.419 399.514 272.883 400.301 269.874 400.301ZM269.874 394.005C271.344 394.005 272.603 393.55 273.652 392.641C274.736 391.696 275.576 390.297 276.171 388.443C276.765 386.554 277.063 384.211 277.063 381.413C277.063 378.579 276.765 376.236 276.171 374.382C275.576 372.528 274.736 371.146 273.652 370.237C272.603 369.293 271.344 368.82 269.874 368.82C268.44 368.82 267.181 369.293 266.097 370.237C265.012 371.146 264.173 372.528 263.578 374.382C262.984 376.236 262.686 378.579 262.686 381.413C262.686 384.211 262.984 386.554 263.578 388.443C264.173 390.297 265.012 391.696 266.097 392.641C267.181 393.55 268.44 394.005 269.874 394.005ZM294.39 367.771C293.796 367.771 293.289 367.544 292.869 367.089C292.484 366.599 292.292 365.97 292.292 365.2C292.292 364.431 292.484 363.888 292.869 363.574C293.289 363.224 293.796 363.049 294.39 363.049H304.622C305.181 363.049 305.671 363.224 306.091 363.574C306.51 363.888 306.72 364.431 306.72 365.2C306.72 365.97 306.563 366.599 306.248 367.089C305.968 367.544 305.426 367.771 304.622 367.771H294.39ZM299.375 381.413C298.745 381.413 298.203 381.22 297.748 380.836C297.294 380.416 297.066 379.909 297.066 379.314V364.308H301.841V379.314C301.841 379.909 301.631 380.416 301.211 380.836C300.791 381.22 300.179 381.413 299.375 381.413ZM311.337 363.049C312.072 363.049 312.649 363.154 313.069 363.364C313.524 363.574 313.926 363.993 314.276 364.623L321.201 376.061H317.529L324.192 364.623C324.717 363.783 325.294 363.311 325.924 363.206C326.553 363.066 327.148 363.031 327.707 363.101C328.442 363.136 329.002 363.311 329.386 363.626C329.771 363.941 329.964 364.448 329.964 365.148V379.839C329.964 380.433 329.701 380.94 329.177 381.36C328.652 381.745 328.04 381.937 327.34 381.937C326.571 381.937 325.941 381.745 325.451 381.36C324.962 380.94 324.717 380.433 324.717 379.839V366.459H327.812L321.411 377.845C321.271 378.09 321.009 378.317 320.624 378.527C320.275 378.702 319.767 378.789 319.103 378.789C318.543 378.789 318.106 378.684 317.791 378.474C317.511 378.265 317.319 378.055 317.214 377.845L310.288 366.04H314.171V379.839C314.066 380.433 313.803 380.94 313.384 381.36C312.964 381.745 312.369 381.937 311.6 381.937C310.83 381.937 310.201 381.745 309.711 381.36C309.256 380.94 309.029 380.433 309.029 379.839V365.148C309.029 364.483 309.256 363.976 309.711 363.626C310.166 363.241 310.708 363.049 311.337 363.049Z" fill="#2D5D8C"/>
<path d="M543.534 381.413C543.534 384.036 543.097 386.485 542.222 388.758C541.348 391.032 540.106 393.043 538.497 394.792C536.923 396.506 535.034 397.853 532.83 398.832C530.662 399.811 528.283 400.301 525.695 400.301C523.106 400.301 520.728 399.811 518.559 398.832C516.391 397.853 514.502 396.506 512.893 394.792C511.319 393.043 510.094 391.032 509.22 388.758C508.345 386.485 507.908 384.036 507.908 381.413C507.908 378.789 508.345 376.341 509.22 374.067C510.094 371.794 511.319 369.8 512.893 368.086C514.502 366.337 516.391 364.973 518.559 363.993C520.728 363.014 523.106 362.524 525.695 362.524C528.283 362.524 530.662 363.014 532.83 363.993C535.034 364.973 536.923 366.337 538.497 368.086C540.106 369.8 541.348 371.794 542.222 374.067C543.097 376.341 543.534 378.789 543.534 381.413ZM536.713 381.413C536.713 379.069 536.241 376.953 535.296 375.064C534.352 373.14 533.058 371.619 531.414 370.499C529.77 369.38 527.863 368.82 525.695 368.82C523.526 368.82 521.62 369.38 519.976 370.499C518.332 371.619 517.038 373.123 516.093 375.012C515.184 376.9 514.729 379.034 514.729 381.413C514.729 383.756 515.184 385.89 516.093 387.814C517.038 389.703 518.332 391.207 519.976 392.326C521.62 393.445 523.526 394.005 525.695 394.005C527.863 394.005 529.77 393.445 531.414 392.326C533.058 391.207 534.352 389.703 535.296 387.814C536.241 385.89 536.713 383.756 536.713 381.413ZM580.093 399.776C579.113 399.776 578.326 399.374 577.732 398.57L565.612 382.619L570.386 377.74L582.926 394.32C583.416 394.984 583.661 395.701 583.661 396.471C583.661 397.45 583.293 398.255 582.559 398.884C581.824 399.479 581.002 399.776 580.093 399.776ZM580.722 362.787C581.562 362.787 582.244 363.136 582.769 363.836C583.328 364.501 583.608 365.183 583.608 365.882C583.608 366.617 583.293 367.299 582.664 367.928L560.68 388.968L560.417 381.465L578.152 363.993C578.956 363.189 579.813 362.787 580.722 362.787ZM558.056 399.776C557.077 399.776 556.29 399.479 555.695 398.884C555.101 398.255 554.803 397.485 554.803 396.576V366.249C554.803 365.34 555.118 364.588 555.748 363.993C556.377 363.364 557.182 363.049 558.161 363.049C559.141 363.049 559.91 363.364 560.47 363.993C561.065 364.588 561.362 365.34 561.362 366.249V396.576C561.362 397.485 561.065 398.255 560.47 398.884C559.875 399.479 559.071 399.776 558.056 399.776ZM598.209 399.776C597.229 399.776 596.355 399.479 595.585 398.884C594.816 398.255 594.431 397.485 594.431 396.576V366.249C594.431 365.34 594.728 364.588 595.323 363.993C595.952 363.364 596.722 363.049 597.631 363.049H612.742C614.561 363.049 616.257 363.539 617.832 364.518C619.441 365.462 620.735 366.792 621.714 368.506C622.694 370.185 623.183 372.126 623.183 374.329C623.183 375.659 622.903 376.953 622.344 378.212C621.819 379.471 621.085 380.608 620.14 381.623C619.231 382.637 618.199 383.424 617.044 383.984L617.097 382.777C618.076 383.301 618.881 383.931 619.51 384.666C620.175 385.365 620.682 386.135 621.032 386.974C621.417 387.779 621.644 388.653 621.714 389.598C621.854 390.472 621.941 391.242 621.976 391.906C622.046 392.571 622.151 393.13 622.291 393.585C622.466 394.04 622.781 394.39 623.236 394.635C624.005 395.089 624.477 395.754 624.652 396.628C624.862 397.468 624.67 398.22 624.075 398.884C623.69 399.339 623.201 399.636 622.606 399.776C622.011 399.881 621.417 399.881 620.822 399.776C620.228 399.636 619.738 399.462 619.353 399.252C618.758 398.902 618.164 398.395 617.569 397.73C616.975 397.031 616.485 396.104 616.1 394.949C615.75 393.795 615.575 392.308 615.575 390.49C615.575 389.895 615.47 389.353 615.261 388.863C615.051 388.338 614.753 387.901 614.369 387.551C613.984 387.167 613.494 386.887 612.9 386.712C612.305 386.502 611.605 386.397 610.801 386.397H600.202L600.989 385.19V396.576C600.989 397.485 600.745 398.255 600.255 398.884C599.765 399.479 599.083 399.776 598.209 399.776ZM600.255 380.993H612.48C613.109 380.993 613.722 380.713 614.316 380.153C614.911 379.559 615.4 378.772 615.785 377.792C616.17 376.778 616.362 375.676 616.362 374.487C616.362 372.948 615.943 371.671 615.103 370.657C614.299 369.607 613.424 369.083 612.48 369.083H600.36L600.989 367.404V382.252L600.255 380.993ZM647.503 400.301C645.055 400.301 642.851 400.004 640.892 399.409C638.934 398.779 637.062 397.695 635.278 396.156C634.824 395.771 634.474 395.334 634.229 394.844C633.984 394.355 633.862 393.865 633.862 393.375C633.862 392.571 634.141 391.871 634.701 391.277C635.296 390.647 636.03 390.332 636.905 390.332C637.569 390.332 638.164 390.542 638.689 390.962C640.018 392.046 641.33 392.868 642.624 393.428C643.953 393.987 645.579 394.267 647.503 394.267C648.797 394.267 649.987 394.075 651.071 393.69C652.155 393.27 653.03 392.728 653.694 392.064C654.359 391.364 654.691 390.577 654.691 389.703C654.691 388.653 654.377 387.761 653.747 387.027C653.117 386.292 652.155 385.68 650.861 385.19C649.567 384.666 647.923 384.263 645.929 383.984C644.04 383.704 642.379 383.284 640.945 382.724C639.511 382.13 638.304 381.395 637.325 380.521C636.38 379.611 635.663 378.562 635.173 377.373C634.684 376.148 634.439 374.784 634.439 373.28C634.439 371.007 635.016 369.065 636.17 367.456C637.359 365.847 638.951 364.623 640.945 363.783C642.939 362.944 645.142 362.524 647.556 362.524C649.829 362.524 651.928 362.874 653.852 363.574C655.811 364.238 657.402 365.095 658.626 366.145C659.641 366.949 660.148 367.876 660.148 368.925C660.148 369.695 659.851 370.394 659.256 371.024C658.661 371.654 657.962 371.968 657.157 371.968C656.633 371.968 656.16 371.811 655.741 371.496C655.181 371.007 654.429 370.552 653.485 370.132C652.54 369.677 651.543 369.31 650.494 369.03C649.445 368.715 648.465 368.558 647.556 368.558C646.052 368.558 644.775 368.75 643.726 369.135C642.711 369.52 641.942 370.045 641.417 370.709C640.892 371.374 640.63 372.143 640.63 373.018C640.63 374.067 640.927 374.942 641.522 375.641C642.152 376.306 643.043 376.848 644.198 377.268C645.352 377.652 646.734 378.002 648.343 378.317C650.441 378.702 652.278 379.157 653.852 379.681C655.461 380.206 656.79 380.888 657.839 381.727C658.889 382.532 659.676 383.564 660.2 384.823C660.725 386.047 660.987 387.551 660.987 389.335C660.987 391.609 660.358 393.568 659.099 395.212C657.839 396.856 656.178 398.115 654.114 398.989C652.085 399.864 649.882 400.301 647.503 400.301Z" fill="#448CD2"/>
<path d="M195.525 178.055C193.205 178.055 191.319 176.169 191.319 173.85C191.319 171.53 193.205 169.646 195.525 169.646C197.844 169.646 199.731 171.532 199.731 173.85C199.731 176.167 197.844 178.055 195.525 178.055ZM195.525 171.254C194.093 171.254 192.927 172.419 192.927 173.85C192.927 175.28 194.093 176.447 195.525 176.447C196.957 176.447 198.123 175.282 198.123 173.85C198.123 172.417 196.957 171.254 195.525 171.254Z" fill="white"/>
<path d="M165.231 204.624C164.496 204.624 163.812 204.335 163.303 203.811C162.266 202.749 162.285 201.041 163.347 200.001L186.011 177.861L183.261 175.205L174.67 177.171C173.479 177.448 172.284 176.699 172.008 175.504C171.734 174.307 172.485 173.112 173.679 172.84L183.444 170.604C184.174 170.437 184.94 170.646 185.482 171.171L193.954 179.35C194.385 179.766 194.633 180.349 194.633 180.948V186.073L201.493 185.044C202.703 184.856 203.839 185.697 204.019 186.912C204.202 188.124 203.363 189.258 202.152 189.438L192.741 190.85C192.106 190.952 191.445 190.756 190.96 190.338C190.468 189.914 190.187 189.3 190.187 188.653V185.431L187.373 188.21L193.188 194.462C193.826 195.147 194.06 196.095 193.816 197.002C193.571 197.908 192.888 198.608 191.99 198.878L180.821 202.242C179.367 202.671 177.876 201.816 177.463 200.439C177.254 199.748 177.328 199.02 177.669 198.385C178.011 197.751 178.578 197.287 179.268 197.082L186.294 194.965L181.496 189.807L167.114 203.857C166.608 204.351 165.939 204.625 165.231 204.625L165.231 204.624ZM183.507 173.52C183.712 173.52 183.913 173.599 184.066 173.746L187.725 177.28C187.88 177.431 187.97 177.638 187.97 177.856C187.97 178.073 187.883 178.282 187.728 178.433L164.471 201.151C164.042 201.57 164.036 202.26 164.454 202.688C164.857 203.104 165.574 203.112 165.99 202.707L180.961 188.082C181.116 187.929 181.331 187.832 181.542 187.852C181.759 187.857 181.964 187.95 182.112 188.108L188.351 194.814C188.54 195.018 188.61 195.304 188.538 195.573C188.466 195.84 188.26 196.052 187.995 196.132L179.731 198.621C179.452 198.704 179.224 198.891 179.086 199.147C178.949 199.403 178.919 199.697 179.002 199.975C179.17 200.531 179.764 200.874 180.362 200.702L191.527 197.339C191.89 197.229 192.166 196.947 192.265 196.582C192.362 196.218 192.268 195.835 192.01 195.558L185.664 188.735C185.369 188.416 185.378 187.92 185.688 187.615L190.426 182.935C190.658 182.707 191.007 182.64 191.301 182.766C191.601 182.89 191.795 183.182 191.795 183.507V188.653C191.795 188.832 191.874 189.002 192.01 189.121C192.119 189.215 192.262 189.267 192.411 189.267L201.913 187.849C202.248 187.799 202.48 187.485 202.43 187.15C202.38 186.814 202.05 186.579 201.731 186.634L193.948 187.802C193.716 187.837 193.48 187.771 193.304 187.617C193.127 187.464 193.025 187.241 193.025 187.007V180.949C193.025 180.782 192.955 180.622 192.836 180.506L184.365 172.328C184.216 172.185 184.004 172.13 183.801 172.171L174.036 174.408C173.707 174.483 173.499 174.814 173.575 175.144C173.65 175.472 173.981 175.683 174.31 175.604L183.327 173.541C183.387 173.527 183.446 173.52 183.506 173.52L183.507 173.52Z" fill="white"/>
<path d="M170.362 173.663H157.77C157.326 173.663 156.966 173.303 156.966 172.859C156.966 172.414 157.326 172.055 157.77 172.055H170.362C170.807 172.055 171.166 172.414 171.166 172.859C171.166 173.303 170.807 173.663 170.362 173.663Z" fill="white"/>
<path d="M178.56 182.2H160.726C160.282 182.2 159.922 181.84 159.922 181.396C159.922 180.951 160.282 180.592 160.726 180.592H178.56C179.004 180.592 179.364 180.951 179.364 181.396C179.364 181.84 179.004 182.2 178.56 182.2Z" fill="white"/>
<path d="M169.643 190.225H157.77C157.326 190.225 156.966 189.866 156.966 189.421C156.966 188.977 157.326 188.617 157.77 188.617H169.643C170.087 188.617 170.447 188.977 170.447 189.421C170.447 189.866 170.087 190.225 169.643 190.225Z" fill="white"/>
<path d="M572.111 178.055C574.43 178.055 576.316 176.169 576.316 173.85C576.316 171.53 574.43 169.646 572.111 169.646C569.791 169.646 567.905 171.532 567.905 173.85C567.905 176.167 569.791 178.055 572.111 178.055ZM572.111 171.254C573.543 171.254 574.708 172.419 574.708 173.85C574.708 175.28 573.543 176.447 572.111 176.447C570.678 176.447 569.513 175.282 569.513 173.85C569.513 172.417 570.678 171.254 572.111 171.254Z" fill="white"/>
<path d="M602.405 204.624C603.14 204.624 603.825 204.335 604.333 203.811C605.37 202.749 605.351 201.041 604.29 200.001L581.625 177.861L584.375 175.205L592.967 177.171C594.157 177.448 595.352 176.699 595.628 175.504C595.902 174.307 595.151 173.112 593.958 172.84L584.193 170.604C583.462 170.437 582.696 170.646 582.154 171.171L573.682 179.35C573.251 179.766 573.003 180.349 573.003 180.948V186.073L566.144 185.044C564.933 184.856 563.797 185.697 563.617 186.912C563.435 188.124 564.273 189.258 565.484 189.438L574.896 190.85C575.53 190.952 576.191 190.756 576.676 190.338C577.168 189.914 577.449 189.3 577.449 188.653V185.431L580.263 188.21L574.448 194.462C573.81 195.147 573.577 196.095 573.82 197.002C574.065 197.908 574.748 198.608 575.646 198.878L586.815 202.242C588.27 202.671 589.76 201.816 590.173 200.439C590.382 199.748 590.308 199.02 589.967 198.385C589.625 197.751 589.058 197.287 588.368 197.082L581.342 194.965L586.14 189.807L600.522 203.857C601.028 204.351 601.697 204.625 602.405 204.625L602.405 204.624ZM584.13 173.52C583.924 173.52 583.723 173.599 583.571 173.746L579.911 177.28C579.756 177.431 579.666 177.638 579.666 177.856C579.666 178.073 579.753 178.282 579.908 178.433L603.165 201.151C603.594 201.57 603.6 202.26 603.182 202.688C602.779 203.104 602.063 203.112 601.646 202.707L586.675 188.082C586.52 187.929 586.305 187.832 586.094 187.852C585.878 187.857 585.672 187.95 585.524 188.108L579.285 194.814C579.097 195.018 579.026 195.304 579.098 195.573C579.17 195.84 579.376 196.052 579.641 196.132L587.905 198.621C588.185 198.704 588.412 198.891 588.55 199.147C588.687 199.403 588.717 199.697 588.634 199.975C588.466 200.531 587.872 200.874 587.274 200.702L576.109 197.339C575.747 197.229 575.47 196.947 575.371 196.582C575.274 196.218 575.368 195.835 575.626 195.558L581.972 188.735C582.267 188.416 582.258 187.92 581.948 187.615L577.21 182.935C576.978 182.707 576.629 182.64 576.336 182.766C576.036 182.89 575.841 183.182 575.841 183.507V188.653C575.841 188.832 575.762 189.002 575.626 189.121C575.518 189.215 575.375 189.267 575.225 189.267L565.723 187.849C565.388 187.799 565.156 187.485 565.206 187.15C565.256 186.814 565.586 186.579 565.905 186.634L573.688 187.802C573.921 187.837 574.156 187.771 574.332 187.617C574.509 187.464 574.612 187.241 574.612 187.007V180.949C574.612 180.782 574.681 180.622 574.8 180.506L583.271 172.328C583.42 172.185 583.632 172.13 583.835 172.171L593.6 174.408C593.93 174.483 594.137 174.814 594.061 175.144C593.986 175.472 593.655 175.683 593.326 175.604L584.309 173.541C584.249 173.527 584.19 173.52 584.13 173.52L584.13 173.52Z" fill="white"/>
<path d="M597.274 173.663H609.866C610.31 173.663 610.67 173.303 610.67 172.859C610.67 172.414 610.31 172.055 609.866 172.055H597.274C596.829 172.055 596.47 172.414 596.47 172.859C596.47 173.303 596.829 173.663 597.274 173.663Z" fill="white"/>
<path d="M589.076 182.2H606.91C607.354 182.2 607.714 181.84 607.714 181.396C607.714 180.951 607.354 180.592 606.91 180.592H589.076C588.631 180.592 588.272 180.951 588.272 181.396C588.272 181.84 588.631 182.2 589.076 182.2Z" fill="white"/>
<path d="M597.993 190.225H609.866C610.31 190.225 610.67 189.866 610.67 189.421C610.67 188.977 610.31 188.617 609.866 188.617H597.993C597.549 188.617 597.189 188.977 597.189 189.421C597.189 189.866 597.549 190.225 597.993 190.225Z" fill="white"/>
<path d="M336.874 71.9201C335.756 73.4588 334.234 74.7031 332.405 75.5171C328.748 77.1456 324.631 76.7126 321.392 74.3598L296.191 56.0496C292.952 53.6964 291.268 49.9143 291.686 45.9329C292.105 41.9522 294.538 38.603 298.195 36.9747L326.653 24.3041C330.311 22.676 334.427 23.1087 337.666 25.4618C340.905 27.8149 342.589 31.5963 342.17 35.5779L338.914 66.5587C338.705 68.5493 337.992 70.3817 336.874 71.9201ZM296.065 42.2709C295.238 43.4086 294.712 44.763 294.557 46.2348C294.247 49.1781 295.492 51.9743 297.887 53.7143L323.089 72.0245C325.483 73.764 328.527 74.0844 331.231 72.8801C333.935 71.6766 335.734 69.1999 336.043 66.2569L339.299 35.2761C339.609 32.3325 338.364 29.5368 335.969 27.7969C333.574 26.0569 330.531 25.7371 327.827 26.9409L299.369 39.6114C298.017 40.2135 296.891 41.1337 296.065 42.2709Z" fill="#448CD2"/>
<path d="M446.943 349.41C445.059 349.145 443.246 348.386 441.669 347.153C438.514 344.688 436.963 340.85 437.52 336.886L441.856 306.038C442.413 302.074 444.962 298.811 448.674 297.311C452.385 295.812 456.485 296.388 459.639 298.853L484.187 318.031C487.341 320.497 488.892 324.334 488.335 328.299C487.778 332.263 485.229 335.525 481.517 337.025L452.634 348.695C450.778 349.444 448.826 349.675 446.943 349.41ZM453.963 299.458C452.57 299.263 451.127 299.433 449.755 299.988C447.011 301.096 445.126 303.508 444.714 306.44L440.379 337.288C439.967 340.218 441.113 343.056 443.446 344.878C445.778 346.701 448.809 347.127 451.553 346.018L480.436 334.348C483.18 333.24 485.064 330.828 485.476 327.897C485.888 324.965 484.742 322.128 482.41 320.306L457.862 301.127C456.696 300.216 455.355 299.654 453.963 299.458Z" fill="#2D5D8C"/>
<defs>
<linearGradient id="paint0_linear_874_1080" x1="128.593" y1="187.185" x2="639.428" y2="187.185" gradientUnits="userSpaceOnUse">
<stop stop-color="#1A3652"/>
<stop offset="1" stop-color="#448CD2"/>
</linearGradient>
</defs>
</svg>
