<svg width="13" height="10" viewBox="0 0 13 10" fill="none" xmlns="http://www.w3.org/2000/svg">
<path d="M5.27934 8.23877C5.35303 8.30743 5.41213 8.39023 5.45312 8.48223C5.49411 8.57423 5.51616 8.67354 5.51793 8.77424C5.51971 8.87495 5.50118 8.97498 5.46346 9.06837C5.42574 9.16175 5.3696 9.24659 5.29838 9.31781C5.22716 9.38902 5.14233 9.44517 5.04894 9.48289C4.95555 9.52061 4.85552 9.53914 4.75482 9.53736C4.65412 9.53558 4.5548 9.51354 4.4628 9.47255C4.3708 9.43156 4.288 9.37245 4.21934 9.29877L0.21934 5.29877C0.0788894 5.15814 0 4.96752 0 4.76877C0 4.57002 0.0788894 4.37939 0.21934 4.23877L4.21934 0.238767C4.288 0.16508 4.3708 0.105978 4.4628 0.0649862C4.5548 0.0239944 4.65412 0.00195312 4.75482 0.00017643C4.85552 -0.00160027 4.95555 0.0169239 5.04894 0.0546446C5.14233 0.0923653 5.22716 0.148511 5.29838 0.219729C5.3696 0.290948 5.42574 0.375782 5.46346 0.469171C5.50118 0.562559 5.51971 0.662586 5.51793 0.763289C5.51616 0.863993 5.49411 0.963306 5.45312 1.05531C5.41213 1.1473 5.35303 1.23011 5.27934 1.29877L2.55934 4.01877L12.2493 4.01877C12.4483 4.01877 12.639 4.09779 12.7797 4.23844C12.9203 4.37909 12.9993 4.56986 12.9993 4.76877C12.9993 4.96768 12.9203 5.15844 12.7797 5.2991C12.639 5.43975 12.4483 5.51877 12.2493 5.51877L2.55934 5.51877L5.27934 8.23877Z" fill="#448CD2"/>
</svg>
