<svg width="30" height="30" viewBox="0 0 30 30" fill="none" xmlns="http://www.w3.org/2000/svg">
<circle cx="15" cy="15" r="15" fill="white" fill-opacity="0.25"/>
<path d="M22.9148 15.19C22.9148 10.8706 19.4347 7.36914 15.1425 7.36914C10.8483 7.37011 7.36822 10.8706 7.36822 15.191C7.36822 19.0937 10.2109 22.3289 13.9261 22.9157V17.4508H11.9539V15.191H13.928V13.4665C13.928 11.5069 15.089 10.4246 16.864 10.4246C17.7151 10.4246 18.6041 10.5772 18.6041 10.5772V12.5008H17.6238C16.659 12.5008 16.3579 13.1041 16.3579 13.723V15.19H18.5127L18.1688 17.4498H16.3569V22.9147C20.0721 22.3279 22.9148 19.0927 22.9148 15.19Z" fill="white"/>
</svg>
