<svg width="20" height="20" viewBox="0 0 20 20" fill="none" xmlns="http://www.w3.org/2000/svg">
<path d="M5.005 7.43675C5.0366 7.04538 5.21439 6.68025 5.50299 6.41402C5.7916 6.14779 6.16986 5.99998 6.5625 6H13.4375C13.8336 5.99998 14.215 6.15044 14.5044 6.42093C14.7939 6.69142 14.9698 7.06175 14.9965 7.457L10.0005 10.0875L5.005 7.43675ZM5 8.14175V12.4375C5 12.8519 5.16462 13.2493 5.45765 13.5424C5.75067 13.8354 6.1481 14 6.5625 14H13.4375C13.8519 14 14.2493 13.8354 14.5424 13.5424C14.8354 13.2493 15 12.8519 15 12.4375V8.1615L10.1455 10.7175C10.1005 10.7412 10.0503 10.7535 9.99944 10.7535C9.94855 10.7534 9.89845 10.7409 9.8535 10.717L5 8.14175Z" fill="white"/>
<circle cx="10" cy="10" r="10" fill="white" fill-opacity="0.25"/>
</svg>
