<svg width="20" height="20" viewBox="0 0 20 20" fill="none" xmlns="http://www.w3.org/2000/svg">
<circle cx="10" cy="10" r="10" fill="white" fill-opacity="0.25"/>
<path d="M14.5 13.5H15.5V14.5H4.5V13.5H5.5V6C5.5 5.86739 5.55268 5.74021 5.64645 5.64645C5.74021 5.55268 5.86739 5.5 6 5.5H11C11.1326 5.5 11.2598 5.55268 11.3536 5.64645C11.4473 5.74021 11.5 5.86739 11.5 6V13.5H12.5V8.5H14C14.1326 8.5 14.2598 8.55268 14.3536 8.64645C14.4473 8.74021 14.5 8.86739 14.5 9V13.5ZM7.5 9.5V10.5H9.5V9.5H7.5ZM7.5 7.5V8.5H9.5V7.5H7.5Z" fill="white"/>
</svg>
