<svg width="20" height="20" viewBox="0 0 20 20" fill="none" xmlns="http://www.w3.org/2000/svg">
<path d="M15.4025 13.9725C14.2635 14.246 13.0744 14.2328 11.9417 13.934C10.8091 13.6352 9.76823 13.0601 8.91236 12.2603C8.0565 11.4605 7.41234 10.4609 7.03759 9.3511C6.66283 8.24126 6.56917 7.0558 6.76499 5.90088C6.73566 5.93013 6.70418 5.95715 6.67083 5.98171C6.43749 6.15921 6.14583 6.22505 5.56249 6.35671L5.03333 6.47671C2.98333 6.94088 1.95833 7.17255 1.71416 7.95671C1.47083 8.74005 2.16916 9.55755 3.56666 11.1917L3.92833 11.6142C4.32499 12.0784 4.52416 12.3109 4.61333 12.5975C4.70249 12.885 4.67249 13.195 4.61249 13.8142L4.55749 14.3784C4.34666 16.5592 4.24083 17.6492 4.87916 18.1334C5.51749 18.6175 6.47749 18.1767 8.39583 17.2925L8.89333 17.0642C9.43833 16.8125 9.71083 16.6875 9.99999 16.6875C10.2892 16.6875 10.5617 16.8125 11.1075 17.0642L11.6033 17.2925C13.5225 18.1759 14.4825 18.6175 15.12 18.1342C15.7592 17.6492 15.6533 16.5592 15.4425 14.3784L15.4025 13.9725Z" fill="#2D5D8C"/>
<path opacity="0.5" d="M7.6275 4.50675L7.35417 4.99675C7.05417 5.53508 6.90417 5.80425 6.67084 5.98175C6.70417 5.95675 6.73556 5.9298 6.765 5.90091C6.56913 7.05592 6.66279 8.24148 7.03758 9.3514C7.41238 10.4613 8.05661 11.461 8.91259 12.2608C9.76856 13.0606 10.8095 13.6356 11.9423 13.9344C13.0751 14.2331 14.2643 14.2463 15.4033 13.9726L15.3867 13.8142C15.3275 13.1951 15.2975 12.8851 15.3867 12.5976C15.4758 12.3109 15.6742 12.0784 16.0717 11.6142L16.4333 11.1917C17.8308 9.55841 18.5292 8.74091 18.285 7.95675C18.0417 7.17258 17.0167 6.94008 14.9667 6.47675L14.4367 6.35675C13.8542 6.22508 13.5625 6.15925 13.3283 5.98175C13.095 5.80425 12.945 5.53508 12.645 4.99675L12.3725 4.50675C11.3167 2.61341 10.7892 1.66675 10 1.66675C9.21084 1.66675 8.68334 2.61341 7.6275 4.50675Z" fill="#2D5D8C"/>
</svg>
