<svg width="30" height="30" viewBox="0 0 30 30" fill="none" xmlns="http://www.w3.org/2000/svg">
<circle cx="15" cy="15" r="15" fill="white" fill-opacity="0.25"/>
<path d="M14.8792 12.3339C13.4765 12.3339 12.3317 13.4787 12.3317 14.8814C12.3317 16.2842 13.4765 17.4289 14.8792 17.4289C16.2819 17.4289 17.4266 16.2842 17.4266 14.8814C17.4266 13.4787 16.2819 12.3339 14.8792 12.3339ZM22.5196 14.8814C22.5196 13.8265 22.5292 12.7811 22.47 11.7281C22.4107 10.505 22.1317 9.41951 21.2373 8.52511C20.341 7.6288 19.2574 7.35169 18.0344 7.29244C16.9794 7.2332 15.9341 7.24276 14.8811 7.24276C13.8262 7.24276 12.7808 7.2332 11.7278 7.29244C10.5047 7.35169 9.41926 7.63071 8.52488 8.52511C7.62858 9.42142 7.35148 10.505 7.29224 11.7281C7.23299 12.7831 7.24255 13.8284 7.24255 14.8814C7.24255 15.9345 7.23299 16.9817 7.29224 18.0348C7.35148 19.2579 7.6305 20.3434 8.52488 21.2378C9.42117 22.1341 10.5047 22.4112 11.7278 22.4704C12.7827 22.5297 13.8281 22.5201 14.8811 22.5201C15.936 22.5201 16.9814 22.5297 18.0344 22.4704C19.2574 22.4112 20.3429 22.1322 21.2373 21.2378C22.1336 20.3415 22.4107 19.2579 22.47 18.0348C22.5311 16.9817 22.5196 15.9364 22.5196 14.8814ZM14.8792 18.8011C12.7101 18.8011 10.9596 17.0505 10.9596 14.8814C10.9596 12.7123 12.7101 10.9618 14.8792 10.9618C17.0482 10.9618 18.7988 12.7123 18.7988 14.8814C18.7988 17.0505 17.0482 18.8011 14.8792 18.8011ZM18.9593 11.7167C18.4529 11.7167 18.0439 11.3077 18.0439 10.8012C18.0439 10.2948 18.4529 9.88581 18.9593 9.88581C19.4658 9.88581 19.8747 10.2948 19.8747 10.8012C19.8749 10.9215 19.8513 11.0406 19.8053 11.1517C19.7594 11.2629 19.692 11.3638 19.6069 11.4489C19.5219 11.5339 19.4209 11.6013 19.3098 11.6473C19.1987 11.6932 19.0796 11.7168 18.9593 11.7167Z" fill="white"/>
</svg>
