<svg width="20" height="20" viewBox="0 0 20 20" fill="none" xmlns="http://www.w3.org/2000/svg">
<path d="M9.99888 4.96484C11.1071 4.96484 12.1699 5.40508 12.9536 6.18872C13.7372 6.97235 14.1775 8.03519 14.1775 9.14342C14.1775 10.9091 12.9367 12.8334 10.4875 14.9368C10.3513 15.0538 10.1776 15.1181 9.99808 15.1179C9.81854 15.1178 9.64501 15.0532 9.50903 14.936L9.34703 14.7954C7.00617 12.7468 5.82031 10.8697 5.82031 9.14342C5.82031 8.03519 6.26055 6.97235 7.04419 6.18872C7.82782 5.40508 8.89066 4.96484 9.99888 4.96484ZM9.99888 7.53627C9.57264 7.53627 9.16386 7.7056 8.86246 8.00699C8.56106 8.30839 8.39174 8.71717 8.39174 9.14342C8.39174 9.56966 8.56106 9.97844 8.86246 10.2798C9.16386 10.5812 9.57264 10.7506 9.99888 10.7506C10.4251 10.7506 10.8339 10.5812 11.1353 10.2798C11.4367 9.97844 11.606 9.56966 11.606 9.14342C11.606 8.71717 11.4367 8.30839 11.1353 8.00699C10.8339 7.7056 10.4251 7.53627 9.99888 7.53627Z" fill="white"/>
<circle cx="10" cy="10" r="10" fill="white" fill-opacity="0.25"/>
</svg>
