<svg width="20" height="20" viewBox="0 0 20 20" fill="none" xmlns="http://www.w3.org/2000/svg">
<path d="M6.11219 8.84127C7.17266 11.1501 9.0566 12.9801 11.3953 13.973L11.7708 14.1404C12.1867 14.3256 12.6546 14.358 13.0921 14.232C13.5295 14.1061 13.9085 13.8297 14.1622 13.4517L14.6532 12.7205C14.73 12.6058 14.7611 12.4665 14.7404 12.33C14.7196 12.1936 14.6485 12.0698 14.5411 11.9832L12.8776 10.6411C12.8197 10.5944 12.7529 10.5599 12.6813 10.5397C12.6097 10.5194 12.5347 10.5138 12.4609 10.5233C12.3871 10.5327 12.3159 10.557 12.2517 10.5946C12.1875 10.6322 12.1316 10.6824 12.0873 10.7422L11.5726 11.4364C10.2513 10.7839 9.18182 9.7142 8.52951 8.39282L9.22317 7.87809C9.28295 7.83378 9.33316 7.77784 9.37078 7.71364C9.40841 7.64943 9.43267 7.57829 9.44211 7.50447C9.45155 7.43066 9.44597 7.3557 9.42572 7.2841C9.40546 7.21249 9.37094 7.14572 9.32424 7.08778L7.9822 5.42432C7.89555 5.31688 7.7718 5.24578 7.63534 5.22503C7.49887 5.20428 7.35959 5.23538 7.24491 5.31221L6.50872 5.80595C6.12843 6.06098 5.85101 6.44273 5.7259 6.8832C5.60079 7.32367 5.6361 7.79425 5.82556 8.21112L6.11219 8.84127Z" fill="white"/>
<circle cx="10" cy="10" r="10" fill="white" fill-opacity="0.25"/>
</svg>
