<svg width="30" height="30" viewBox="0 0 30 30" fill="none" xmlns="http://www.w3.org/2000/svg">
<circle cx="15" cy="15" r="15" fill="white" fill-opacity="0.25"/>
<g clip-path="url(#clip0_172_927)">
<path d="M12.1313 22.101C18.4871 22.101 21.964 16.8346 21.964 12.2757C21.964 12.1283 21.964 11.9789 21.9576 11.8315C22.6345 11.3415 23.2188 10.7348 23.6829 10.0399C23.0506 10.3187 22.3805 10.5024 21.6945 10.5852C22.4171 10.1532 22.9584 9.47355 23.2176 8.67253C22.5387 9.07477 21.7955 9.35714 21.0208 9.50727C20.4999 8.95256 19.8107 8.58508 19.0598 8.46175C18.309 8.33843 17.5384 8.46614 16.8675 8.8251C16.1965 9.18406 15.6627 9.75425 15.3486 10.4473C15.0346 11.1404 14.9578 11.9177 15.1303 12.6589C13.7563 12.59 12.4122 12.233 11.1851 11.6112C9.95792 10.9894 8.8752 10.1166 8.00711 9.04938C7.56642 9.81052 7.43193 10.7109 7.63095 11.5676C7.82997 12.4243 8.34759 13.1731 9.07869 13.662C8.53084 13.6434 7.99503 13.4963 7.51448 13.2325V13.2799C7.51543 14.0773 7.79165 14.8498 8.29645 15.467C8.80126 16.0842 9.50369 16.5082 10.285 16.6673C9.98844 16.749 9.68209 16.7897 9.37448 16.7883C9.15762 16.789 8.9412 16.7689 8.72817 16.7283C8.94899 17.4147 9.37898 18.0148 9.9579 18.4446C10.5368 18.8744 11.2357 19.1124 11.9566 19.1252C10.7319 20.0871 9.21911 20.6088 7.66185 20.6062C7.38745 20.6074 7.11324 20.5916 6.8408 20.5589C8.42134 21.5665 10.2569 22.1015 12.1313 22.101Z" fill="white"/>
</g>
<defs>
<clipPath id="clip0_172_927">
<rect width="16.8421" height="16.8421" fill="white" transform="translate(6.8408 6.31445)"/>
</clipPath>
</defs>
</svg>
